<svg width="1577" height="613" viewBox="0 0 1577 613" fill="none" xmlns="http://www.w3.org/2000/svg">
<path opacity="0.2" d="M-29.5548 492.056C61.946 351.683 327.815 91.5739 659.284 174.12C1073.62 277.302 945.539 -101.294 1224.46 -38.4053C1447.6 11.9055 1509.72 -147.454 1512.89 -233.423" stroke="#989898"/>
<path opacity="0.2" d="M-37.6856 449.753C53.8151 309.38 319.684 49.271 651.153 131.817C1065.49 234.999 937.408 -143.597 1216.33 -80.7083C1439.47 -30.3975 1501.59 -189.757 1504.76 -275.726" stroke="#989898"/>
<path opacity="0.2" d="M-9.39853 530.771C82.1022 390.398 347.971 130.289 679.441 212.834C1093.78 316.016 965.695 -62.5792 1244.62 0.309322C1467.76 50.6201 1529.88 -108.74 1533.05 -194.708" stroke="#989898"/>
<path opacity="0.2" d="M-8.36191 538.704C83.1388 398.331 349.008 138.221 680.477 220.767C1094.81 323.949 966.732 -54.6465 1245.66 8.24194C1468.8 58.5527 1530.92 -100.807 1534.09 -186.776" stroke="#989898"/>
<path opacity="0.2" d="M-7.32529 546.636C84.1754 406.263 350.044 146.154 681.514 228.699C1095.85 331.881 967.768 -46.7139 1246.69 16.1746C1469.83 66.4853 1531.95 -92.8743 1535.12 -178.843" stroke="#989898"/>
<path opacity="0.2" d="M-6.28867 554.569C85.2121 414.196 351.081 154.086 682.55 236.632C1096.89 339.814 968.805 -38.7816 1247.73 24.1069C1470.87 74.4177 1532.99 -84.942 1536.16 -170.911" stroke="#989898"/>
<path opacity="0.2" d="M-5.25205 562.501C86.2487 422.128 352.118 162.019 683.587 244.564C1097.92 347.746 969.841 -30.8489 1248.77 32.0395C1471.91 82.3503 1534.03 -77.0093 1537.2 -162.978" stroke="#989898"/>
<path opacity="0.2" d="M-4.21543 570.434C87.2853 430.061 353.154 169.951 684.624 252.497C1098.96 355.679 970.878 -22.9163 1249.8 39.9722C1472.94 90.283 1535.06 -69.0767 1538.23 -155.045" stroke="#989898"/>
<path opacity="0.2" d="M-3.1788 578.366C88.3219 437.994 354.191 177.884 685.66 260.43C1100 363.612 971.915 -14.9837 1250.84 47.9048C1473.98 98.2156 1536.1 -61.1441 1539.27 -147.113" stroke="#989898"/>
<path opacity="0.2" d="M-2.14243 586.299C89.3583 445.926 355.227 185.816 686.697 268.362C1101.03 371.544 972.951 -7.05133 1251.88 55.8372C1475.01 106.148 1537.14 -53.2117 1540.31 -139.18" stroke="#989898"/>
<path opacity="0.2" d="M-1.10581 594.231C90.3949 453.859 356.264 193.749 687.733 276.295C1102.07 379.477 973.988 0.881287 1252.91 63.7698C1476.05 114.081 1538.17 -45.2791 1541.34 -131.248" stroke="#989898"/>
<path opacity="0.2" d="M-0.0691857 602.164C91.4315 461.791 357.3 201.682 688.77 284.227C1103.11 387.409 975.024 8.8139 1253.95 71.7024C1477.09 122.013 1539.21 -37.3465 1542.38 -123.315" stroke="#989898"/>
<path opacity="0.2" d="M0.967435 610.097C92.4682 469.724 358.337 209.614 689.807 292.16C1104.14 395.342 976.061 16.7465 1254.99 79.635C1478.12 129.946 1540.25 -29.4139 1543.42 -115.383" stroke="#989898"/>
</svg>
