<svg width="88" height="59" viewBox="0 0 88 59" fill="none" xmlns="http://www.w3.org/2000/svg">
<path fill-rule="evenodd" clip-rule="evenodd" d="M4.0873 0.699555C2.54154 0.871647 1.86609 1.07668 1.39427 1.51687C1.14901 1.74566 0.842376 2.15771 0.712743 2.43265C0.0833693 3.76755 0.51605 4.64104 1.29885 3.61607C1.60963 3.20921 1.83222 3.07411 2.74959 2.73534C5.64309 1.66689 7.02529 2.43153 7.69066 5.46852C7.81041 6.01492 7.96117 6.99594 8.0259 7.64866C8.12357 8.63397 8.21618 8.9756 8.57183 9.66108C9.13218 10.7412 9.65766 12.1811 10.4143 14.7102C10.7532 15.843 11.1754 17.1636 11.3523 17.6448C12.2773 20.1596 14.1079 22.9902 17.4509 27.0751L19.2714 29.2996L21.4992 30.9853C24.2406 33.0598 25.9318 34.4916 26.8468 35.513C29.3004 38.2521 36.059 42.8738 42.3084 46.0861C42.999 46.4411 44.3905 47.318 45.4007 48.0348C49.0745 50.6415 51.8769 52.3296 54.1204 53.2873C55.3935 53.8309 56.0439 54.0544 60.2309 55.387C63.4822 56.4218 66.4005 57.4862 66.908 57.822C67.2174 58.0269 70.0977 58.6209 71.6179 58.7932C74.1777 59.0836 77.2255 59.0434 78.4688 58.7025C80.1483 58.2422 81.4716 57.3601 84.1759 54.898C85.1461 54.0147 86.1106 53.2419 86.4613 53.067C86.7949 52.9005 87.0693 52.7527 87.0709 52.7385C87.0725 52.7243 86.9321 52.5225 86.7589 52.2901C86.3065 51.6827 86.0746 51.1496 85.7635 50.002C85.6126 49.4455 85.3975 48.7982 85.2854 48.5634C84.7488 47.4389 82.4531 45.2918 80.2533 43.857C79.0593 43.0783 77.7496 42.4707 76.1025 41.9311C75.3127 41.6724 73.6916 41.1248 72.5002 40.7142C71.3088 40.3036 69.7373 39.8166 69.0081 39.6316C68.1221 39.4071 67.368 39.1318 66.7358 38.8025C66.2153 38.5313 64.911 37.9461 63.8372 37.5021C61.3832 36.4871 60.5364 36.0703 59.3221 35.2804C57.8798 34.3421 57.2329 34.0418 54.1829 32.8948C51.136 31.7489 50.0413 31.2263 48.9113 30.3782C47.0804 29.0042 45.8478 28.2709 39.7184 24.9099C36.5427 23.1684 34.6736 21.8986 32.9114 20.2852C32.5375 19.9428 31.9627 19.5132 31.6342 19.3304C30.2891 18.5822 28.8332 17.5753 25.5837 15.1461C24.31 14.1939 24.0399 14.0457 22.2302 13.3049C17.9601 11.5572 14.2069 9.67493 13.1349 8.74362C12.3193 8.03507 11.4442 6.82048 11.0474 5.84626C10.5347 4.58779 10.3882 4.35792 9.25503 3.03498C7.87351 1.42201 7.20935 0.982886 5.8302 0.769964C5.22086 0.675945 4.54471 0.648601 4.0873 0.699555ZM17.3143 20.9597C19.9895 23.3749 24.3146 26.8527 26.7517 28.5482C27.5346 29.0929 27.6328 29.1966 27.4415 29.277C27.3188 29.3286 26.6795 29.3068 26.0208 29.2284C24.6545 29.0661 23.8172 28.7453 22.4789 27.8714C20.754 26.7453 19.4625 25.2762 17.1364 21.7946C15.1212 18.7783 15.1599 18.8412 15.6465 19.3744C15.8725 19.6221 16.623 20.3355 17.3143 20.9597ZM31.088 31.1376C31.3073 31.2825 32.5872 32.0029 33.9324 32.7386C42.7096 37.5388 42.9517 37.6975 42.8515 38.5869C42.796 39.0801 42.5248 39.4111 42.0072 39.6172C41.433 39.8458 38.5536 39.5787 37.1319 39.165C34.9606 38.5331 33.8209 37.5105 31.9379 34.5048C31.0611 33.1053 30.5929 32.0145 30.5576 31.2892C30.5332 30.7905 30.5537 30.7846 31.088 31.1376ZM51.7477 43.3311C54.2949 44.5996 56.7777 45.504 59.3719 46.1081C60.741 46.427 61.1802 46.6516 61.2353 47.0609C61.3552 47.9523 59.9723 48.919 57.7251 49.5143C55.6281 50.0699 54.3334 50.0899 52.9315 49.5882C51.8557 49.2032 51.2269 48.7018 50.1575 47.3765C49.3844 46.4184 49.1187 45.9852 48.8651 45.269C48.4429 44.0771 48.436 43.1127 48.8467 42.6993C49.2839 42.2593 49.838 42.38 51.7477 43.3311ZM70.9021 50.5124C72.8192 51.1508 74.2353 51.4731 75.9929 51.6711C77.2243 51.8098 77.386 51.8522 77.5722 52.0857C77.865 52.4528 77.7133 52.7305 76.8609 53.3863C76.0891 53.9801 74.5402 54.615 73.537 54.7489C72.7311 54.8564 71.7127 54.6055 70.9308 54.1067C69.1831 52.992 67.9964 50.6383 68.9264 50.1317C69.2688 49.945 69.1013 49.9127 70.9021 50.5124Z" fill="black"/>
</svg>
