<svg width="64" height="144" viewBox="0 0 64 144" fill="none" xmlns="http://www.w3.org/2000/svg">
<path fill-rule="evenodd" clip-rule="evenodd" d="M59.5458 1.42842C56.3331 4.10319 50.5673 11.2455 45.973 18.2414C43.4581 22.0712 40.5397 27.0152 40.653 27.2547C40.7955 27.5564 41.8292 28.028 42.012 27.8748C42.1107 27.7922 42.8849 26.5458 43.7328 25.1048C48.9264 16.2787 56.0944 6.74018 60.2651 3.10503L61.5678 1.96965L61.0991 1.35508C60.8412 1.01713 60.579 0.734904 60.5163 0.727847C60.4538 0.72081 60.017 1.03615 59.5458 1.42842ZM45.8513 7.89685C42.6472 10.6728 38.8025 15.0951 36.3882 18.7816C31.2996 26.5514 28.0911 34.7926 27.2511 42.25L27.0933 43.6512L27.9128 43.7435L28.7323 43.8358L29.1768 41.0751C30.0146 35.872 31.309 31.8174 33.624 27.1437C37.307 19.7087 40.9266 14.7646 46.2404 9.91015C47.1243 9.10281 47.8072 8.35726 47.7581 8.2534C47.7092 8.14937 47.4467 7.86502 47.1749 7.62136L46.6808 7.17829L45.8513 7.89685ZM60.0522 15.969C56.2808 23.5656 52.9193 29.414 48.0946 36.7743C46.751 38.824 45.6171 40.5568 45.5751 40.625C45.5332 40.6933 45.8183 40.9604 46.2086 41.2183L46.9186 41.6874L48.3157 39.6078C52.1622 33.882 55.4664 28.4224 58.2529 23.1884C60.1783 19.5717 63.0255 13.9443 63.0529 13.7016C63.0635 13.6069 61.9842 13.089 61.7152 13.0597C61.6011 13.0472 60.8528 14.3565 60.0522 15.969ZM28.7396 21.6837C28.4819 22.012 25.9114 28.0267 25.1941 29.9794C22.8691 36.3083 20.7406 46.0005 20.2884 52.3176C20.0866 55.1365 19.9646 60.0521 20.0607 61.4912C20.1009 62.0952 20.1298 62.1179 20.8002 62.0753C21.1839 62.051 21.5609 61.9841 21.638 61.927C21.7152 61.8698 21.7661 60.8783 21.7513 59.7238C21.604 48.3167 24.3439 35.4892 29.2178 24.7686C29.7769 23.5392 30.2443 22.4432 30.2567 22.3329C30.2691 22.2228 30.0231 22.0097 29.7099 21.8593C29.0378 21.5366 28.8777 21.5075 28.7396 21.6837ZM58.6464 28.2136C58.59 28.3289 57.9819 29.9745 57.2954 31.8704C54.5499 39.4522 50.9614 47.3162 47.811 52.6544C46.6789 54.5731 43.9726 58.6646 43.2786 59.5074C42.9929 59.8541 43.0166 59.9168 43.6057 60.3795C44.1451 60.8031 44.2833 60.8432 44.5254 60.6466C45.2972 60.0199 50.3295 51.9978 51.658 49.2764C53.3395 45.8322 55.5446 41.0192 56.515 38.6756C57.976 35.1466 60.3037 28.7414 60.181 28.5875C59.9546 28.3036 58.7464 28.0094 58.6464 28.2136ZM37.9797 29.6886C34.0254 30.9906 30.5443 40.1888 32.2087 44.9374C32.6793 46.2799 33.2304 46.8198 34.2479 46.9344C38.2244 47.3822 42.811 36.8207 40.9293 31.5489C40.3489 29.923 39.292 29.2565 37.9797 29.6886ZM56.4946 43.9785C56.4408 44.0941 55.9539 45.3392 55.4125 46.7456C51.7099 56.3647 46.1526 66.6405 40.647 74.0481C40 74.9185 39.4472 75.7044 39.4186 75.7946C39.3443 76.0282 40.4571 76.8422 40.6962 76.7293C40.9875 76.5915 43.7653 72.7143 45.6284 69.8451C49.7609 63.48 53.7976 55.5825 56.6749 48.2328C57.4192 46.3313 58.0397 44.6751 58.0535 44.5524C58.089 44.2376 56.6246 43.6986 56.4946 43.9785ZM42.8067 42.8761C38.8321 44.6327 34.6977 50.6067 34.4438 54.9601C34.3958 55.7838 34.4658 56.6511 34.6104 57.0257C36.1892 61.115 43.2205 56.3177 45.9357 49.2989C47.005 46.5342 46.9513 44.023 45.8011 43.0077C45.1944 42.4723 43.854 42.4134 42.8067 42.8761ZM28.5032 45.5142C27.3991 45.8258 26.0276 47.6058 25.2531 49.7325C24.6713 51.3296 24.2645 55.8533 24.5356 57.7091C24.9599 60.6126 25.9431 62.7062 27.1994 63.3809C28.0964 63.8625 28.7474 63.7763 29.7047 63.0494C32.6014 60.8498 33.8086 53.3484 32.0424 48.5218C31.1798 46.1644 29.9379 45.1091 28.5032 45.5142ZM2.26043 50.0012C1.00913 65.019 0.529697 74.4967 0.769459 79.4858C1.02747 84.8542 1.93472 89.8015 3.48457 94.2917C4.72437 97.8836 8.91971 106.173 11.1351 109.408C13.2961 112.564 15.4694 116.29 16.257 118.189C16.8451 119.607 17.2448 121.169 17.8616 124.458C18.2938 126.764 18.0677 130.466 17.2756 134.056C16.8226 136.109 16.2601 137.579 14.9561 140.118C14.5035 140.999 14.1545 141.74 14.1804 141.763C14.485 142.04 16.9649 143.699 17.0966 143.714C17.3582 143.744 19.307 137.602 19.9868 134.607C21.1143 129.639 21.7676 121.807 21.648 114.689C21.5873 111.078 21.5244 108.333 21.4859 107.62C21.4501 106.957 21.4525 106.954 21.7146 107.409C22.0571 108.003 22.8634 108.538 23.5305 108.613C24.4637 108.718 26.4195 107.89 27.9435 106.746C32.858 103.055 36.0758 96.0631 34.002 93.5805C32.2485 91.4813 27.2957 94.1657 24.0087 98.9971C22.9678 100.527 21.7291 103.12 21.6334 103.969C21.5248 104.933 21.2716 104.065 20.8718 101.358C20.2278 96.9953 20.2102 97.4396 21.0389 97.1423C22.7356 96.5336 23.7727 93.9448 23.7852 90.2874C23.8038 84.8333 21.3988 79.5979 18.7369 79.298C18.0195 79.2173 17.7913 79.2895 17.2099 79.7818L16.5263 80.3605L16.074 78.9392C15.8251 78.1575 15.5897 77.4067 15.5507 77.2708C15.5083 77.1227 15.7653 76.9403 16.1909 76.8162C16.582 76.7023 16.9102 76.5359 16.9203 76.4467C16.9303 76.3575 16.7887 75.8067 16.6056 75.2227C15.597 72.0071 15.2481 67.8605 15.496 62.04C15.636 58.7524 16.3382 54.4531 17.2868 51.0763C17.6079 49.9323 17.8586 48.9774 17.8433 48.9543C17.8282 48.9311 17.4777 48.8184 17.0645 48.7037C16.4504 48.5333 16.2836 48.5526 16.1502 48.8097C16.0604 48.9826 15.6602 50.4258 15.2606 52.0166C13.617 58.561 13.167 68.1865 14.2742 73.1145C14.4178 73.7537 14.5012 74.3035 14.4598 74.3366C14.4183 74.3698 13.8814 73.2104 13.2668 71.7599C12.6523 70.3097 11.2091 67.045 10.0597 64.5049C6.57813 56.81 5.06338 53.2348 3.78627 49.6967L2.56722 46.3198L2.26043 50.0012ZM38.5106 59.8701C34.7522 61.1403 30.3437 67.1955 29.8377 71.7825C29.6074 73.8701 30.4322 75.4701 31.8189 75.6263C33.3429 75.798 36.1174 74.1477 38.0006 71.9492C42.4327 66.7751 43.5483 59.9769 40.0282 59.5928C39.7383 59.5611 39.0554 59.686 38.5106 59.8701ZM51.9775 64.0849C49.4306 72.9503 43.891 82.7235 37.0404 90.4379C36.0978 91.4991 35.3179 92.4456 35.3072 92.541C35.2964 92.6366 35.5315 92.9417 35.8298 93.2188L36.372 93.7228L36.7756 93.3135C37.9312 92.1418 41.2671 88.1081 42.7419 86.0989C47.9001 79.0722 52.2934 70.2042 53.9284 63.5189L54.16 62.5725L53.5649 62.3822C53.2377 62.2775 52.8722 62.1809 52.7527 62.1675C52.6235 62.1529 52.3094 62.9293 51.9775 64.0849ZM22.4864 63.4044C21.648 63.6728 21.2134 64.1185 20.6466 65.2918C18.8871 68.9327 19.6303 75.8186 22.1704 79.4081C23.0935 80.7126 23.721 81.1962 24.6075 81.2865C25.4161 81.3687 25.9904 81.1174 26.6714 80.3833C27.5417 79.4448 27.8221 78.5487 28.1122 75.7805C28.3381 73.6261 28.332 72.9708 28.0737 71.4885C27.1831 66.3796 24.6483 62.7122 22.4864 63.4044ZM34.6576 76.9097C33.232 77.4613 30.7763 79.3537 29.4509 80.9219C26.4941 84.4208 24.9943 88.508 25.8349 90.7763C27.0678 94.1031 32.7699 91.3342 36.5188 85.5886C38.1166 83.1399 39.0277 80.3644 38.7755 78.7142C38.4686 76.705 36.9294 76.0304 34.6576 76.9097ZM17.4375 83.7315C18.9056 89.0257 19.4223 91.4729 19.9913 95.8277C20.1689 97.187 20.1696 97.1818 19.7991 97.14C18.8044 97.028 17.1478 95 16.4045 92.9845C15.3908 90.2356 14.9457 85.8231 15.4481 83.5011C15.7903 81.9195 16.2527 80.7023 16.4727 80.8042C16.5693 80.849 17.0034 82.1663 17.4375 83.7315ZM16.4951 96.8104C17.1509 97.3174 18.084 98.8258 18.7475 100.452C20.565 104.906 20.1748 111.588 17.9891 113.439C17.4197 113.921 17.1831 113.996 16.4886 113.917C14.913 113.738 13.6604 112.268 12.6277 109.386C11.6847 106.754 11.4225 104.85 11.6149 102.03C11.8486 98.6077 12.7077 96.6714 14.1983 96.2075C14.9177 95.9839 15.6868 96.1856 16.4951 96.8104Z" fill="black"/>
</svg>
