<svg width="75" height="66" viewBox="0 0 75 66" fill="none" xmlns="http://www.w3.org/2000/svg">
<path fill-rule="evenodd" clip-rule="evenodd" d="M68.8769 54.3817C68.8769 55.5387 67.5641 56.6067 65.3686 57.4077V54.2037C66.5785 53.8387 67.7528 53.3645 68.8769 52.7871V54.3817ZM61.8528 48.5151V45.3111C63.0654 44.9436 64.2421 44.467 65.3686 43.8871V45.4891C65.3686 46.6461 64.0483 47.7141 61.8528 48.5151ZM61.8528 58.4757C60.7996 58.7427 59.5683 58.9207 58.3371 59.0987V55.6277L61.8528 55.0937V58.4757ZM54.8213 46.7351L58.3371 46.2011V49.5831C57.2838 49.8501 56.0526 50.0281 54.8213 50.2061V46.7351ZM54.8213 59.5437C53.6791 59.6327 52.5368 59.7217 51.3056 59.7217V56.1617C52.3662 56.1617 53.5901 56.0727 54.8213 55.9837V59.5363V59.5437ZM47.7972 50.8291V47.2691C48.8505 47.2691 50.0817 47.1801 51.3056 47.0911V50.6363C50.1633 50.7253 49.0285 50.7253 47.7972 50.8143V50.8291ZM47.7972 59.7292C46.566 59.7292 45.4237 59.6401 44.2815 59.5511V56.1691H47.7972V59.7292ZM40.7657 47.1208C41.908 47.2098 43.0502 47.2988 44.2815 47.2988V50.8588C43.0502 50.8588 41.908 50.7698 40.7657 50.6808V47.1208ZM40.7657 59.1284C39.5345 58.9504 38.3032 58.7724 37.25 58.5054V55.6574C38.3922 55.8354 39.5345 55.9244 40.7657 56.0134V59.1284ZM33.7416 49.6128V46.1121C34.8839 46.2901 36.0261 46.5571 37.25 46.6461V50.2061C36.0261 50.0281 34.7949 49.8501 33.7416 49.5831V49.6128ZM33.7416 57.4374C31.5165 56.5474 30.2259 55.4794 30.2259 54.4114V54.2334H30.3149C30.5347 54.334 30.7709 54.3943 31.0121 54.4114C31.9093 54.6708 32.8207 54.8788 33.7416 55.0344V57.4374ZM19.649 45.3408C20.2646 45.3408 20.7912 45.4298 21.4068 45.4298V45.5188C21.3744 46.7351 21.6799 47.9367 22.2895 48.9898C21.4069 48.9748 20.5256 48.9154 19.649 48.8118V45.3408ZM16.1406 34.6681C17.2829 34.8461 18.4251 35.1131 19.649 35.2021V38.7547C18.4251 38.5767 17.1939 38.3987 16.1406 38.1317V34.6681ZM16.1406 48.4558C14.9094 48.2778 13.6781 48.0998 12.6249 47.8328V44.3321C13.7671 44.5101 14.9094 44.7771 16.1406 44.8661V48.4113V48.4558ZM9.10911 33.9561V32.3541C10.2314 32.9202 11.4097 33.3676 12.6249 33.6891V36.9747C10.3997 36.1811 9.10911 35.1131 9.10911 33.9561ZM9.10911 46.7648C6.88395 45.8748 5.59337 44.8068 5.59337 43.7388V42.1071C6.71568 42.6731 7.89396 43.1205 9.10911 43.4421V46.7351V46.7648ZM5.61562 18.9818C6.7382 19.5454 7.91648 19.9903 9.13136 20.3094V23.6024C6.9062 22.7124 5.61562 21.6444 5.61562 20.5764V18.9818ZM16.1629 21.8224V25.4195C14.9316 25.2415 13.7004 25.0635 12.6471 24.7965V21.3255C13.7894 21.5035 14.9316 21.6815 16.1629 21.8595V21.8224ZM24.9448 6.34377C35.6627 6.34377 44.2741 8.74679 44.2741 11.6838C44.2741 14.6208 35.6627 17.0238 24.9448 17.0238C14.227 17.0238 5.61562 14.6208 5.61562 11.6838C5.61562 8.74679 14.227 6.34377 24.9448 6.34377ZM30.2185 48.5151C27.9933 47.6251 26.7027 46.5571 26.7027 45.4891V43.8871C27.825 44.4531 29.0033 44.9005 30.2185 45.2221V48.5151ZM40.7583 23.6024V20.3984C41.9711 20.0347 43.1479 19.5605 44.2741 18.9818V20.5764C44.2741 21.7334 42.9538 22.8014 40.7583 23.6024ZM33.7342 25.2934V21.8224L37.2426 21.2884V24.6778C36.1893 24.9448 34.9581 25.1228 33.7342 25.3008V25.2934ZM26.7027 25.9164V22.3564C27.756 22.3564 28.9872 22.2674 30.2185 22.1784V25.7384C29.0762 25.8274 27.934 25.8274 26.7027 25.9164ZM19.6712 25.7384V22.1784C20.8135 22.2674 21.9557 22.3564 23.187 22.3564V25.9164C21.9557 25.8274 20.8135 25.8274 19.6712 25.7384ZM65.3612 36.5965C65.3612 39.5261 56.7498 41.9291 46.0319 41.9291C35.3141 41.9291 26.7027 39.5261 26.7027 36.5965C26.7027 33.6669 35.3141 31.2565 46.0319 31.2565C56.7498 31.2565 65.3612 33.6595 65.3612 36.5965ZM70.6274 39.2591V36.5965C70.6274 32.4135 67.3786 29.3875 61.0518 27.6964C58.3776 26.9906 55.648 26.5142 52.8928 26.2724C52.97 25.8619 52.9998 25.4438 52.9818 25.0264C52.983 23.774 52.6597 22.5426 52.0436 21.4521C51.4275 20.3616 50.5395 19.4493 49.4661 18.8038V11.6838C49.4661 7.50079 46.2099 4.47478 39.8905 2.78377C34.9814 1.5325 29.9288 0.933995 24.8633 1.00375C17.4831 1.00375 0.267824 2.07176 0.267824 11.6764V20.5764C0.266883 21.8298 0.590124 23.0622 1.20616 24.1538C1.82219 25.2455 2.71007 26.1593 3.78357 26.8064V28.4974C1.66967 29.9808 0.267824 32.0575 0.267824 34.8165V43.7165C0.267824 47.8995 3.51656 50.9255 9.84343 52.6166C14.7634 53.8622 19.8257 54.4556 24.9003 54.3817C24.9003 58.5647 28.1565 61.5907 34.4759 63.2817C39.385 64.533 44.4376 65.1315 49.5032 65.0618C56.8833 65.0618 74.0986 63.9937 74.0986 54.3817V45.4817C74.1876 42.9897 73.0454 40.8537 70.6719 39.2516L70.6274 39.2591Z" fill="black"/>
</svg>
