<svg width="119" height="120" viewBox="0 0 119 120" fill="none" xmlns="http://www.w3.org/2000/svg">
<path d="M91.6299 17.16C92.2872 17.16 92.8199 16.6272 92.8199 15.97C92.8199 15.3128 92.2872 14.78 91.6299 14.78C90.9727 14.78 90.4399 15.3128 90.4399 15.97C90.4399 16.6272 90.9727 17.16 91.6299 17.16Z" fill="#D21F25"/>
<path d="M59.5 104.03C83.8171 104.03 103.53 84.3171 103.53 60C103.53 35.6829 83.8171 15.97 59.5 15.97C35.1829 15.97 15.47 35.6829 15.47 60C15.47 84.3171 35.1829 104.03 59.5 104.03Z" fill="#DCDCDC"/>
<path d="M98.7699 23.1101C101.399 23.1101 103.53 20.979 103.53 18.3501C103.53 15.7212 101.399 13.5901 98.7699 13.5901C96.141 13.5901 94.0099 15.7212 94.0099 18.3501C94.0099 20.979 96.141 23.1101 98.7699 23.1101Z" fill="#D21F25" fill-opacity="0.8"/>
<path d="M103.53 31.4399C104.844 31.4399 105.91 30.3744 105.91 29.0599C105.91 27.7455 104.844 26.6799 103.53 26.6799C102.215 26.6799 101.15 27.7455 101.15 29.0599C101.15 30.3744 102.215 31.4399 103.53 31.4399Z" fill="#C4C4C4"/>
<path d="M96.3899 93.3201C97.7043 93.3201 98.7699 92.2545 98.7699 90.9401C98.7699 89.6256 97.7043 88.5601 96.3899 88.5601C95.0754 88.5601 94.0099 89.6256 94.0099 90.9401C94.0099 92.2545 95.0754 93.3201 96.3899 93.3201Z" fill="url(#paint0_linear)"/>
<path d="M17.8501 80.2301C20.479 80.2301 22.6101 78.099 22.6101 75.4701C22.6101 72.8412 20.479 70.7101 17.8501 70.7101C15.2212 70.7101 13.0901 72.8412 13.0901 75.4701C13.0901 78.099 15.2212 80.2301 17.8501 80.2301Z" fill="url(#paint1_linear)"/>
<path d="M29.7499 106.41C31.0643 106.41 32.1299 105.344 32.1299 104.03C32.1299 102.715 31.0643 101.65 29.7499 101.65C28.4354 101.65 27.3699 102.715 27.3699 104.03C27.3699 105.344 28.4354 106.41 29.7499 106.41Z" fill="#C4C4C4"/>
<path d="M23.2049 55.2399C24.8479 55.2399 26.1799 53.908 26.1799 52.2649C26.1799 50.6219 24.8479 49.2899 23.2049 49.2899C21.5618 49.2899 20.2299 50.6219 20.2299 52.2649C20.2299 53.908 21.5618 55.2399 23.2049 55.2399Z" fill="white"/>
<path d="M94.6051 42.15C95.5909 42.15 96.3901 41.3508 96.3901 40.365C96.3901 39.3791 95.5909 38.58 94.6051 38.58C93.6192 38.58 92.8201 39.3791 92.8201 40.365C92.8201 41.3508 93.6192 42.15 94.6051 42.15Z" fill="white"/>
<path d="M60.3328 86.5371V77.0171H48.4328V71.0671H35.3428V58.8101C35.3428 54.676 38.7057 51.3131 42.8398 51.3131C45.8481 51.3131 48.5553 53.1017 49.737 55.8708L50.2118 56.9846L51.0817 56.1421C52.7144 54.563 54.8588 53.6931 57.1198 53.6931C60.0246 53.6931 62.7259 55.1378 64.3443 57.5594L64.7965 58.2353L65.4831 57.7998C67.2621 56.6705 69.3078 56.0731 71.3998 56.0731C77.5021 56.0731 82.4668 61.0378 82.4668 67.1401V86.5371H60.3328Z" fill="#B7B7B7"/>
<path d="M42.8399 52.1459C45.5138 52.1459 47.9212 53.7357 48.972 56.1978L49.9228 58.4255L51.6625 56.7404C53.1382 55.3124 55.0767 54.5259 57.1199 54.5259C59.7462 54.5259 62.1881 55.8325 63.653 58.0221L64.5574 59.3739L65.9306 58.5028C67.5752 57.458 69.4673 56.9059 71.3999 56.9059C77.0429 56.9059 81.6339 61.4969 81.6339 67.1399V85.7039H61.1659V77.8499V76.1839H59.4999H49.2659V71.8999V70.2339H47.5999H36.1759V58.8099C36.1759 55.1351 39.1652 52.1459 42.8399 52.1459ZM42.8399 50.4799C38.2393 50.4799 34.5099 54.2093 34.5099 58.8099V71.5964C34.5099 71.7642 34.6455 71.8999 34.8133 71.8999H47.5999V77.6083C47.5999 77.7416 47.7082 77.8499 47.8415 77.8499H59.4999V87.3699H83.2999V67.1399C83.2999 60.5675 77.9723 55.2399 71.3999 55.2399C69.0568 55.2399 66.8791 55.9265 65.037 57.0963C63.3293 54.5425 60.4221 52.8599 57.1199 52.8599C54.5471 52.8599 52.2171 53.8844 50.5035 55.5433C49.2338 52.5671 46.2802 50.4799 42.8399 50.4799Z" fill="#EA312C"/>
<path d="M72.59 46.077C76.0732 46.077 78.897 43.2533 78.897 39.77C78.897 36.2868 76.0732 33.463 72.59 33.463C69.1067 33.463 66.283 36.2868 66.283 39.77C66.283 43.2533 69.1067 46.077 72.59 46.077Z" fill="#B7B7B7"/>
<path d="M72.5901 34.2961C75.6079 34.2961 78.0641 36.7511 78.0641 39.7701C78.0641 42.7892 75.6079 45.2441 72.5901 45.2441C69.5722 45.2441 67.1161 42.7892 67.1161 39.7701C67.1161 36.7511 69.5722 34.2961 72.5901 34.2961ZM72.5901 32.6301C68.6464 32.6301 65.4501 35.8277 65.4501 39.7701C65.4501 43.7126 68.6464 46.9101 72.5901 46.9101C76.5337 46.9101 79.7301 43.7126 79.7301 39.7701C79.7301 35.8277 76.5337 32.6301 72.5901 32.6301Z" fill="#EA312C"/>
<path d="M55.9301 46.0768C58.7562 46.0768 61.0471 43.7858 61.0471 40.9598C61.0471 38.1337 58.7562 35.8428 55.9301 35.8428C53.1041 35.8428 50.8131 38.1337 50.8131 40.9598C50.8131 43.7858 53.1041 46.0768 55.9301 46.0768Z" fill="#B7B7B7"/>
<path d="M55.9299 36.6759C58.292 36.6759 60.2139 38.5977 60.2139 40.9599C60.2139 43.322 58.292 45.2439 55.9299 45.2439C53.5677 45.2439 51.6459 43.322 51.6459 40.9599C51.6459 38.5977 53.5677 36.6759 55.9299 36.6759ZM55.9299 35.0099C52.6443 35.0099 49.9799 37.6743 49.9799 40.9599C49.9799 44.2455 52.6443 46.9099 55.9299 46.9099C59.2154 46.9099 61.8799 44.2455 61.8799 40.9599C61.8799 37.6743 59.2154 35.0099 55.9299 35.0099Z" fill="#EA312C"/>
<path d="M41.6499 46.0769C43.8187 46.0769 45.5769 44.3187 45.5769 42.1499C45.5769 39.9811 43.8187 38.2229 41.6499 38.2229C39.4811 38.2229 37.7229 39.9811 37.7229 42.1499C37.7229 44.3187 39.4811 46.0769 41.6499 46.0769Z" fill="#B7B7B7"/>
<path d="M41.65 39.056C43.3565 39.056 44.744 40.4447 44.744 42.15C44.744 43.8553 43.3565 45.244 41.65 45.244C39.9436 45.244 38.556 43.8553 38.556 42.15C38.556 40.4447 39.9436 39.056 41.65 39.056ZM41.65 37.39C39.0213 37.39 36.89 39.5213 36.89 42.15C36.89 44.7787 39.0213 46.91 41.65 46.91C44.2787 46.91 46.41 44.7787 46.41 42.15C46.41 39.5213 44.2787 37.39 41.65 37.39Z" fill="#EA312C"/>
<path d="M63.6649 73.1889C63.5007 73.1889 63.3674 73.0556 63.3674 72.8914V67.0973C63.3674 66.9331 63.5007 66.7998 63.6649 66.7998C63.8292 66.7998 63.9624 66.9331 63.9624 67.0973V72.8914C63.9624 73.0556 63.8292 73.1889 63.6649 73.1889Z" fill="#EA312C"/>
<path d="M63.891 65.5359C63.8672 65.5359 63.8434 65.5335 63.8196 65.5276C63.6601 65.4883 63.5626 65.3265 63.6018 65.167C63.7327 64.6375 63.9207 64.1186 64.1599 63.6248C65.4868 60.8806 68.3118 59.1075 71.3571 59.1075H71.4415C71.6058 59.1075 71.739 59.2408 71.739 59.405C71.739 59.5693 71.6058 59.7025 71.4415 59.7025H71.3571C68.5379 59.7025 65.9235 61.3436 64.6954 63.883C64.4741 64.34 64.3004 64.8207 64.179 65.3098C64.1457 65.4455 64.0243 65.5359 63.891 65.5359Z" fill="#EA312C"/>
<path d="M63.6649 83.5024C63.5007 83.5024 63.3674 83.3691 63.3674 83.2049V75.3711C63.3674 75.2069 63.5007 75.0736 63.6649 75.0736C63.8292 75.0736 63.9624 75.2069 63.9624 75.3711V83.2049C63.9624 83.3691 63.8292 83.5024 63.6649 83.5024Z" fill="#EA312C"/>
<path d="M52.4351 60.081C52.3852 60.081 52.3364 60.0691 52.29 60.0441C52.146 59.9644 52.0948 59.7835 52.1745 59.6395C53.1729 57.8438 55.0674 56.7288 57.119 56.7288C57.2832 56.7288 57.4165 56.862 57.4165 57.0263C57.4165 57.1905 57.2832 57.3238 57.119 57.3238C55.2828 57.3238 53.5871 58.3222 52.6946 59.9287C52.641 60.0251 52.5399 60.081 52.4351 60.081Z" fill="#EA312C"/>
<path d="M51.765 73.9826C51.6008 73.9826 51.4675 73.8494 51.4675 73.6851V62.3801C51.4675 62.2159 51.6008 62.0826 51.765 62.0826C51.9292 62.0826 52.0625 62.2159 52.0625 62.3801V73.6851C52.0625 73.8494 51.9292 73.9826 51.765 73.9826Z" fill="#EA312C"/>
<path d="M38.6749 68.0325C38.5107 68.0325 38.3774 67.8992 38.3774 67.735V60.8925C38.3774 60.7283 38.5107 60.595 38.6749 60.595C38.8392 60.595 38.9724 60.7283 38.9724 60.8925V67.735C38.9724 67.8992 38.8392 68.0325 38.6749 68.0325Z" fill="#EA312C"/>
<path d="M38.6749 59.1074C38.5107 59.1074 38.3774 58.9741 38.3774 58.8099C38.3774 56.349 40.379 54.3474 42.8399 54.3474C43.0042 54.3474 43.1374 54.4807 43.1374 54.6449C43.1374 54.8091 43.0042 54.9424 42.8399 54.9424C40.7075 54.9424 38.9724 56.6774 38.9724 58.8099C38.9724 58.9741 38.8392 59.1074 38.6749 59.1074Z" fill="#EA312C"/>
<defs>
<linearGradient id="paint0_linear" x1="94.0099" y1="89.2355" x2="98.7699" y2="92.709" gradientUnits="userSpaceOnUse">
<stop stop-color="#D21F25"/>
<stop offset="0.479167" stop-color="#E7242A"/>
<stop offset="1" stop-color="#AE0006"/>
</linearGradient>
<linearGradient id="paint1_linear" x1="13.0901" y1="72.0609" x2="22.6101" y2="79.0079" gradientUnits="userSpaceOnUse">
<stop stop-color="#D21F25"/>
<stop offset="0.479167" stop-color="#E7242A"/>
<stop offset="1" stop-color="#AE0006"/>
</linearGradient>
</defs>
</svg>
