<svg width="129" height="129" viewBox="0 0 129 129" fill="none" xmlns="http://www.w3.org/2000/svg">
<circle cx="64.5" cy="64.5" r="64.5" fill="#E93F4F"/>
<path d="M98.0412 77.8111C100.953 70.8921 101.623 63.2345 99.9578 55.9149C98.2923 48.5953 94.3745 41.9817 88.7554 37.004C83.1363 32.0263 76.0985 28.9349 68.6314 28.1643C61.1643 27.3937 53.6435 28.9827 47.1263 32.708L42.6743 24.9125C49.4853 21.0198 57.1979 18.9812 65.0428 19.0001C72.8876 19.019 80.5904 21.0948 87.3825 25.0203C107.533 36.6528 115.252 61.5605 105.859 82.3304L111.882 85.804L93.1898 95.7401L92.4493 74.5843L98.0412 77.8111ZM31.8451 49.9594C28.9331 56.8783 28.2628 64.5359 29.9284 71.8555C31.594 79.1752 35.5117 85.7887 41.1308 90.7664C46.7499 95.7441 53.7877 98.8356 61.2548 99.6061C68.7219 100.377 76.2428 98.7877 82.76 95.0625L87.2119 102.858C80.401 106.751 72.6883 108.789 64.8435 108.77C56.9986 108.751 49.2959 106.676 42.5038 102.75C22.3532 91.1176 14.6341 66.2099 24.0272 45.4401L18 41.9709L36.692 32.0348L37.4325 53.1906L31.8406 49.9638L31.8451 49.9594ZM71.2935 76.5769L58.5883 63.8852L45.8966 76.5769L39.5508 70.2311L58.5928 51.1935L71.289 63.8852L83.9852 51.1935L90.331 57.5394L71.289 76.5769H71.2935Z" fill="white"/>
</svg>
