<svg width="119" height="119" viewBox="0 0 119 119" fill="none" xmlns="http://www.w3.org/2000/svg">
<path d="M91.6299 14.28C91.3143 14.28 91.0117 14.4054 90.7885 14.6286C90.5653 14.8517 90.4399 15.1544 90.4399 15.47C90.4399 15.7856 90.5653 16.0883 90.7885 16.3115C91.0117 16.5347 91.3143 16.66 91.6299 16.66C91.9455 16.66 92.2482 16.5347 92.4714 16.3115C92.6946 16.0883 92.8199 15.7856 92.8199 15.47C92.8199 15.1544 92.6946 14.8517 92.4714 14.6286C92.2482 14.4054 91.9455 14.28 91.6299 14.28Z" fill="#D21F25" fill-opacity="0.2"/>
<path d="M59.5 15.47C47.8225 15.47 36.6233 20.1088 28.3661 28.3661C20.1088 36.6233 15.47 47.8225 15.47 59.5C15.47 71.1774 20.1088 82.3766 28.3661 90.6339C36.6233 98.8911 47.8225 103.53 59.5 103.53C71.1774 103.53 82.3766 98.8911 90.6339 90.6339C98.8911 82.3766 103.53 71.1774 103.53 59.5C103.53 47.8225 98.8911 36.6233 90.6339 28.3661C82.3766 20.1088 71.1774 15.47 59.5 15.47Z" fill="#E6EDB7"/>
<path d="M98.77 13.09C97.5076 13.09 96.2969 13.5915 95.4042 14.4841C94.5115 15.3768 94.01 16.5875 94.01 17.85C94.01 19.1124 94.5115 20.3231 95.4042 21.2158C96.2969 22.1085 97.5076 22.61 98.77 22.61C100.032 22.61 101.243 22.1085 102.136 21.2158C103.029 20.3231 103.53 19.1124 103.53 17.85C103.53 16.5875 103.029 15.3768 102.136 14.4841C101.243 13.5915 100.032 13.09 98.77 13.09Z" fill="#D21F25" fill-opacity="0.2"/>
<path d="M103.53 26.1801C102.899 26.1801 102.293 26.4308 101.847 26.8771C101.401 27.3235 101.15 27.9288 101.15 28.5601C101.15 29.1913 101.401 29.7966 101.847 30.243C102.293 30.6893 102.899 30.9401 103.53 30.9401C104.161 30.9401 104.767 30.6893 105.213 30.243C105.659 29.7966 105.91 29.1913 105.91 28.5601C105.91 27.9288 105.659 27.3235 105.213 26.8771C104.767 26.4308 104.161 26.1801 103.53 26.1801Z" fill="#88AE45"/>
<path d="M96.39 88.06C95.7587 88.06 95.1534 88.3107 94.707 88.757C94.2607 89.2034 94.01 89.8087 94.01 90.44C94.01 91.0712 94.2607 91.6765 94.707 92.1229C95.1534 92.5692 95.7587 92.82 96.39 92.82C97.0212 92.82 97.6265 92.5692 98.0729 92.1229C98.5192 91.6765 98.77 91.0712 98.77 90.44C98.77 89.8087 98.5192 89.2034 98.0729 88.757C97.6265 88.3107 97.0212 88.06 96.39 88.06ZM17.85 70.21C16.5875 70.21 15.3768 70.7115 14.4841 71.6041C13.5915 72.4968 13.09 73.7075 13.09 74.97C13.09 76.2324 13.5915 77.4431 14.4841 78.3358C15.3768 79.2285 16.5875 79.73 17.85 79.73C19.1124 79.73 20.3231 79.2285 21.2158 78.3358C22.1085 77.4431 22.61 76.2324 22.61 74.97C22.61 73.7075 22.1085 72.4968 21.2158 71.6041C20.3231 70.7115 19.1124 70.21 17.85 70.21Z" fill="#D21F25" fill-opacity="0.2"/>
<path d="M29.75 101.15C29.1188 101.15 28.5134 101.401 28.0671 101.847C27.6207 102.293 27.37 102.899 27.37 103.53C27.37 104.161 27.6207 104.767 28.0671 105.213C28.5134 105.659 29.1188 105.91 29.75 105.91C30.3812 105.91 30.9866 105.659 31.4329 105.213C31.8792 104.767 32.13 104.161 32.13 103.53C32.13 102.899 31.8792 102.293 31.4329 101.847C30.9866 101.401 30.3812 101.15 29.75 101.15Z" fill="#88AE45"/>
<path d="M22.015 58.31C21.226 58.31 20.4693 58.6234 19.9114 59.1813C19.3535 59.7392 19.04 60.4959 19.04 61.285C19.04 62.074 19.3535 62.8307 19.9114 63.3886C20.4693 63.9465 21.226 64.26 22.015 64.26C22.8041 64.26 23.5608 63.9465 24.1187 63.3886C24.6766 62.8307 24.99 62.074 24.99 61.285C24.99 60.4959 24.6766 59.7392 24.1187 59.1813C23.5608 58.6234 22.8041 58.31 22.015 58.31ZM94.605 38.08C94.1316 38.08 93.6776 38.268 93.3428 38.6028C93.0081 38.9375 92.82 39.3915 92.82 39.865C92.82 40.3384 93.0081 40.7924 93.3428 41.1271C93.6776 41.4619 94.1316 41.65 94.605 41.65C95.0784 41.65 95.5325 41.4619 95.8672 41.1271C96.202 40.7924 96.39 40.3384 96.39 39.865C96.39 39.3915 96.202 38.9375 95.8672 38.6028C95.5325 38.268 95.0784 38.08 94.605 38.08Z" fill="white"/>
<path d="M15.47 32.13C14.8388 32.13 14.2334 32.3808 13.7871 32.8271C13.3407 33.2734 13.09 33.8788 13.09 34.51C13.09 35.1412 13.3407 35.7466 13.7871 36.1929C14.2334 36.6393 14.8388 36.89 15.47 36.89C16.1012 36.89 16.7065 36.6393 17.1529 36.1929C17.5992 35.7466 17.85 35.1412 17.85 34.51C17.85 33.8788 17.5992 33.2734 17.1529 32.8271C16.7065 32.3808 16.1012 32.13 15.47 32.13Z" fill="#EE3E54"/>
<path d="M91.6299 14.2799C91.3143 14.2799 91.0117 14.4053 90.7885 14.6285C90.5653 14.8516 90.4399 15.1543 90.4399 15.4699C90.4399 15.7855 90.5653 16.0882 90.7885 16.3114C91.0117 16.5345 91.3143 16.6599 91.6299 16.6599C91.9455 16.6599 92.2482 16.5345 92.4714 16.3114C92.6946 16.0882 92.8199 15.7855 92.8199 15.4699C92.8199 15.1543 92.6946 14.8516 92.4714 14.6285C92.2482 14.4053 91.9455 14.2799 91.6299 14.2799Z" fill="#D21F25" fill-opacity="0.2"/>
<path d="M59.5 15.47C47.8225 15.47 36.6233 20.1088 28.3661 28.3661C20.1088 36.6233 15.47 47.8225 15.47 59.5C15.47 71.1774 20.1088 82.3766 28.3661 90.6339C36.6233 98.8911 47.8225 103.53 59.5 103.53C71.1774 103.53 82.3766 98.8911 90.6339 90.6339C98.8911 82.3766 103.53 71.1774 103.53 59.5C103.53 47.8225 98.8911 36.6233 90.6339 28.3661C82.3766 20.1088 71.1774 15.47 59.5 15.47Z" fill="#FFA2A2"/>
<path d="M98.77 13.09C97.5076 13.09 96.2969 13.5915 95.4042 14.4841C94.5115 15.3768 94.01 16.5875 94.01 17.85C94.01 19.1124 94.5115 20.3231 95.4042 21.2158C96.2969 22.1085 97.5076 22.61 98.77 22.61C100.032 22.61 101.243 22.1085 102.136 21.2158C103.029 20.3231 103.53 19.1124 103.53 17.85C103.53 16.5875 103.029 15.3768 102.136 14.4841C101.243 13.5915 100.032 13.09 98.77 13.09Z" fill="#D21F25" fill-opacity="0.2"/>
<path d="M103.53 26.1799C102.899 26.1799 102.293 26.4307 101.847 26.877C101.401 27.3234 101.15 27.9287 101.15 28.5599C101.15 29.1911 101.401 29.7965 101.847 30.2428C102.293 30.6892 102.899 30.9399 103.53 30.9399C104.161 30.9399 104.766 30.6892 105.213 30.2428C105.659 29.7965 105.91 29.1911 105.91 28.5599C105.91 27.9287 105.659 27.3234 105.213 26.877C104.766 26.4307 104.161 26.1799 103.53 26.1799Z" fill="#EE3E54"/>
<path d="M96.39 88.06C95.7587 88.06 95.1534 88.3107 94.707 88.757C94.2607 89.2034 94.01 89.8087 94.01 90.44C94.01 91.0712 94.2607 91.6765 94.707 92.1229C95.1534 92.5692 95.7587 92.82 96.39 92.82C97.0212 92.82 97.6265 92.5692 98.0729 92.1229C98.5192 91.6765 98.77 91.0712 98.77 90.44C98.77 89.8087 98.5192 89.2034 98.0729 88.757C97.6265 88.3107 97.0212 88.06 96.39 88.06ZM17.85 70.21C16.5875 70.21 15.3768 70.7115 14.4841 71.6041C13.5915 72.4968 13.09 73.7075 13.09 74.97C13.09 76.2324 13.5915 77.4431 14.4841 78.3358C15.3768 79.2285 16.5875 79.73 17.85 79.73C19.1124 79.73 20.3231 79.2285 21.2158 78.3358C22.1085 77.4431 22.61 76.2324 22.61 74.97C22.61 73.7075 22.1085 72.4968 21.2158 71.6041C20.3231 70.7115 19.1124 70.21 17.85 70.21Z" fill="#D21F25" fill-opacity="0.2"/>
<path d="M29.75 101.15C29.1188 101.15 28.5134 101.401 28.0671 101.847C27.6207 102.293 27.37 102.899 27.37 103.53C27.37 104.161 27.6207 104.766 28.0671 105.213C28.5134 105.659 29.1188 105.91 29.75 105.91C30.3812 105.91 30.9866 105.659 31.4329 105.213C31.8792 104.766 32.13 104.161 32.13 103.53C32.13 102.899 31.8792 102.293 31.4329 101.847C30.9866 101.401 30.3812 101.15 29.75 101.15Z" fill="#EE3E54"/>
<path d="M22.0149 60.6899C21.2259 60.6899 20.4692 61.0034 19.9113 61.5613C19.3534 62.1192 19.0399 62.8759 19.0399 63.6649C19.0399 64.454 19.3534 65.2107 19.9113 65.7686C20.4692 66.3265 21.2259 66.6399 22.0149 66.6399C22.8039 66.6399 23.5606 66.3265 24.1186 65.7686C24.6765 65.2107 24.9899 64.454 24.9899 63.6649C24.9899 62.8759 24.6765 62.1192 24.1186 61.5613C23.5606 61.0034 22.8039 60.6899 22.0149 60.6899Z" fill="white"/>
<path d="M24.9899 78.5399C24.6743 78.5399 24.3716 78.6653 24.1485 78.8885C23.9253 79.1116 23.7999 79.4143 23.7999 79.7299C23.7999 80.0455 23.9253 80.3482 24.1485 80.5714C24.3716 80.7945 24.6743 80.9199 24.9899 80.9199C25.3055 80.9199 25.6082 80.7945 25.8314 80.5714C26.0546 80.3482 26.1799 80.0455 26.1799 79.7299C26.1799 79.4143 26.0546 79.1116 25.8314 78.8885C25.6082 78.6653 25.3055 78.5399 24.9899 78.5399Z" fill="#D21F25" fill-opacity="0.2"/>
<path d="M95.2 39.27C94.8844 39.27 94.5817 39.3954 94.3586 39.6186C94.1354 39.8417 94.01 40.1444 94.01 40.46C94.01 40.7756 94.1354 41.0783 94.3586 41.3015C94.5817 41.5246 94.8844 41.65 95.2 41.65C95.5156 41.65 95.8183 41.5246 96.0415 41.3015C96.2646 41.0783 96.39 40.7756 96.39 40.46C96.39 40.1444 96.2646 39.8417 96.0415 39.6186C95.8183 39.3954 95.5156 39.27 95.2 39.27Z" fill="white"/>
<path d="M39.1899 40C38.8743 40 38.5716 40.1254 38.3484 40.3485C38.1253 40.5717 37.9999 40.8744 37.9999 41.19C37.9999 41.5056 38.1253 41.8083 38.3484 42.0315C38.5716 42.2546 38.8743 42.38 39.1899 42.38C39.5055 42.38 39.8082 42.2546 40.0313 42.0315C40.2545 41.8083 40.3799 41.5056 40.3799 41.19C40.3799 40.8744 40.2545 40.5717 40.0313 40.3485C39.8082 40.1254 39.5055 40 39.1899 40Z" fill="white"/>
<path d="M73.19 60C72.8744 60 72.5717 60.1254 72.3485 60.3485C72.1254 60.5717 72 60.8744 72 61.19C72 61.5056 72.1254 61.8083 72.3485 62.0315C72.5717 62.2546 72.8744 62.38 73.19 62.38C73.5056 62.38 73.8083 62.2546 74.0315 62.0315C74.2546 61.8083 74.38 61.5056 74.38 61.19C74.38 60.8744 74.2546 60.5717 74.0315 60.3485C73.8083 60.1254 73.5056 60 73.19 60Z" fill="white"/>
<path d="M83.0141 58.6963V80.8007H78.4867V78.6217C78.4867 71.7431 78.463 64.8644 78.5239 57.9824C78.5239 56.7643 78.2194 56.0538 77.0926 55.4684C71.9426 52.7954 66.8241 50.0638 61.7372 47.2736C61.372 47.0317 60.9444 46.9013 60.5063 46.8983C60.0683 46.8953 59.6389 47.0198 59.2705 47.2566C54.1317 50.0762 48.9658 52.8394 43.7729 55.5462C42.7578 56.0673 42.4567 56.6932 42.46 57.7963C42.5007 64.7866 42.46 71.7803 42.46 78.774V80.7635H37.9462V58.6557C36.4133 59.4812 35.2392 60.1478 34.0549 60.7399C32.7487 61.3862 32.0923 61.0309 32.0618 59.6064C32.0009 57.0113 31.9603 54.4161 32.0618 51.8244C32.1157 51.4863 32.2422 51.164 32.4326 50.8795C32.6231 50.595 32.8729 50.3552 33.1649 50.1766C41.8927 45.4735 50.6487 40.8223 59.4329 36.223C59.7725 36.0759 60.1388 36 60.5089 36C60.8791 36 61.2453 36.0759 61.5849 36.223C70.3195 40.7953 79.0236 45.4194 87.6972 50.0954C88.0071 50.2902 88.2714 50.5493 88.4722 50.8552C88.6731 51.1611 88.8057 51.5067 88.8612 51.8684C89 54.3958 88.9627 56.9436 88.9289 59.4745C88.9052 61.0546 88.33 61.376 86.8987 60.6756C85.711 60.1207 84.5402 59.488 83.0141 58.6963ZM59.3077 43.4164V38.6287L55.325 40.7366L59.3077 43.4164ZM41.8002 47.9266L45.7017 50.6537V45.8897L41.8002 47.9266ZM79.2243 47.8995L75.394 45.9574V50.6537L79.2243 47.8995ZM65.6894 40.7163L61.7473 38.6862V43.4231L65.6894 40.7163ZM76.179 52.6533L79.9011 54.5819V50.0413C78.6153 50.948 77.546 51.706 76.1959 52.6533H76.179ZM58.4787 45.3957L54.8344 42.9934V47.3277L58.4787 45.3957ZM41.1708 50.0379V54.6022L44.7779 52.6466C43.5293 51.7398 42.4668 50.9717 41.1708 50.0379ZM66.241 42.8953L62.6136 45.4262L66.241 47.3412V42.8953ZM37.2965 50.515C33.8958 51.8684 33.5744 52.4368 34.4812 55.5259C35.3813 53.8951 36.2374 52.3691 37.2829 50.515H37.2965ZM49.373 50.0345C52.8989 48.6811 53.332 47.9333 52.2594 45.2536L49.373 50.0345ZM86.6787 55.6951C87.1051 51.8616 86.7836 51.3371 83.877 50.7552L86.6787 55.6951ZM35.9227 57.1669C39.1474 55.9861 39.4418 55.4447 38.5924 52.4672L35.9227 57.1669ZM72.9577 48.1025C73.5194 44.6716 73.1438 44.0863 70.1458 43.4333L72.9577 48.1025ZM71.7091 50.1022C70.5857 48.2514 69.6788 46.7627 68.6197 44.9998C68.1494 48.5762 68.1764 48.6236 71.7091 50.1123V50.1022ZM82.3137 52.2676C81.7419 55.7289 81.9043 55.9895 85.0207 57.0993L82.3137 52.2676ZM48.2463 47.8048C49.1057 46.3735 49.9686 44.9423 50.9532 43.3318C47.7455 44.3367 47.6744 44.4517 48.2463 47.8149V47.8048Z" fill="#472B29"/>
<path d="M64.6371 72.7413V80.7941H56.4552V72.7413H64.6371Z" fill="#472B29"/>
<path d="M56.5262 62.3843H64.5796V70.3998H56.5262V62.3843Z" fill="#F2F2F2"/>
<path d="M44.9504 80.804C44.9504 78.2867 44.9166 75.9318 44.991 73.5836C45.0453 73.3722 45.1528 73.1782 45.3032 73.0201C45.4536 72.862 45.642 72.745 45.8505 72.6802C48.2462 72.6024 50.6452 72.6362 53.1289 72.6362V80.804H44.9504Z" fill="#472B29"/>
<path d="M67.8922 80.7872V72.7548H75.9624V80.7872H67.8922Z" fill="#F2F2F2"/>
<path d="M53.1696 62.4656V70.4337H45.123V62.4656H53.1696Z" fill="#472B29"/>
</svg>
