<svg width="130" height="129" viewBox="0 0 130 129" fill="none" xmlns="http://www.w3.org/2000/svg">
<circle cx="65" cy="64.5" r="64.5" fill="#E3861B"/>
<path d="M71.4573 83.6736C71.4573 85.0513 71.9057 86.3916 72.7348 87.4919C73.5639 88.5922 74.7286 89.3928 76.053 89.7726C77.3773 90.1524 78.7893 90.0909 80.0756 89.5972C81.3618 89.1036 82.4524 88.2047 83.1826 87.0364L100.238 69.9876C100.827 69.3981 101.294 68.6984 101.613 67.9283C101.931 67.1582 102.095 66.333 102.095 65.4996C102.095 64.6662 101.93 63.841 101.611 63.0712C101.292 62.3013 100.824 61.6019 100.235 61.0128C99.645 60.4237 98.9453 59.9565 98.1752 59.6378C97.4051 59.3192 96.5798 59.1553 95.7465 59.1556C94.9131 59.1559 94.0879 59.3204 93.318 59.6396C92.5482 59.9588 91.8488 60.4265 91.2597 61.016L84.1534 68.1222V20.2247C84.1534 18.5419 83.4849 16.928 82.295 15.7381C81.1051 14.5482 79.4913 13.8798 77.8085 13.8798C76.1257 13.8798 74.5119 14.5482 73.322 15.7381C72.1321 16.928 71.4636 18.5419 71.4636 20.2247V83.3563V83.6736H71.4573Z" fill="white"/>
<path d="M58.9706 45.6044C58.9706 44.2267 58.5222 42.8864 57.6931 41.7861C56.864 40.6858 55.6993 39.8852 54.3749 39.5054C53.0506 39.1256 51.6386 39.1871 50.3523 39.6808C49.0661 40.1744 47.9755 41.0733 47.2453 42.2416L30.1965 59.2904C29.5905 59.8757 29.1072 60.5758 28.7746 61.3499C28.4421 62.124 28.2671 62.9566 28.2598 63.799C28.2524 64.6415 28.413 65.477 28.732 66.2568C29.051 67.0365 29.5222 67.745 30.1179 68.3407C30.7136 68.9364 31.4221 69.4076 32.2018 69.7266C32.9816 70.0456 33.8171 70.2062 34.6595 70.1988C35.502 70.1915 36.3346 70.0165 37.1087 69.6839C37.8828 69.3514 38.5829 68.8681 39.1682 68.2621L46.2808 61.1558V109.053C46.2808 110.736 46.9493 112.35 48.1392 113.54C49.3291 114.73 50.943 115.398 52.6257 115.398C54.3085 115.398 55.9224 114.73 57.1123 113.54C58.3021 112.35 58.9706 110.736 58.9706 109.053V45.9217V45.6044Z" fill="white"/>
</svg>
