<svg width="119" height="119" viewBox="0 0 119 119" fill="none" xmlns="http://www.w3.org/2000/svg">
<path d="M91.6299 14.28C91.3143 14.28 91.0117 14.4054 90.7885 14.6286C90.5653 14.8517 90.4399 15.1544 90.4399 15.47C90.4399 15.7856 90.5653 16.0883 90.7885 16.3115C91.0117 16.5347 91.3143 16.66 91.6299 16.66C91.9455 16.66 92.2482 16.5347 92.4714 16.3115C92.6946 16.0883 92.8199 15.7856 92.8199 15.47C92.8199 15.1544 92.6946 14.8517 92.4714 14.6286C92.2482 14.4054 91.9455 14.28 91.6299 14.28Z" fill="#FF9497"/>
<path d="M59.5 15.47C47.8225 15.47 36.6233 20.1088 28.3661 28.3661C20.1088 36.6233 15.47 47.8225 15.47 59.5C15.47 71.1774 20.1088 82.3766 28.3661 90.6339C36.6233 98.8911 47.8225 103.53 59.5 103.53C71.1774 103.53 82.3766 98.8911 90.6339 90.6339C98.8911 82.3766 103.53 71.1774 103.53 59.5C103.53 47.8225 98.8911 36.6233 90.6339 28.3661C82.3766 20.1088 71.1774 15.47 59.5 15.47Z" fill="#FFA3A3"/>
<path d="M98.77 13.09C97.5076 13.09 96.2969 13.5915 95.4042 14.4841C94.5115 15.3768 94.01 16.5875 94.01 17.85C94.01 19.1124 94.5115 20.3231 95.4042 21.2158C96.2969 22.1085 97.5076 22.61 98.77 22.61C100.032 22.61 101.243 22.1085 102.136 21.2158C103.029 20.3231 103.53 19.1124 103.53 17.85C103.53 16.5875 103.029 15.3768 102.136 14.4841C101.243 13.5915 100.032 13.09 98.77 13.09Z" fill="#FF9497"/>
<path d="M103.53 26.1801C102.899 26.1801 102.293 26.4308 101.847 26.8771C101.401 27.3235 101.15 27.9288 101.15 28.5601C101.15 29.1913 101.401 29.7966 101.847 30.243C102.293 30.6893 102.899 30.9401 103.53 30.9401C104.161 30.9401 104.766 30.6893 105.213 30.243C105.659 29.7966 105.91 29.1913 105.91 28.5601C105.91 27.9288 105.659 27.3235 105.213 26.8771C104.766 26.4308 104.161 26.1801 103.53 26.1801Z" fill="#D21F25"/>
<path d="M96.3901 88.06C95.7589 88.06 95.1535 88.3107 94.7072 88.757C94.2608 89.2034 94.0101 89.8087 94.0101 90.44C94.0101 91.0712 94.2608 91.6765 94.7072 92.1229C95.1535 92.5692 95.7589 92.82 96.3901 92.82C97.0213 92.82 97.6267 92.5692 98.073 92.1229C98.5193 91.6765 98.7701 91.0712 98.7701 90.44C98.7701 89.8087 98.5193 89.2034 98.073 88.757C97.6267 88.3107 97.0213 88.06 96.3901 88.06ZM17.8501 70.21C16.5877 70.21 15.3769 70.7115 14.4843 71.6041C13.5916 72.4968 13.0901 73.7075 13.0901 74.97C13.0901 76.2324 13.5916 77.4431 14.4843 78.3358C15.3769 79.2285 16.5877 79.73 17.8501 79.73C19.1125 79.73 20.3232 79.2285 21.2159 78.3358C22.1086 77.4431 22.6101 76.2324 22.6101 74.97C22.6101 73.7075 22.1086 72.4968 21.2159 71.6041C20.3232 70.7115 19.1125 70.21 17.8501 70.21Z" fill="#F74A4A"/>
<path d="M29.7501 101.15C29.1189 101.15 28.5135 101.401 28.0672 101.847C27.6209 102.293 27.3701 102.899 27.3701 103.53C27.3701 104.161 27.6209 104.767 28.0672 105.213C28.5135 105.659 29.1189 105.91 29.7501 105.91C30.3813 105.91 30.9867 105.659 31.433 105.213C31.8794 104.767 32.1301 104.161 32.1301 103.53C32.1301 102.899 31.8794 102.293 31.433 101.847C30.9867 101.401 30.3813 101.15 29.7501 101.15Z" fill="#D21F25"/>
<path d="M22.015 58.31C21.226 58.31 20.4693 58.6234 19.9114 59.1813C19.3535 59.7392 19.04 60.4959 19.04 61.285C19.04 62.074 19.3535 62.8307 19.9114 63.3886C20.4693 63.9465 21.226 64.26 22.015 64.26C22.8041 64.26 23.5608 63.9465 24.1187 63.3886C24.6766 62.8307 24.99 62.074 24.99 61.285C24.99 60.4959 24.6766 59.7392 24.1187 59.1813C23.5608 58.6234 22.8041 58.31 22.015 58.31ZM94.605 38.08C94.1316 38.08 93.6776 38.268 93.3428 38.6028C93.0081 38.9375 92.82 39.3915 92.82 39.865C92.82 40.3384 93.0081 40.7924 93.3428 41.1271C93.6776 41.4619 94.1316 41.65 94.605 41.65C95.0784 41.65 95.5325 41.4619 95.8672 41.1271C96.202 40.7924 96.39 40.3384 96.39 39.865C96.39 39.3915 96.202 38.9375 95.8672 38.6028C95.5325 38.268 95.0784 38.08 94.605 38.08Z" fill="white"/>
<path d="M74.8261 61.1615H68.6706V56.0716V55.529H68.1281H32.2949H31.7524V56.0716V76.754H25.5496V72.0252C25.5496 70.6409 25.5479 69.2572 25.5461 67.8738C25.54 63.1171 25.5339 58.3652 25.5999 53.6122C25.6245 53.2767 25.7172 52.9497 25.8724 52.6511L25.3919 52.4012L25.8724 52.6511C26.0262 52.3554 26.2381 52.0938 26.4953 51.882C30.5793 49.1555 34.6749 46.4668 38.7719 43.7771C42.2276 41.5085 45.6843 39.2392 49.1361 36.9459C49.6047 36.6359 49.9294 36.5371 50.2073 36.5428C50.49 36.5485 50.8155 36.6638 51.2833 36.9732C58.7668 41.9463 66.2788 46.8754 73.8193 51.7605C74.2443 52.0361 74.4938 52.2831 74.6423 52.5463C74.7878 52.8044 74.8657 53.1307 74.8503 53.6189L74.8503 53.62C74.7952 55.49 74.8062 57.369 74.8174 59.2872C74.821 59.9075 74.8247 60.532 74.8261 61.1615Z" fill="#B2B2B2" stroke="#472B29" stroke-width="1.08511"/>
<path d="M76.2409 65.5487L76.2408 65.553C76.1841 69.2802 76.1911 73.0102 76.1981 76.7348C76.2012 78.3758 76.2043 80.0158 76.2019 81.6541V81.6548C76.2019 82.0095 76.1745 82.3469 76.1428 82.7368C76.1376 82.801 76.1323 82.8667 76.1269 82.9341H66.964C66.3484 81.1585 65.6117 79.8274 64.6553 78.9364C63.6103 77.9629 62.3508 77.5584 60.8467 77.6048L60.8461 77.6048C59.3967 77.6513 58.1914 78.1115 57.2103 79.0925C56.3153 79.9875 55.6426 81.2807 55.1078 82.9807H52.3856V64.2598C52.7633 64.2113 53.1429 64.1772 53.5233 64.1577C55.2461 64.1577 56.9696 64.1598 58.6935 64.1618C64.0748 64.1683 69.4608 64.1747 74.8437 64.1188C75.6032 64.1192 75.8887 64.245 76.017 64.3783C76.1474 64.5139 76.2581 64.8043 76.2409 65.5487Z" fill="#B2B2B2" stroke="#472B29" stroke-width="1.08511"/>
<circle cx="73.75" cy="54.625" r="9.375" fill="#FF6368"/>
<path d="M79.0054 80.8352V69.6828C82.2181 69.5508 85.3842 68.9759 87.9403 71.5552C88.4035 72.0094 88.9409 72.3811 89.5292 72.6545C91.6075 73.6256 92.3457 75.1755 92.0854 77.4557C91.9688 78.5084 91.4949 79.8331 93.0488 80.6605C93.4606 80.8819 93.2042 82.3502 93.2625 83.4301H89.401C88.5308 78.4385 83.434 75.8437 79.0054 80.8352ZM81.7247 72.3554V76.675H88.1385C88.5269 73.4314 85.7454 71.6057 81.7247 72.3554Z" fill="black"/>
<path d="M35.8379 60.8999C35.5698 59.6025 35.2668 58.5342 37.2131 58.5459C45.9383 58.5925 54.6635 58.5459 63.3848 58.5692C63.7923 58.5943 64.1982 58.641 64.6007 58.709V60.8999H35.8379Z" fill="#F2F2F2"/>
<path d="M49.7453 68.9719V71.1861H35.7874V68.9719H49.7453Z" fill="#F2F2F2"/>
<path d="M35.7173 65.9926V63.8716H49.7336V65.9926H35.7173Z" fill="#472B29"/>
<path d="M35.7447 76.403C35.7059 75.7271 35.6709 75.0978 35.6282 74.2782H49.6755V76.403H35.7447Z" fill="#472B29"/>
<path d="M64.5153 83.5581C64.5071 84.4792 64.1333 85.3592 63.4762 86.0046C62.819 86.6501 61.9324 87.0081 61.0113 86.9998C60.0902 86.9916 59.2101 86.6178 58.5646 85.9607C57.9191 85.3036 57.5611 84.417 57.5694 83.496C57.5565 83.0265 57.6417 82.5594 57.8195 82.1247C57.9973 81.6899 58.2637 81.297 58.6018 80.971C58.9399 80.645 59.3423 80.393 59.7832 80.2311C60.2242 80.0693 60.694 80.0011 61.1628 80.031C61.6156 80.039 62.0623 80.137 62.4769 80.3192C62.8914 80.5015 63.2656 80.7644 63.5776 81.0927C63.8896 81.4209 64.1332 81.8079 64.2942 82.2312C64.4552 82.6545 64.5304 83.1055 64.5153 83.5581ZM63.2062 83.4999C62.2583 82.7929 61.6523 81.9927 61.1706 82.0665C60.5568 82.1636 60.0517 82.9599 59.504 83.4533C60.0401 83.9699 60.514 84.7934 61.1278 84.91C61.594 84.9993 62.235 84.1991 63.2062 83.4999Z" fill="black"/>
<path d="M87.3732 83.4611C87.3478 84.3739 86.9788 85.2435 86.34 85.896C85.7011 86.5485 84.8395 86.9358 83.9274 86.9805C83.4606 86.9806 82.9986 86.8873 82.5684 86.7061C82.1383 86.5248 81.7488 86.2593 81.423 85.9251C81.0971 85.591 80.8415 85.1949 80.6711 84.7604C80.5008 84.3259 80.4191 83.8616 80.4311 83.3951C80.4269 82.9407 80.5154 82.4902 80.6913 82.0713C80.8672 81.6523 81.1267 81.2736 81.454 80.9583C81.7813 80.6431 82.1694 80.3979 82.5947 80.2378C83.02 80.0777 83.4734 80.006 83.9274 80.0272C84.8352 80.0402 85.7024 80.4057 86.3455 81.0466C86.9886 81.6875 87.3571 82.5534 87.3732 83.4611ZM86.0562 83.6514C85.1083 82.8745 84.5451 82.0277 84.0711 82.0976C83.716 82.1745 83.3843 82.3348 83.1033 82.5651C82.8223 82.7954 82.6001 83.0892 82.455 83.4223C82.3385 83.7835 83.1893 84.8595 83.6787 84.91C84.2731 84.9489 84.9452 84.273 86.0562 83.6514Z" fill="black"/>
<path d="M73.5353 65.069C67.7269 65.069 63 60.3421 63 54.5337C63 48.7253 67.7269 44 73.5353 44C79.3437 44 84.069 48.7269 84.069 54.5337C84.069 60.3421 79.3421 65.069 73.5353 65.069ZM73.5353 45.7869C68.7119 45.7869 64.7886 49.7102 64.7886 54.532C64.7886 59.3554 68.7119 63.2787 73.5353 63.2787C78.3571 63.2787 82.2804 59.3554 82.2804 54.532C82.2804 49.7102 78.3571 45.7869 73.5353 45.7869Z" fill="#472B29"/>
<path d="M73.5355 59.9977C73.4224 59.9977 73.3109 59.9694 73.2078 59.9129C71.3443 58.873 68.2163 56.7283 68.2163 54.0429C68.2163 52.4689 69.0349 51.1944 70.3011 50.7951C71.4009 50.449 72.5689 50.8367 73.5355 51.8433C74.5006 50.8384 75.6669 50.449 76.7683 50.7951C78.0345 51.1944 78.8531 52.4689 78.8531 54.0446C78.8531 56.73 75.7251 58.8746 73.8617 59.9145C73.7602 59.9711 73.647 59.9977 73.5355 59.9977ZM71.0931 52.0147C70.96 52.0147 70.8318 52.0347 70.7054 52.0729C70.0099 52.2926 69.559 53.0662 69.559 54.0429C69.559 55.9829 72.2827 57.8148 73.5355 58.5535C74.7884 57.8148 77.5104 55.9829 77.5104 54.0429C77.5104 53.0662 77.0612 52.2926 76.364 52.0729C75.6253 51.8433 74.7768 52.2942 74.0846 53.2842C73.8317 53.6436 73.2361 53.6436 72.9865 53.2842C72.4108 52.4656 71.7286 52.0147 71.0931 52.0147Z" fill="#472B29"/>
<path d="M70.3101 35.4806C70.7216 34.8073 70.8487 33.9982 70.6636 33.2312C70.4785 32.4642 69.9963 31.8022 69.3231 31.3907C68.6499 30.9792 67.8408 30.8521 67.0738 31.0372C66.3068 31.2223 65.6447 31.7045 65.2332 32.3777C64.8218 33.0509 64.6946 33.8601 64.8797 34.6271C65.0648 35.3941 65.547 36.0561 66.2202 36.4676C66.8935 36.879 67.7026 37.0062 68.4696 36.8211C69.2366 36.636 69.8986 36.1538 70.3101 35.4806ZM44.7164 81.9682C44.9633 81.5643 45.0396 81.0788 44.9286 80.6186C44.8175 80.1584 44.5282 79.7612 44.1242 79.5143C43.7203 79.2674 43.2348 79.1911 42.7746 79.3022C42.3144 79.4133 41.9172 79.7026 41.6703 80.1065C41.4234 80.5105 41.3471 80.9959 41.4582 81.4561C41.5692 81.9163 41.8586 82.3136 42.2625 82.5605C42.6665 82.8073 43.1519 82.8836 43.6121 82.7726C44.0723 82.6615 44.4696 82.3722 44.7164 81.9682Z" fill="#EA312C"/>
</svg>
