<svg width="119" height="119" viewBox="0 0 119 119" fill="none" xmlns="http://www.w3.org/2000/svg">
<path d="M91.6299 14.28C91.3143 14.28 91.0117 14.4054 90.7885 14.6286C90.5653 14.8517 90.4399 15.1544 90.4399 15.47C90.4399 15.7856 90.5653 16.0883 90.7885 16.3115C91.0117 16.5347 91.3143 16.66 91.6299 16.66C91.9455 16.66 92.2482 16.5347 92.4714 16.3115C92.6946 16.0883 92.8199 15.7856 92.8199 15.47C92.8199 15.1544 92.6946 14.8517 92.4714 14.6286C92.2482 14.4054 91.9455 14.28 91.6299 14.28Z" fill="#FFA3A3"/>
<path d="M59.5 15.47C47.8225 15.47 36.6233 20.1088 28.3661 28.3661C20.1088 36.6233 15.47 47.8225 15.47 59.5C15.47 71.1774 20.1088 82.3766 28.3661 90.6339C36.6233 98.8911 47.8225 103.53 59.5 103.53C71.1774 103.53 82.3766 98.8911 90.6339 90.6339C98.8911 82.3766 103.53 71.1774 103.53 59.5C103.53 47.8225 98.8911 36.6233 90.6339 28.3661C82.3766 20.1088 71.1774 15.47 59.5 15.47Z" fill="#DCDCDC"/>
<path d="M98.77 13.09C97.5076 13.09 96.2969 13.5915 95.4042 14.4841C94.5115 15.3768 94.01 16.5875 94.01 17.85C94.01 19.1124 94.5115 20.3231 95.4042 21.2158C96.2969 22.1085 97.5076 22.61 98.77 22.61C100.032 22.61 101.243 22.1085 102.136 21.2158C103.029 20.3231 103.53 19.1124 103.53 17.85C103.53 16.5875 103.029 15.3768 102.136 14.4841C101.243 13.5915 100.032 13.09 98.77 13.09Z" fill="#FFA3A3"/>
<path d="M103.53 26.1801C102.899 26.1801 102.293 26.4308 101.847 26.8771C101.401 27.3235 101.15 27.9288 101.15 28.5601C101.15 29.1913 101.401 29.7966 101.847 30.243C102.293 30.6893 102.899 30.9401 103.53 30.9401C104.161 30.9401 104.766 30.6893 105.213 30.243C105.659 29.7966 105.91 29.1913 105.91 28.5601C105.91 27.9288 105.659 27.3235 105.213 26.8771C104.766 26.4308 104.161 26.1801 103.53 26.1801Z" fill="#D21F25"/>
<path d="M96.3901 88.06C95.7589 88.06 95.1535 88.3107 94.7072 88.757C94.2608 89.2034 94.0101 89.8087 94.0101 90.44C94.0101 91.0712 94.2608 91.6765 94.7072 92.1229C95.1535 92.5692 95.7589 92.82 96.3901 92.82C97.0213 92.82 97.6267 92.5692 98.073 92.1229C98.5193 91.6765 98.7701 91.0712 98.7701 90.44C98.7701 89.8087 98.5193 89.2034 98.073 88.757C97.6267 88.3107 97.0213 88.06 96.3901 88.06ZM17.8501 70.21C16.5877 70.21 15.3769 70.7115 14.4843 71.6041C13.5916 72.4968 13.0901 73.7075 13.0901 74.97C13.0901 76.2324 13.5916 77.4431 14.4843 78.3358C15.3769 79.2285 16.5877 79.73 17.8501 79.73C19.1125 79.73 20.3232 79.2285 21.2159 78.3358C22.1086 77.4431 22.6101 76.2324 22.6101 74.97C22.6101 73.7075 22.1086 72.4968 21.2159 71.6041C20.3232 70.7115 19.1125 70.21 17.8501 70.21Z" fill="#F74A4A"/>
<path d="M29.7501 101.15C29.1189 101.15 28.5135 101.401 28.0672 101.847C27.6209 102.293 27.3701 102.899 27.3701 103.53C27.3701 104.161 27.6209 104.767 28.0672 105.213C28.5135 105.659 29.1189 105.91 29.7501 105.91C30.3813 105.91 30.9867 105.659 31.433 105.213C31.8794 104.767 32.1301 104.161 32.1301 103.53C32.1301 102.899 31.8794 102.293 31.433 101.847C30.9867 101.401 30.3813 101.15 29.7501 101.15Z" fill="#D21F25"/>
<path d="M22.015 58.31C21.226 58.31 20.4693 58.6234 19.9114 59.1813C19.3535 59.7392 19.04 60.4959 19.04 61.285C19.04 62.074 19.3535 62.8307 19.9114 63.3886C20.4693 63.9465 21.226 64.26 22.015 64.26C22.8041 64.26 23.5608 63.9465 24.1187 63.3886C24.6766 62.8307 24.99 62.074 24.99 61.285C24.99 60.4959 24.6766 59.7392 24.1187 59.1813C23.5608 58.6234 22.8041 58.31 22.015 58.31ZM94.605 38.08C94.1316 38.08 93.6776 38.268 93.3428 38.6028C93.0081 38.9375 92.82 39.3915 92.82 39.865C92.82 40.3384 93.0081 40.7924 93.3428 41.1271C93.6776 41.4619 94.1316 41.65 94.605 41.65C95.0784 41.65 95.5325 41.4619 95.8672 41.1271C96.202 40.7924 96.39 40.3384 96.39 39.865C96.39 39.3915 96.202 38.9375 95.8672 38.6028C95.5325 38.268 95.0784 38.08 94.605 38.08Z" fill="white"/>
<path d="M62.7911 50.9361C62.7947 54.9761 60.3005 58.7984 56.0129 61.3224C56.0129 63.5037 56.6484 65.9194 57.4433 67.458C57.7253 68.003 57.2838 68.6385 56.6734 68.5731C52.7166 68.1375 48.9681 66.1835 46.9749 64.2319H44.715C34.7321 64.2319 26.6401 58.2796 26.6401 50.9373C26.6401 43.595 34.7321 37.6426 44.715 37.6426C54.698 37.6426 62.7911 43.5938 62.7911 50.9361Z" fill="#F2F2F2"/>
<path d="M56.7591 69.2169C56.7068 69.2169 56.6556 69.2145 56.6044 69.2097C52.487 68.7563 48.7242 66.7357 46.7179 64.871H44.7151C34.3955 64.8698 26 58.6187 26 50.9349C26 43.2511 34.3955 37 44.7151 37C55.0348 37 63.4303 43.2511 63.4303 50.9349C63.4326 55.1273 60.9705 59.0257 56.658 61.6794C56.7258 63.7857 57.372 65.9241 58.0122 67.1641C58.2502 67.6258 58.2157 68.178 57.9229 68.6052C57.6576 68.992 57.2208 69.2169 56.7591 69.2169ZM44.7151 38.2816C35.1011 38.2816 27.2793 43.9591 27.2793 50.9373C27.2793 57.9154 35.1011 63.5929 44.7151 63.5929H46.9749C47.1427 63.5929 47.3022 63.6584 47.4224 63.7762C49.2169 65.5362 52.7952 67.5056 56.7425 67.9388C56.8127 67.9448 56.846 67.9114 56.8662 67.8841C56.8948 67.8436 56.8972 67.7996 56.8734 67.7544C55.9606 65.9884 55.3716 63.4644 55.3716 61.3248C55.3716 61.0987 55.4918 60.8881 55.6869 60.7738C59.7972 58.3534 62.1534 54.7691 62.1498 50.9385C62.151 43.9591 54.3291 38.2816 44.7151 38.2816ZM63.4303 50.9361H63.4433H63.4303Z" fill="#472B29"/>
<path d="M34.7323 53.3696C33.8268 53.3696 32.9302 53.548 32.0937 53.8945C31.2572 54.241 30.4971 54.7488 29.8569 55.3891C29.2166 56.0293 28.7087 56.7894 28.3622 57.6259C28.0157 58.4625 27.8374 59.359 27.8374 60.2645C27.8374 61.1699 28.0157 62.0665 28.3622 62.903C28.7087 63.7396 29.2166 64.4996 29.8569 65.1399C30.4971 65.7801 31.2572 66.288 32.0937 66.6345C32.9302 66.981 33.8268 67.1594 34.7323 67.1594C35.6377 67.1594 36.5343 66.981 37.3708 66.6345C38.2073 66.288 38.9674 65.7801 39.6077 65.1399C40.2479 64.4996 40.7558 63.7396 41.1023 62.903C41.4488 62.0665 41.6271 61.1699 41.6271 60.2645C41.6271 59.359 41.4488 58.4625 41.1023 57.6259C40.7558 56.7894 40.2479 56.0293 39.6077 55.3891C38.9674 54.7488 38.2073 54.241 37.3708 53.8945C36.5343 53.548 35.6377 53.3696 34.7323 53.3696Z" fill="#F4989E"/>
<path d="M34.7321 67.8008C30.5778 67.8008 27.197 64.42 27.197 60.2657C27.197 56.1114 30.5778 52.7318 34.7321 52.7318C38.8864 52.7318 42.266 56.1126 42.266 60.2657C42.266 64.42 38.8852 67.8008 34.7321 67.8008ZM34.7321 54.0099C31.2823 54.0099 28.4763 56.8159 28.4763 60.2645C28.4763 63.7143 31.2823 66.5203 34.7321 66.5203C38.1807 66.5203 40.9867 63.7143 40.9867 60.2645C40.9867 56.8159 38.1807 54.0099 34.7321 54.0099Z" fill="#472B29"/>
<path d="M34.7321 59.0995C36.1184 57.1205 38.0569 58.0214 38.0569 59.917C38.0569 61.6544 35.74 63.1348 34.7321 63.6953C33.7253 63.1348 31.4072 61.6544 31.4072 59.917C31.4072 58.0202 33.3445 57.1193 34.7321 59.0995Z" fill="#EE3E54"/>
<path d="M34.7322 64.1737C34.6512 64.1737 34.5715 64.1535 34.4977 64.113C33.1649 63.3693 30.9277 61.8354 30.9277 59.9147C30.9277 58.789 31.5132 57.8774 32.4188 57.5918C33.2054 57.3443 34.0408 57.6216 34.7322 58.3415C35.4224 57.6228 36.2566 57.3443 37.0443 57.5918C37.9499 57.8774 38.5354 58.789 38.5354 59.9159C38.5354 61.8366 36.2982 63.3705 34.9654 64.1142C34.8928 64.1547 34.8119 64.1737 34.7322 64.1737ZM32.9852 58.4641C32.89 58.4641 32.7984 58.4784 32.708 58.5058C32.2106 58.6628 31.8881 59.2162 31.8881 59.9147C31.8881 61.3023 33.8361 62.6125 34.7322 63.1408C35.6282 62.6125 37.5751 61.3023 37.5751 59.9147C37.5751 59.2162 37.2538 58.6628 36.7552 58.5058C36.2268 58.3415 35.6199 58.664 35.1249 59.3721C34.944 59.6291 34.518 59.6291 34.3395 59.3721C33.9277 58.7866 33.4398 58.4641 32.9852 58.4641Z" fill="#472B29"/>
<path d="M86.3186 69.9439C85.9902 69.9439 85.7236 69.6774 85.7236 69.3489V66.0764C85.7236 65.748 85.9902 65.4814 86.3186 65.4814C86.6471 65.4814 86.9136 65.748 86.9136 66.0764V69.3489C86.9136 69.6774 86.6471 69.9439 86.3186 69.9439Z" fill="#472B29"/>
<path d="M53.9649 45.8465H34.9249C34.7607 45.8465 34.6274 45.7132 34.6274 45.549C34.6274 45.3847 34.7607 45.2515 34.9249 45.2515H53.9649C54.1292 45.2515 54.2624 45.3847 54.2624 45.549C54.2624 45.7132 54.1292 45.8465 53.9649 45.8465Z" fill="#472B29"/>
<path d="M40.8751 49.4165H32.5451C32.3808 49.4165 32.2476 49.2833 32.2476 49.119C32.2476 48.9548 32.3808 48.8215 32.5451 48.8215H40.8751C41.0393 48.8215 41.1726 48.9548 41.1726 49.119C41.1726 49.2833 41.0393 49.4165 40.8751 49.4165Z" fill="#472B29"/>
<path d="M56.345 49.4165H44.445C44.2807 49.4165 44.1475 49.2833 44.1475 49.119C44.1475 48.9548 44.2807 48.8215 44.445 48.8215H56.345C56.5092 48.8215 56.6425 48.9548 56.6425 49.119C56.6425 49.2833 56.5092 49.4165 56.345 49.4165Z" fill="#472B29"/>
<path d="M55.155 52.9865H43.255C43.0908 52.9865 42.9575 52.8532 42.9575 52.689C42.9575 52.5248 43.0908 52.3915 43.255 52.3915H55.155C55.3192 52.3915 55.4525 52.5248 55.4525 52.689C55.4525 52.8532 55.3192 52.9865 55.155 52.9865Z" fill="#472B29"/>
<path d="M52.775 56.5564H44.445C44.2807 56.5564 44.1475 56.4231 44.1475 56.2589C44.1475 56.0947 44.2807 55.9614 44.445 55.9614H52.775C52.9392 55.9614 53.0725 56.0947 53.0725 56.2589C53.0725 56.4231 52.9392 56.5564 52.775 56.5564Z" fill="#472B29"/>
<path d="M69.1219 78.7565L67.2904 79.0939L69.0446 79.7192C70.6552 80.2934 72.3255 80.5278 74.0174 79.9065C74.4876 79.7349 74.9845 79.503 75.3629 79.1189C75.6633 78.8141 75.8699 78.4332 75.9515 77.9628C77.8073 77.8048 79.211 76.7156 80.4847 75.7273C80.5535 75.6739 80.6219 75.6209 80.6899 75.5683C80.8375 75.4547 80.9844 75.3411 81.131 75.2278C82.0599 74.5097 82.9735 73.8034 83.9367 73.1791L83.9464 73.1729L83.9557 73.1662C84.3679 72.8713 84.8531 72.6954 85.3585 72.6578C85.8639 72.6202 86.3698 72.7224 86.821 72.9531L86.8312 72.9583L86.8416 72.963C87.1792 73.1166 87.4426 73.397 87.5749 73.7434C87.7071 74.0899 87.6976 74.4745 87.5482 74.8139L87.5481 74.8139L87.5442 74.8232C87.4038 75.1607 87.1964 75.4662 86.9345 75.7212C86.6664 75.9673 86.3991 76.2137 86.1321 76.4598C84.7063 77.7741 83.2891 79.0805 81.8049 80.2836C80.8458 81.0534 79.8007 81.7096 78.6905 82.239L78.6883 82.2401C77.5159 82.8062 76.3208 83.3318 75.1149 83.8608L75.0173 83.9036C73.846 84.4174 72.6648 84.9355 71.4998 85.4926C70.0052 86.2074 68.5295 86.073 66.9069 85.6194L66.9047 85.6188C63.6332 84.7201 60.3615 83.8214 57.0808 82.9226L57.0627 82.9176L57.0443 82.914C56.5167 82.8112 55.9842 82.736 55.4489 82.6885V82.56H55.4489L55.4489 82.5555L55.4487 82.5329C55.4218 79.5755 55.395 76.6243 55.386 73.6689C55.386 73.6689 55.386 73.6689 55.386 73.6689C55.3861 73.6689 55.3867 73.6586 55.3912 73.639C55.3932 73.6308 55.3954 73.6225 55.3979 73.6143C58.1438 72.5906 60.8697 72.2314 63.6314 73.2344C63.9432 73.4034 64.2639 73.5553 64.5922 73.6896L64.6235 73.7025L64.6564 73.7109C65.5164 73.9333 66.3926 74.0881 67.2768 74.1739L67.284 74.1746L67.2913 74.1751C67.9124 74.2171 68.5329 74.2098 69.1318 74.2009C69.1603 74.2005 69.1887 74.2 69.2171 74.1996C69.7918 74.1909 70.3458 74.1825 70.8938 74.2115V74.2115L70.898 74.2117C71.7885 74.2511 72.6513 74.5331 73.3933 75.0271L73.3932 75.0272L73.4027 75.0332C74.0686 75.4553 74.5432 76.1208 74.7253 76.8878L74.7344 76.9261L74.7493 76.9624C74.8068 77.1023 74.8068 77.2592 74.7492 77.399C74.6917 77.5389 74.5812 77.6504 74.4419 77.7092L74.4336 77.7128L74.4254 77.7166C73.915 77.9544 73.3755 78.1239 72.8208 78.2209C72.136 78.3394 71.4577 78.4204 70.7653 78.5031C70.391 78.5478 70.0126 78.593 69.6267 78.6449L69.6152 78.6464L69.6039 78.6485C69.5164 78.6644 69.4278 78.6861 69.3536 78.7043L69.3425 78.707C69.2607 78.727 69.191 78.7438 69.1219 78.7565Z" fill="#FF8F8F" stroke="#472B29"/>
<path d="M76.8837 64.8373C73.5479 64.9407 70.2191 64.471 67.0422 63.4488C66.2268 63.1475 65.4451 62.762 64.7098 62.2985C64.3852 62.1049 64.1224 61.823 63.9521 61.4856C63.7818 61.1482 63.711 60.7693 63.7481 60.3932C63.7841 59.1215 63.7751 57.8498 63.7481 56.5782C63.7231 56.2456 63.7854 55.9122 63.9289 55.6111C64.0723 55.3101 64.292 55.0517 64.566 54.8616C65.1682 54.4527 65.8288 54.1381 66.4624 53.7742C66.777 53.5899 66.8894 53.8416 67.0422 54.0258C68.7281 56.1755 71.1126 57.6681 73.783 58.2453C78.6723 59.2788 82.7977 57.8723 86.0962 54.1157C86.4287 53.7337 86.6804 53.6663 87.0848 53.909C87.7275 54.3179 88.406 54.6729 89.0127 55.1312C89.2447 55.3188 89.4277 55.56 89.5459 55.8339C89.6641 56.1079 89.714 56.4065 89.6913 56.704C89.6913 57.9936 89.6688 59.2878 89.6913 60.5729C89.7026 60.8698 89.6433 61.1651 89.5183 61.4346C89.3933 61.7041 89.2062 61.9401 88.9723 62.1232C87.8668 63.0713 86.5276 63.5027 85.1525 63.8487C82.4529 64.5467 79.6718 64.8792 76.8837 64.8373Z" fill="#54565B"/>
<path d="M76.6589 35C74.4417 35.0001 72.2741 35.6562 70.4291 36.8857C68.5841 38.1152 67.1441 39.8632 66.2906 41.9093C65.4371 43.9555 65.2081 46.2085 65.6326 48.3846C66.0571 50.5606 67.116 52.5624 68.6759 54.1379C70.2359 55.7133 72.2272 56.792 74.3991 57.2381C76.5709 57.6842 78.8262 57.4776 80.881 56.6446C82.9357 55.8115 84.698 54.3891 85.9458 52.5566C87.1937 50.724 87.8714 48.5632 87.8936 46.3462C87.9019 44.8634 87.6177 43.3934 87.0575 42.0204C86.4972 40.6474 85.6717 39.3983 84.6283 38.3445C83.5849 37.2907 82.344 36.453 80.9765 35.8791C79.6091 35.3052 78.1419 35.0065 76.6589 35ZM76.6095 54.7357C74.3704 54.703 72.2328 53.7966 70.6527 52.21C69.0726 50.6233 68.1752 48.4819 68.152 46.2429C68.1565 45.1317 68.3797 44.0323 68.809 43.0074C69.2384 41.9825 69.8654 41.0523 70.6543 40.2697C71.4432 39.4871 72.3785 38.8676 73.4069 38.4464C74.4352 38.0253 75.5364 37.8108 76.6477 37.8152C77.7589 37.8196 78.8584 38.0429 79.8834 38.4722C80.9083 38.9015 81.8387 39.5285 82.6213 40.3173C83.404 41.1062 84.0235 42.0414 84.4447 43.0697C84.8659 44.098 85.0804 45.1991 85.0759 46.3103C85.0375 48.5398 84.132 50.6667 82.5513 52.2397C80.9707 53.8127 78.8393 54.708 76.6095 54.7357Z" fill="#54565B"/>
<path d="M86.3701 64.4912C86.3701 65.5337 86.3476 66.4908 86.3701 67.448C86.3996 67.9286 86.2929 68.4079 86.0624 68.8307C85.8319 69.2536 85.4868 69.6029 85.0668 69.8385C83.637 70.6814 82.0602 71.2456 80.4202 71.5012C76.2484 72.2793 71.9785 72.381 67.7744 71.8022C65.8421 71.5506 63.9142 71.2135 62.22 70.1306C61.9144 69.9329 61.6133 69.7262 61.3212 69.497C61.0527 69.3027 60.8383 69.043 60.6983 68.7426C60.5583 68.4422 60.4974 68.111 60.5213 67.7805C60.5707 66.6167 60.5797 65.4439 60.5213 64.28C60.4903 63.8785 60.5678 63.4761 60.7457 63.1148C60.9236 62.7536 61.1953 62.4468 61.5324 62.2265C61.9009 61.9524 62.3144 61.7322 62.7278 61.4716C63.6266 63.242 65.2084 63.9565 66.8801 64.5002C70.5247 65.6955 74.2905 65.9247 78.0879 65.7988C80.8959 65.7491 83.6833 65.309 86.3701 64.4912Z" fill="#472B29"/>
<path d="M42.002 78.4752C42.002 76.7991 42.002 75.1275 42.002 73.4559C42.002 71.9865 42.8783 71.1237 44.3523 71.1147H48.5405C50.001 71.1147 50.8908 72.0135 50.8953 73.4604C50.8953 76.7886 50.8953 80.1184 50.8953 83.4496C50.8953 84.919 49.9966 85.8042 48.5585 85.8132H44.3208C42.8783 85.8132 42.0065 84.9145 42.002 83.4945C41.9975 81.8229 42.002 80.1468 42.002 78.4752Z" fill="#54565B"/>
<path d="M51.9966 84.0292V72.8177C53.2729 72.5211 53.8166 72.8986 53.8301 74.2332C53.8301 76.0081 53.7672 77.7876 53.7447 79.5625C53.7447 80.5601 53.7043 81.5532 53.7717 82.5463C53.8751 83.9438 53.2055 84.2314 51.9966 84.0292Z" fill="#54565B"/>
<path d="M76.6723 38.9678C75.211 38.9555 73.7787 39.3763 72.5563 40.1772C71.3339 40.978 70.3761 42.1229 69.8039 43.4675C69.2316 44.8121 69.0705 46.2961 69.3408 47.7322C69.6112 49.1683 70.3009 50.4921 71.3229 51.5366C72.3449 52.5811 73.6535 53.2995 75.0835 53.6011C76.5134 53.9027 78.0006 53.7739 79.3575 53.2312C80.7144 52.6884 81.88 51.7559 82.7074 50.5514C83.5348 49.3468 83.9868 47.9242 84.0064 46.463C84.0182 45.489 83.8378 44.5223 83.4754 43.6181C83.1131 42.7139 82.5758 41.8901 81.8946 41.1939C81.2133 40.4976 80.4014 39.9426 79.5052 39.5606C78.6091 39.1786 77.6464 38.9772 76.6723 38.9678ZM76.3578 45.0071C75.3781 44.769 74.9332 44.3151 75.0096 43.6591C75.077 43.0974 75.5668 42.7603 76.3578 42.7603V45.0071Z" fill="#F2F2F2"/>
<path d="M76.358 42.7513V44.9981C75.3783 44.76 74.9335 44.3061 75.0099 43.6501C75.0818 43.1063 75.5716 42.7648 76.358 42.7513Z" fill="#54565B"/>
</svg>
