<svg width="63" height="18" viewBox="0 0 63 18" fill="none" xmlns="http://www.w3.org/2000/svg">
<path d="M13.2 13.992H4.848L3.12 18H0L7.728 0.912H10.248L18 18H14.904L13.2 13.992ZM12.168 11.592L9.024 4.272L5.88 11.592H12.168ZM19.848 0.912H31.008V3.384H22.92V8.064H30.528V10.56H22.92V18H19.848V0.912ZM33.5824 0.912H45.0064V3.36H36.6064V8.088H44.5024V10.536H36.6064V15.552H45.0064V18H33.5824V0.912ZM62.1398 18H58.5157L53.8838 11.616L49.2518 18H45.6277L52.1318 9.288L45.8438 0.912H49.4678L53.8838 7.032L58.3478 0.912H61.9478L55.6358 9.312L62.1398 18Z" fill="#F8EDED"/>
</svg>
