<svg width="1576" height="565" viewBox="0 0 1576 565" fill="none" xmlns="http://www.w3.org/2000/svg">
<path opacity="0.2" d="M1 564.5C109.918 437.167 407.249 213.7 725.229 338.5C1122.7 494.5 1044.76 102.5 1313.18 201C1527.92 279.8 1610.17 129.833 1624.45 45" stroke="#989898"/>
<path opacity="0.2" d="M1 553.5C109.918 426.167 407.249 202.7 725.229 327.5C1122.7 483.5 1044.76 91.5 1313.18 190C1527.92 268.8 1610.17 118.833 1624.45 34" stroke="#989898"/>
<path opacity="0.2" d="M1 542.5C109.918 415.167 407.249 191.7 725.229 316.5C1122.7 472.5 1044.76 80.5 1313.18 179C1527.92 257.8 1610.17 107.833 1624.45 23" stroke="#989898"/>
<path opacity="0.2" d="M1 531.5C109.918 404.167 407.249 180.7 725.229 305.5C1122.7 461.5 1044.76 69.5 1313.18 168C1527.92 246.8 1610.17 96.8333 1624.45 12" stroke="#989898"/>
<path opacity="0.2" d="M1 520.5C109.918 393.167 407.249 169.7 725.229 294.5C1122.7 450.5 1044.76 58.5 1313.18 157C1527.92 235.8 1610.17 85.8333 1624.45 1" stroke="#989898"/>
</svg>
