<svg width="32" height="32" viewBox="0 0 32 32" fill="none" xmlns="http://www.w3.org/2000/svg">
<path d="M22.4 3.2C22.4 1.44 23.84 0 25.6 0C27.36 0 28.8 1.44 28.8 3.2C28.8 4.96 27.36 6.4 25.6 6.4C23.84 6.4 22.4 4.96 22.4 3.2ZM30.048 8.928C28.688 8.336 27.2 8 25.6 8C24.528 8 23.504 8.16 22.528 8.448C23.456 9.328 24 10.56 24 11.888V12.8H32V11.888C32 10.592 31.2 9.44 30.048 8.928ZM6.4 6.4C8.16 6.4 9.6 4.96 9.6 3.2C9.6 1.44 8.16 0 6.4 0C4.64 0 3.2 1.44 3.2 3.2C3.2 4.96 4.64 6.4 6.4 6.4ZM9.472 8.448C8.496 8.16 7.472 8 6.4 8C4.8 8 3.312 8.336 1.952 8.928C0.8 9.44 0 10.592 0 11.888V12.8H8V11.888C8 10.56 8.544 9.328 9.472 8.448ZM12.8 3.2C12.8 1.44 14.24 0 16 0C17.76 0 19.2 1.44 19.2 3.2C19.2 4.96 17.76 6.4 16 6.4C14.24 6.4 12.8 4.96 12.8 3.2ZM22.4 12.8H9.6V11.888C9.6 10.592 10.4 9.44 11.552 8.928C12.912 8.336 14.4 8 16 8C17.6 8 19.088 8.336 20.448 8.928C21.6 9.44 22.4 10.592 22.4 11.888V12.8ZM20.8 22.4C20.8 20.64 22.24 19.2 24 19.2C25.76 19.2 27.2 20.64 27.2 22.4C27.2 24.16 25.76 25.6 24 25.6C22.24 25.6 20.8 24.16 20.8 22.4ZM30.4 32H17.6V31.088C17.6 29.792 18.4 28.64 19.552 28.128C20.912 27.536 22.4 27.2 24 27.2C25.6 27.2 27.088 27.536 28.448 28.128C29.6 28.64 30.4 29.792 30.4 31.088V32ZM4.8 22.4C4.8 20.64 6.24 19.2 8 19.2C9.76 19.2 11.2 20.64 11.2 22.4C11.2 24.16 9.76 25.6 8 25.6C6.24 25.6 4.8 24.16 4.8 22.4ZM14.4 32H1.6V31.088C1.6 29.792 2.4 28.64 3.552 28.128C4.912 27.536 6.4 27.2 8 27.2C9.6 27.2 11.088 27.536 12.448 28.128C13.6 28.64 14.4 29.792 14.4 31.088V32ZM17.2 19.2V22.4H14.8V19.2H11.2L16 14.4L20.8 19.2H17.2Z" fill="#51965E"/>
</svg>
