<svg width="78" height="79" viewBox="0 0 78 79" fill="none" xmlns="http://www.w3.org/2000/svg">
<path fill-rule="evenodd" clip-rule="evenodd" d="M47.3569 6.96447C46.7175 12.4115 46.7747 13.0101 48.0115 13.7715C49.9875 14.9875 54.4438 19.9708 55.157 21.7627C55.6117 22.9041 55.1617 22.6347 53.4246 20.7261C46.5507 13.1722 34.0285 9.27073 22.0185 10.9419C17.0858 11.6278 10.0887 13.7525 9.25882 14.8167C9.05183 15.0816 11.804 15.6369 15.3741 16.0506C18.9443 16.4636 22.8099 17.2663 23.9636 17.8343C26.5757 19.1186 26.7521 18.4237 24.3335 16.377C23.3271 15.5243 22.6427 14.7161 22.8127 14.5799C23.2363 14.2427 26.3967 16.8301 27.4772 18.3984C28.4053 19.7464 33.7412 22.8071 34.3356 22.3331C34.9763 21.8227 34.1292 19.181 32.5773 16.8497C31.1902 14.7665 31.1767 14.6505 32.4377 15.645C33.7387 16.6711 35.9659 21.6752 35.7955 23.1884C35.7333 23.7402 37.9302 25.4757 41.0538 27.3429C42.0108 27.9147 41.5595 21.504 40.494 19.391C39.9527 18.3168 39.8275 17.6867 40.2156 17.9914C41.4266 18.9393 42.5991 23.2781 42.3182 25.7717C42.0834 27.8561 42.3811 28.4075 44.6934 30.1642C46.1469 31.2696 47.4232 32.1042 47.5294 32.0201C47.635 31.9353 47.9049 30.9061 48.1283 29.7334C48.3518 28.5601 48.8127 27.6315 49.1525 27.6698C49.493 27.7081 49.4723 28.9323 49.1071 30.3901L48.4426 33.0408L51.2329 33.4028C55.8538 34.0029 57.2399 35.2901 52.7842 34.8448C44.87 34.0529 30.3031 36.0602 22.2025 39.0589C19.9237 39.9026 16.6403 41.8317 14.906 43.346C13.171 44.8601 9.3086 48.0581 6.32167 50.4519C3.33475 52.8458 0.826834 55.3787 0.747792 56.0805C0.569019 57.6677 4.45309 62.3596 7.04531 63.6879C18.4888 69.5509 42.3423 73.1731 53.9391 70.8088C54.8429 70.6244 54.6963 70.8068 53.5223 71.3273C49.2873 73.2052 42.9289 73.5608 33.3121 72.4592C25.215 71.5315 22.9906 71.0207 17.4478 68.8177C13.9019 67.4085 10.8692 66.361 10.7075 66.49C10.1611 66.9252 14.7486 70.8835 18.2207 72.9712C28.4941 79.1506 42.8256 80.3765 55.3816 76.1496C57.7187 75.3629 60.7252 73.9872 62.0621 73.0919C64.8608 71.2192 68.032 66.6992 69.1851 62.9412L69.9799 60.3488L67.2509 62.2497C65.7492 63.2955 64.0771 64.1006 63.5334 64.0394C62.9824 63.9773 63.8785 62.9717 65.5613 61.7637C67.2196 60.5735 69.0949 58.8237 69.729 57.8758C71.4686 55.274 72.4308 51.1354 71.7136 49.3362C70.9205 47.3459 72.0398 46.1372 75.0777 45.7046C76.3159 45.5279 77.398 44.8921 77.6083 44.2167C78.2427 42.1834 77.0397 41.5335 74.1829 42.3667C70.1913 43.5299 68.5346 43.0728 66.218 40.1688L64.142 37.5659L66.0408 38.1729C67.8678 38.7575 67.9852 38.6522 69.1767 35.3639C72.1142 27.256 70.097 18.0156 63.7924 10.7071C60.3253 6.68697 55.4806 3.11875 51.4872 1.64213L49.5457 0.924695L51.9097 4.19443C53.2095 5.99316 54.8213 8.44025 55.491 9.63244L56.7091 11.8001L56.6752 9.76582C56.6398 7.59372 56.7199 7.92912 57.982 15.2413C58.6182 18.9276 59.2346 19.0802 60.3565 15.829C61.0878 13.7099 61.2909 13.4731 61.1905 14.8552C61.1175 15.8602 60.6506 17.3611 60.1538 18.191C59.469 19.3342 59.425 20.2879 59.9722 22.1204L60.6944 24.5409L62.0213 22.3056C62.7512 21.0761 63.3072 20.5255 63.2568 21.082C63.2064 21.6384 62.6287 22.8898 61.9734 23.8625C60.914 25.4344 60.8765 25.9064 61.6329 28.0957C62.583 30.845 63.6002 31.0455 64.5604 28.6734C65.0889 27.3682 65.1834 27.3284 65.1053 28.4445C65.0529 29.1882 64.6742 30.2159 64.2636 30.7277C63.7562 31.3608 63.8002 32.2399 64.3998 33.4685C65.202 35.1117 65.1031 35.0699 63.3294 33.0141C62.1355 31.6307 60.0698 27.025 58.0184 21.1733C54.9177 12.3267 51.0286 4.0802 48.928 1.89625C48.1857 1.12446 47.9546 1.86974 47.3569 6.96447ZM14.6926 25.3685C20.9982 33.8055 23.5495 36.447 24.5915 35.6159C24.7809 35.4648 23.2416 33.276 21.1703 30.7526C19.0991 28.2285 17.5784 26.1773 17.7917 26.1946C18.0051 26.2118 20.2274 28.1505 22.7308 30.5032C25.6167 33.2164 27.6779 34.6682 28.3656 34.4725C28.9612 34.3024 32.8378 33.7129 36.9807 33.1616C44.1934 32.2017 44.4326 32.1163 42.638 31.1237C41.1132 30.2815 40.1976 30.2193 37.7261 30.7899C36.0555 31.1761 33.8969 31.382 32.9281 31.2477C31.7105 31.0785 32.2377 30.8319 34.6371 30.4481C36.5453 30.1424 38.3355 29.9046 38.6145 29.9197C39.9711 29.9921 38.9827 28.6468 36.6734 27.2754C34.1922 25.8021 33.9971 25.7795 31.4611 26.6685C28.0723 27.8574 24.8564 28.4191 25.3988 27.7287C25.6311 27.4325 26.6711 27.0979 27.71 26.9846C28.7496 26.8714 30.3783 26.3129 31.3302 25.7435L33.0611 24.7072L30.3728 23.2638C27.9307 21.9524 27.4002 21.8831 24.562 22.503C22.8449 22.8785 20.7713 23.0858 19.955 22.9646C18.2609 22.7125 18.6867 22.5676 22.8351 21.9849C24.4648 21.7562 25.6735 21.3036 25.5205 20.9798C25.1639 20.2255 19.0459 18.3386 12.6556 17.0117L7.67476 15.9772L14.6926 25.3685ZM62.4456 40.1166C63.7931 41.0874 65.215 42.7214 65.6056 43.7486C65.9962 44.7751 67.0578 46.5115 67.9653 47.6072C70.945 51.2059 69.3848 55.4332 63.4797 59.7618C59.4617 62.7072 56.3198 63.9423 49.4434 65.2794C42.1762 66.6923 28.7068 65.2113 17.819 61.8012C13.6562 60.4976 8.76474 59.0269 6.95002 58.5329C2.71622 57.3815 2.52879 55.9724 6.33686 53.9225C7.90505 53.0784 10.8305 50.6075 12.8389 48.4319C19.6317 41.0737 28.0903 38.405 49.2356 36.9498C53.0461 36.6874 59.9991 38.3543 62.4456 40.1166ZM41.8039 41.1358C26.6252 42.5925 15.7679 47.0543 13.6537 52.7039C12.7004 55.2511 14.5598 57.0059 20.2155 58.8966C29.2654 61.9219 46.1529 62.0504 55.7068 59.167C59.7802 57.9381 64.9992 54.2803 65.198 52.5155C65.4346 50.4149 62.6297 44.8224 60.518 43.1844C57.9795 41.2155 50.038 40.3462 41.8039 41.1358ZM50.1375 43.3159C50.2872 43.6326 49.7978 44.1846 49.0496 44.5418C47.6179 45.2268 46.606 44.3136 47.5144 43.1568C48.1031 42.4075 49.7557 42.5077 50.1375 43.3159ZM56.2221 44.0599C56.3878 44.4103 55.7464 44.7565 54.7965 44.83C53.0796 44.9617 52.1409 44.2638 53.055 43.5348C53.7601 42.9731 55.8745 43.323 56.2221 44.0599ZM59.1312 45.1949C57.9762 45.7401 57.5248 45.3308 58.2551 44.4006C58.5478 44.0281 59.0796 43.9525 59.4371 44.2332C59.8578 44.5634 59.7494 44.9021 59.1312 45.1949ZM44.6978 43.4214C44.8574 43.7589 44.2132 44.288 43.2667 44.5971C41.4969 45.1745 40.4341 44.3564 41.3832 43.1475C41.9837 42.3832 44.2972 42.5743 44.6978 43.4214ZM37.5145 44.048C38.5781 44.9009 38.3341 45.18 36.1684 45.5875C35.0602 45.7959 34.6332 45.6067 34.7083 44.94C34.9074 43.1718 35.9921 42.8272 37.5145 44.048ZM52.4828 47.0782C53.0501 47.8671 53.4477 49.5213 53.3667 50.755C53.2376 52.73 52.9955 52.9985 51.3455 53.0021C49.8194 53.006 49.5012 52.7405 49.6327 51.5725C49.7216 50.7832 49.5389 49.496 49.2265 48.712C48.8126 47.6746 48.9056 47.0487 49.5688 46.4107C50.7709 45.2542 51.2505 45.3641 52.4828 47.0782ZM58.2187 47.7243C58.5209 48.4833 58.6787 49.902 58.5688 50.8776C58.2517 53.6927 55.7425 52.5829 55.0193 49.3072C54.7037 47.8803 54.6266 46.5682 54.8475 46.392C55.757 45.6666 57.7056 46.4366 58.2187 47.7243ZM62.2423 48.5768C62.7926 49.9579 62.7538 50.5381 62.0756 51.079C60.9721 51.9591 60.1718 51.0247 59.837 48.4626C59.5105 45.9647 61.2334 46.0463 62.2423 48.5768ZM46.8997 47.0054C48.3048 49.0129 48.4241 52.4243 47.1183 53.2802C45.1192 54.5922 43.8191 53.4735 43.3484 50.0368C42.7483 45.6609 44.758 43.946 46.8997 47.0054ZM30.9111 45.7374C29.3267 46.677 28.3734 46.7386 28.4684 45.8949C28.5745 44.9529 29.4604 44.5288 30.9293 44.7174C32.3042 44.8934 32.3036 44.911 30.9111 45.7374ZM41.0919 48.317C43.0647 51.5025 41.5895 55.4531 38.9405 54.0789C37.5893 53.3775 36.422 47.6554 37.4618 46.8261C38.7307 45.8141 39.819 46.2603 41.0919 48.317ZM24.1693 47.822C23.3156 48.2873 22.4333 48.4374 22.2088 48.1559C21.6619 47.4701 24.4035 45.942 25.1416 46.5211C25.4602 46.7717 25.0229 47.3574 24.1693 47.822ZM34.6803 48.8785C36.7031 51.4148 36.1147 54.3888 33.5892 54.398C32.0862 54.4032 31.7166 53.9759 31.0371 51.4424C30.4474 49.2439 30.4603 48.2703 31.0884 47.6665C32.2927 46.5083 32.9727 46.7375 34.6803 48.8785ZM62.2464 54.0752C61.7543 54.5485 61.0858 54.9059 60.7615 54.8694C59.8505 54.7667 60.2728 52.9228 61.2605 52.6893C62.6626 52.358 63.2191 53.1402 62.2464 54.0752ZM27.775 49.6311C28.1515 49.9488 28.7499 50.951 29.1049 51.8584C29.8629 53.7978 28.7187 55.3485 26.6961 55.1207C25.3296 54.9667 23.4532 50.5132 24.3011 49.434C24.8953 48.6779 26.7714 48.7842 27.775 49.6311ZM20.59 49.2988C20.5706 49.4704 19.833 49.8976 18.95 50.2479C17.495 50.8246 17.4432 50.7888 18.3945 49.8685C19.3717 48.9231 20.6702 48.5863 20.59 49.2988ZM58.945 53.5868C58.9276 53.7416 59.0369 54.344 59.1881 54.9252C59.5645 56.3746 56.5095 57.6426 55.8751 56.2997C55.3084 55.1007 56.7059 53.0498 57.991 53.1946C58.5333 53.2556 58.9624 53.4321 58.945 53.5868ZM22.96 52.7089C23.7122 54.5965 22.9637 56.063 21.3422 55.8804C20.0248 55.732 18.5595 52.5226 19.3494 51.5166C20.1695 50.4731 22.3564 51.1951 22.96 52.7089ZM53.7073 56.557C53.7404 57.6489 53.2216 58.1294 51.6154 58.4936C49.647 58.941 49.4932 58.8603 49.6502 57.4662C49.9934 54.4196 53.6184 53.6076 53.7073 56.557ZM48.0159 56.8345C48.3732 58.6408 47.7968 59.3063 45.7397 59.4644C44.5609 59.5551 44.0134 59.2434 43.893 58.4129C43.4722 55.501 47.4512 53.978 48.0159 56.8345ZM18.48 53.9002C18.8955 55.4985 17.1687 56.7349 16.4863 55.328C16.1993 54.7363 16.0028 53.874 16.0489 53.4104C16.1704 52.1983 18.1412 52.5954 18.48 53.9002ZM42.3693 57.7554C42.6292 59.5549 42.6564 59.5314 40.0723 59.752C37.4009 59.9799 36.7329 58.1856 38.8582 56.4905C40.5718 55.1239 42.0667 55.6629 42.3693 57.7554ZM36.0726 56.8132C36.9858 59.1046 36.5725 59.6399 34.1059 59.3621C32.2866 59.1572 31.7821 58.821 31.8874 57.8858C32.1868 55.2281 35.1391 54.4718 36.0726 56.8132ZM29.8672 57.4804C30.555 59.2074 29.6263 59.7338 27.3766 58.8917C24.9215 57.9733 25.4954 55.6668 28.1053 55.9608C28.7707 56.0357 29.5638 56.7199 29.8672 57.4804ZM23.7528 57.5146C23.7111 57.8847 23.0715 58.1193 22.3313 58.0359C21.5912 57.9525 21.0198 57.5815 21.0615 57.2115C21.1031 56.8414 21.7428 56.6069 22.4829 56.6902C23.223 56.7736 23.7945 57.1446 23.7528 57.5146ZM60.1821 72.8508C60.1618 73.0305 58.2275 73.8892 55.8837 74.759C51.081 76.5408 44.7128 77.6251 41.6655 77.1796C40.2846 76.9778 41.0314 76.7355 43.9815 76.4293C47.2396 76.0918 56.3715 73.907 60.0414 72.5876C60.1387 72.5523 60.2023 72.6712 60.1821 72.8508Z" fill="black"/>
</svg>
