<svg width="90" height="81" viewBox="0 0 90 81" fill="none" xmlns="http://www.w3.org/2000/svg">
<path d="M25.5903 9.41916C26.6257 9.41916 27.6566 9.41916 28.6921 9.41916C29.0456 9.42234 29.39 9.30727 29.6706 9.09228C29.9512 8.87728 30.1519 8.57468 30.2408 8.23256C30.5844 7.17424 30.8776 6.0976 31.2167 5.02554C31.4969 4.0321 31.8272 3.05349 32.2063 2.09342C32.6966 0.957223 33.5076 0.118804 34.85 0.0180118C35.5686 -0.0333686 36.2836 0.15868 36.8798 0.563206C37.8969 1.24584 38.8682 2.00177 39.8579 2.73022C40.5864 3.26625 41.3012 3.82062 42.048 4.33832C42.3646 4.58575 42.7549 4.72018 43.1568 4.72018C43.5586 4.72018 43.9489 4.58575 44.2656 4.33832C45.2506 3.63278 46.1853 2.85851 47.175 2.15754C48.0667 1.46736 49.0155 0.854289 50.0111 0.324961C51.4819 -0.385164 52.8472 0.10047 53.759 1.47032C54.4783 2.55613 54.7624 3.80688 55.106 5.0393C55.3993 6.07929 55.7063 7.11927 56.0224 8.15009C56.1134 8.52573 56.3304 8.85884 56.6372 9.09393C56.944 9.32901 57.3221 9.45188 57.7085 9.44207C59.0005 9.44207 60.2926 9.36419 61.5892 9.36419C62.5564 9.3264 63.5249 9.36929 64.4849 9.49246C66.5238 9.83606 67.541 11.325 67.069 13.3409C66.7529 14.6695 66.2214 15.9477 65.7907 17.2489C65.5525 17.9727 65.3051 18.6874 65.0851 19.4159C64.9361 19.8067 64.9277 20.2371 65.0615 20.6334C65.1953 21.0297 65.4628 21.367 65.8182 21.5875C66.785 22.2656 67.7838 22.8978 68.746 23.585C69.5542 24.1178 70.3201 24.7121 71.0368 25.3626C72.5534 26.8378 72.5901 28.6384 71.0368 30.0953C70.0306 30.9552 68.9701 31.7495 67.8617 32.473L65.4059 34.2781C65.227 34.4065 65.0887 34.5836 65.0075 34.7882C64.9263 34.9929 64.9055 35.2165 64.9477 35.4326C65.0247 35.9589 65.1489 36.4772 65.3188 36.9812C65.8869 38.6809 66.6063 40.3394 67.0324 42.0666C67.5959 44.3573 66.2993 45.97 63.9489 46.0983C62.7439 46.167 61.5297 46.0708 60.3155 46.0662C59.3304 46.0662 58.3454 46.0662 57.3649 46.1166C57.1167 46.118 56.875 46.1963 56.6732 46.3407C56.4713 46.4851 56.3192 46.6885 56.2377 46.9229C55.83 48.0958 55.4726 49.2824 55.0877 50.4644C54.767 51.4448 54.5058 52.4573 54.0935 53.4011C53.4291 54.9267 52.2608 55.6094 50.8633 55.4399C50.0781 55.3112 49.3411 54.976 48.7282 54.4686C47.4178 53.4973 46.1303 52.494 44.8337 51.5044C44.765 51.4586 44.6963 51.4174 44.6321 51.367C44.2233 50.9993 43.6929 50.7959 43.1431 50.7959C42.5932 50.7959 42.0628 50.9993 41.654 51.367C40.5818 52.1962 39.5372 53.0712 38.4467 53.873C37.6174 54.4778 36.8065 55.11 35.7527 55.3482C35.3093 55.4761 34.8406 55.4889 34.3909 55.3855C33.9412 55.2821 33.5253 55.0659 33.1823 54.7572C32.5121 54.1205 32.0356 53.3074 31.8077 52.4115C31.3954 51.0646 31.0472 49.6993 30.6577 48.3524C30.0529 46.2724 29.6681 45.9746 27.5009 46.0066C26.3692 46.0066 25.2375 46.1395 24.1058 46.1533C23.3299 46.1766 22.5536 46.1259 21.7874 46.0021C19.8035 45.6264 18.8093 44.1695 19.2445 42.1995C19.5675 40.9822 19.9513 39.7819 20.3945 38.603C20.6832 37.7142 21.0268 36.8438 21.2559 35.9412C21.5217 34.8921 21.1826 34.269 20.2525 33.6505C18.878 32.7617 17.5035 31.8637 16.1931 30.9016C15.6967 30.5381 15.2527 30.1079 14.8735 29.6234C13.8976 28.4093 13.8564 26.9112 14.9056 25.7658C15.712 24.9527 16.5925 24.2164 17.5355 23.5667C18.4519 22.8886 19.4095 22.3022 20.3487 21.67C20.783 21.4191 21.1079 21.015 21.2596 20.5369C21.4113 20.0589 21.379 19.5414 21.1689 19.086C20.7107 17.7482 20.1609 16.4288 19.7256 15.0772C19.4457 14.2684 19.2657 13.4283 19.1895 12.5758C19.1417 12.2109 19.1676 11.8401 19.2657 11.4854C19.3639 11.1307 19.5323 10.7994 19.7609 10.511C19.9895 10.2226 20.2736 9.98301 20.5966 9.80648C20.9195 9.62995 21.2746 9.52006 21.6408 9.48331C22.942 9.28631 24.2753 9.30919 25.5948 9.23131L25.5903 9.41916ZM43.1614 12.5804C34.7034 12.5116 28.0415 19.5488 27.9911 27.6259C27.9675 30.6299 28.8368 33.5733 30.4886 36.0826C32.1404 38.5919 34.5003 40.5541 37.2691 41.7203C40.0378 42.8865 43.0905 43.2042 46.0401 42.6329C48.9896 42.0617 51.703 40.6273 53.8361 38.5118C55.9691 36.3963 57.4258 33.6949 58.0212 30.7503C58.6166 27.8058 58.3239 24.7507 57.1804 21.9728C56.0368 19.1948 54.0939 16.819 51.598 15.1468C49.1021 13.4746 46.1657 12.5814 43.1614 12.5804Z" fill="white"/>
<path d="M41.5164 27.7817C42.5428 26.7325 43.5462 25.7062 44.5587 24.68C45.5713 23.6537 46.4739 22.7512 47.4407 21.7937C47.5998 21.6079 47.7973 21.4587 48.0195 21.3565C48.2418 21.2542 48.4835 21.2013 48.7281 21.2013C48.9728 21.2013 49.2145 21.2542 49.4368 21.3565C49.659 21.4587 49.8565 21.6079 50.0156 21.7937C50.7029 22.4763 51.3902 23.1681 52.0728 23.8553C52.248 24.0088 52.3884 24.198 52.4846 24.4101C52.5808 24.6223 52.6305 24.8525 52.6305 25.0855C52.6305 25.3184 52.5808 25.5486 52.4846 25.7608C52.3884 25.9729 52.248 26.1621 52.0728 26.3156C48.9389 29.4493 45.805 32.5815 42.6711 35.7122C42.5167 35.8809 42.3284 36.0149 42.1185 36.1055C41.9086 36.196 41.6818 36.2411 41.4532 36.2376C41.2246 36.2342 40.9994 36.1822 40.7923 36.0854C40.5852 35.9885 40.401 35.8488 40.2519 35.6755L34.6072 30.0449C34.4189 29.8893 34.2674 29.694 34.1633 29.4731C34.0593 29.2521 34.0054 29.0109 34.0054 28.7667C34.0054 28.5224 34.0593 28.2812 34.1633 28.0603C34.2674 27.8393 34.4189 27.6441 34.6072 27.4884C35.2669 26.8195 35.9313 26.1598 36.6002 25.5001C36.7589 25.308 36.958 25.1534 37.1833 25.0473C37.4086 24.9411 37.6546 24.8861 37.9037 24.8861C38.1528 24.8861 38.3988 24.9411 38.6242 25.0473C38.8495 25.1534 39.0486 25.308 39.2073 25.5001C39.8395 26.1231 40.4672 26.7554 41.0949 27.3876C41.2186 27.5113 41.3378 27.6167 41.5164 27.7817Z" fill="white"/>
<path d="M69.8592 56.6997C73.378 54.0516 76.5761 50.9866 80.3972 48.7371C81.0559 48.3542 81.6169 47.8241 82.0366 47.1882C82.4563 46.5524 82.7232 45.8281 82.8164 45.072C83.6503 39.3497 84.2963 33.6183 85.3868 27.9144C85.3868 26.288 88.9056 24.1897 89.0155 26.7095C89.2263 31.6987 89.0155 36.6833 88.9193 41.6725C88.9193 44.1877 88.0992 46.4785 87.0316 48.7051C84.7087 52.7826 83.6594 58.2253 79.1831 60.5161C73.5017 63.6177 67.6737 66.4262 62.8124 70.7877C59.6052 67.4066 56.4942 63.9522 53.3053 60.5527C52.9525 60.1725 52.8792 59.948 53.2732 59.5036C55.9535 55.5773 58.6751 51.5593 63.7838 50.9683C70.0196 50.3865 73.4055 43.2073 79.5954 43.1019C82.1521 42.9553 83.5174 45.3102 81.5014 47.1428C77.6298 50.3086 73.2543 52.8925 69.7217 56.5119L69.8592 56.6997Z" fill="white"/>
<path d="M59.4083 79.0438C55.8208 77.816 52.751 75.2229 49.4888 73.3216C48.1554 72.5563 46.7785 71.8694 45.3652 71.2645C45.2657 71.2367 45.1735 71.1878 45.0947 71.121C45.016 71.0542 44.9527 70.9711 44.9092 70.8775C44.8657 70.7839 44.8429 70.682 44.8425 70.5787C44.8422 70.4755 44.8641 70.3734 44.907 70.2795C45.6172 67.0725 47.1979 64.3557 49.2276 61.8404C50.5105 60.2369 50.7487 59.8292 52.4348 61.6755C55.5046 65.075 58.6523 68.4011 61.7725 71.7547C62.5285 72.5748 62.5193 72.726 62.0245 73.7064C61.1493 75.397 60.343 77.1058 59.4083 79.0438Z" fill="white"/>
<path d="M82.5691 43.661L79.9712 42.424C80.5989 39.1024 81.2037 35.4327 81.9505 32.0791C82.2586 31.0519 82.6383 30.0477 83.0868 29.0736C83.3984 28.6155 84.0673 28.4918 84.5255 28.1848C84.4109 33.3435 83.2014 38.5298 82.5691 43.661Z" fill="white"/>
<path d="M79.4854 42.6073L77.3457 42.9738C77.8039 40.0921 78.8164 37.1553 79.5129 34.269C79.7694 33.5818 80.2689 32.8213 81.1302 32.8671C80.9836 36.1428 79.884 39.3315 79.4854 42.6073Z" fill="white"/>
<path d="M19.2444 58.656C15.7256 56.0079 12.5275 52.9429 8.70634 50.6934C8.04726 50.311 7.48581 49.781 7.06606 49.1451C6.64632 48.5092 6.37972 47.7846 6.28719 47.0283C5.45789 41.306 4.80725 35.5746 3.71679 29.8707C3.71679 28.2443 0.202587 26.146 0.0926243 28.6658C-0.122719 33.655 0.0926299 38.6442 0.184265 43.6288C0.207174 46.1441 1.00898 48.4394 2.07195 50.6614C4.39949 54.7389 5.44414 60.1862 9.92053 62.4724C15.6019 65.5786 21.4299 68.3825 26.2958 72.744C29.503 69.3629 32.6094 65.9085 35.7983 62.509C36.1511 62.1288 36.2245 61.9043 35.8304 61.4599C33.1501 57.5336 30.4285 53.5156 25.3198 52.9246C19.0841 52.3428 15.6981 45.1636 9.50815 45.0582C6.95153 44.9116 5.58615 47.2665 7.60671 49.0991C11.4783 52.2649 15.8539 54.8534 19.3864 58.4728L19.2444 58.656Z" fill="white"/>
<path d="M29.6953 81C33.2782 79.7722 36.348 77.179 39.6102 75.2777C40.9441 74.5134 42.3209 73.8265 43.7339 73.2207C43.8343 73.1947 43.928 73.1474 44.0084 73.0819C44.0888 73.0163 44.1541 72.9342 44.1998 72.841C44.2455 72.7479 44.2706 72.646 44.2732 72.5423C44.2758 72.4386 44.2559 72.3355 44.2149 72.2402C43.5002 69.0332 41.924 66.3118 39.8943 63.7966C38.6068 62.1931 38.3686 61.7854 36.6871 63.6317C33.6173 67.0311 30.4696 70.3573 27.354 73.7109C26.5934 74.531 26.6071 74.6867 27.102 75.6626C27.9496 77.3531 28.756 79.0666 29.6953 81Z" fill="white"/>
</svg>
