<svg width="79" height="90" viewBox="0 0 79 90" fill="none" xmlns="http://www.w3.org/2000/svg">
<path d="M15.5802 11.8556C16.9891 11.8556 18.3917 11.8556 19.8006 11.8556C20.2821 11.8583 20.7509 11.7125 21.1325 11.4413C21.5142 11.1702 21.787 10.7892 21.9077 10.3586C22.3752 9.02865 22.7742 7.67564 23.2355 6.32839C23.6168 5.07805 24.0663 3.8463 24.5821 2.63784C25.2491 1.20998 26.3525 0.156368 28.1791 0.035461C29.1561 -0.0307947 30.1288 0.208502 30.9407 0.71484C32.3247 1.57271 33.6463 2.5227 34.9928 3.43814C35.984 4.11176 36.9565 4.80841 37.9726 5.45901C38.4035 5.76996 38.9345 5.93887 39.4813 5.93887C40.028 5.93887 40.5591 5.76996 40.9899 5.45901C42.3302 4.57235 43.6019 3.59359 44.9485 2.71269C46.1631 1.84717 47.4539 1.07683 48.8073 0.409694C50.8084 -0.482717 52.6661 0.121814 53.9067 1.8433C54.8854 3.20783 55.2719 4.77963 55.7395 6.32839C56.1384 7.63534 56.5561 8.9423 56.9863 10.2377C57.109 10.7103 57.404 11.1295 57.8217 11.4251C58.2393 11.7207 58.7543 11.8747 59.2803 11.8613C61.0383 11.8613 62.7963 11.7635 64.5605 11.7635C65.8831 11.7207 67.2073 11.7804 68.5191 11.9419C71.2932 12.3795 72.6772 14.2449 72.0351 16.7782C71.6049 18.4537 70.8818 20.06 70.2958 21.6951C69.9716 22.5991 69.635 23.503 69.3357 24.4127C69.1325 24.9046 69.1209 25.4465 69.3029 25.9454C69.4849 26.4444 69.8491 26.8694 70.3332 27.1475C71.6485 27.9938 73.0075 28.7884 74.3167 29.652C75.4134 30.3252 76.4552 31.0718 77.4337 31.8859C79.4971 33.7456 79.547 36.0025 77.4337 37.8391C76.063 38.9162 74.6201 39.9123 73.1135 40.8215L69.7659 43.0842C69.5225 43.2455 69.3343 43.468 69.2238 43.7252C69.1133 43.9824 69.0851 44.2635 69.1425 44.5351C69.248 45.1944 69.417 45.8438 69.6474 46.4754C70.4204 48.6114 71.3992 50.6956 71.9789 52.8719C72.7457 55.7507 70.9815 57.7716 67.7835 57.9385C66.144 58.0191 64.492 57.8982 62.84 57.8925C61.4997 57.8925 60.1593 57.8925 58.8253 57.9558C58.488 57.9592 58.1601 58.0583 57.8858 58.2395C57.6115 58.4207 57.4041 58.6754 57.2917 58.9691C56.7369 60.443 56.2506 61.94 55.727 63.4197C55.2906 64.6575 54.9353 65.9242 54.3742 67.1102C53.4703 69.0275 51.8806 69.8853 49.9793 69.6723C48.9109 69.5106 47.9082 69.0893 47.0742 68.4517C45.2913 67.2369 43.5396 65.976 41.7754 64.7324C41.6818 64.669 41.5883 64.6172 41.5011 64.5539C40.9436 64.0942 40.2224 63.8401 39.475 63.8401C38.7277 63.8401 38.0065 64.0942 37.449 64.5539C35.9902 65.6017 34.5689 66.6957 33.0852 67.7032C31.9569 68.4632 30.8535 69.2577 29.4197 69.5629C28.816 69.7197 28.1794 69.734 27.5683 69.6042C26.9572 69.4744 26.3912 69.2048 25.9224 68.8202C25.0103 68.0179 24.3621 66.9941 24.0522 65.8666C23.4911 64.1739 23.0173 62.4639 22.4875 60.7654C21.6646 58.1515 21.1409 57.7773 18.1923 57.8176C16.6525 57.8176 15.1127 57.9846 13.5729 58.0019C12.5172 58.034 11.4607 57.9704 10.4185 57.8119C7.71919 57.3397 6.36643 55.5089 6.95866 53.0331C7.32646 51.4959 7.98726 50.0162 8.51715 48.5135C8.91612 47.4023 9.38368 46.3026 9.69538 45.1684C10.0569 43.8499 9.59563 43.0727 8.33014 42.2897C6.45995 41.1785 4.58977 40.05 2.80685 38.864C2.13145 38.4071 1.52732 37.8666 1.01146 37.2576C-0.316371 35.7319 -0.372472 33.8549 1.05511 32.4098C2.15232 31.3879 3.35026 30.4628 4.6334 29.6462C5.88019 28.7999 7.18306 28.0572 8.46103 27.2684C9.04341 26.9487 9.47674 26.4409 9.67711 25.8432C9.87749 25.2455 9.83068 24.6003 9.54577 24.0327C8.92237 22.3457 8.17428 20.6876 7.58205 18.9891C7.20209 17.9743 6.95717 16.9207 6.85269 15.8513C6.78759 15.3927 6.82285 14.9268 6.95637 14.481C7.0899 14.0353 7.31896 13.6189 7.63 13.2564C7.94103 12.894 8.32772 12.5929 8.76709 12.3711C9.20647 12.1493 9.6896 12.0112 10.1878 11.965C11.9583 11.7116 13.7724 11.7404 15.5678 11.6426L15.5802 11.8556ZM39.4875 15.8282C27.9796 15.7419 18.9154 24.5854 18.8468 34.7358C18.8147 38.511 19.9974 42.2099 22.2449 45.3634C24.4923 48.5168 27.7033 50.9827 31.4704 52.4483C35.2376 53.9138 39.3911 54.313 43.4043 53.5951C47.4174 52.8773 51.1093 51.0747 54.0115 48.4161C56.9138 45.7576 58.8957 42.3628 59.7058 38.6624C60.5159 34.962 60.1177 31.1227 58.5618 27.6316C57.0059 24.1405 54.3623 21.1549 50.9663 19.0535C47.5704 16.952 43.5752 15.8295 39.4875 15.8282Z" fill="white"/>
<path d="M17.5377 61.75C18.2047 61.5485 18.423 61.94 18.61 62.5676C19.2334 64.5367 19.7757 66.5287 20.5799 68.4345C21.0101 69.5861 21.7282 70.6278 22.676 71.4751C23.6237 72.3224 24.7744 72.9514 26.0346 73.3111C28.0467 73.8962 30.2255 73.7437 32.119 72.885C33.8119 72.1139 35.3915 71.1465 36.8194 70.0063C37.5675 69.4305 38.353 68.9123 39.1135 68.3596C39.7369 67.9221 40.0112 68.4863 40.404 68.6878C40.7967 68.8893 40.6284 69.1772 40.4601 69.4593C36.4703 75.8194 32.4868 82.1853 28.5095 88.5569C28.2544 89.0249 27.8529 89.4112 27.3571 89.6658C26.8614 89.9204 26.2942 90.0315 25.7292 89.9848C25.1504 89.9701 24.5908 89.79 24.1274 89.4693C23.6641 89.1486 23.3198 88.7031 23.1421 88.1942C21.9327 85.2752 20.7233 82.3503 19.5513 79.414C19.383 78.9995 19.1773 78.9246 18.7284 78.988C15.3184 79.4889 11.871 79.961 8.48599 80.4389C7.93976 80.5379 7.37379 80.4807 6.86365 80.275C6.35351 80.0692 5.92345 79.7247 5.63082 79.2874C5.29941 78.8623 5.11392 78.3552 5.09836 77.8316C5.08279 77.308 5.23787 76.7922 5.54353 76.351C6.83397 74.2668 8.1431 72.1941 9.43977 70.1214C11.0481 67.5478 12.6628 64.98 14.2524 62.4064C14.3309 62.2407 14.4613 62.1006 14.6269 62.0041C14.7925 61.9076 14.9856 61.8592 15.1813 61.8652C15.9294 61.8652 16.6712 61.8019 17.5377 61.75Z" fill="white"/>
<path d="M42.9599 70.7373C44.0259 71.3534 45.0109 71.9579 46.0333 72.5049C50.0168 74.6352 54.8232 73.8003 57.4477 70.104C58.7755 68.2328 59.3927 66.1141 59.9787 63.9838C60.147 63.3735 60.3465 62.769 60.4961 62.1587C60.4988 62.0903 60.5183 62.0233 60.5533 61.963C60.5883 61.9026 60.6378 61.8505 60.6979 61.8105C60.7581 61.7705 60.8273 61.7437 60.9004 61.7322C60.9734 61.7207 61.0484 61.7248 61.1195 61.7442C62.0858 61.8017 63.0583 61.8248 64.0183 61.9054C64.1434 61.9217 64.2633 61.9618 64.3706 62.0233C64.478 62.0847 64.5703 62.1661 64.6417 62.2623C67.6132 66.9911 70.5744 71.7257 73.5251 76.4661C73.7896 76.907 73.915 77.4076 73.8874 77.911C73.8597 78.4145 73.68 78.9007 73.3686 79.3147C73.0572 79.7287 72.6266 80.054 72.1254 80.2536C71.6242 80.4533 71.0725 80.5194 70.5328 80.4445C67.1664 79.9493 63.8001 79.4542 60.44 78.9245C59.9413 78.8496 59.7605 78.9648 59.5797 79.3851C58.3828 82.2926 57.1422 85.1829 55.9328 88.0847C55.7575 88.6248 55.4023 89.1003 54.9177 89.4434C54.4332 89.7866 53.8439 89.98 53.2335 89.9961C52.6458 90.0249 52.0624 89.8898 51.5588 89.6085C51.0553 89.3272 50.6549 88.9126 50.4095 88.4186C47.5003 83.613 44.5724 78.8151 41.6258 74.0249C41.495 73.8572 41.4246 73.6558 41.4246 73.4491C41.4246 73.2424 41.495 73.041 41.6258 72.8734C42.0747 72.1825 42.4861 71.4743 42.9599 70.7373Z" fill="white"/>
<path d="M37.2495 34.9375C38.6459 33.619 40.0111 32.3236 41.3888 31.0397C42.7666 29.7557 43.9947 28.6158 45.31 27.4124C45.526 27.1781 45.7945 26.9899 46.0969 26.8608C46.3994 26.7318 46.7286 26.6649 47.0618 26.6649C47.395 26.6649 47.7242 26.7318 48.0266 26.8608C48.3291 26.9899 48.5976 27.1781 48.8135 27.4124C49.7486 28.2703 50.6837 29.1397 51.6126 30.0033C51.851 30.1962 52.042 30.4339 52.1728 30.7005C52.3037 30.9671 52.3714 31.2565 52.3714 31.5492C52.3714 31.8419 52.3037 32.1313 52.1728 32.3979C52.042 32.6645 51.851 32.9022 51.6126 33.0951C47.3485 37.0332 43.0783 40.9675 38.8018 44.8979C38.5922 45.1103 38.3363 45.2792 38.0509 45.3935C37.7656 45.5078 37.4572 45.5649 37.1462 45.5611C36.8351 45.5573 36.5285 45.4926 36.2465 45.3714C35.9645 45.2501 35.7136 45.075 35.5102 44.8577L27.8487 37.7817C27.5924 37.5856 27.3862 37.3397 27.2446 37.0615C27.103 36.7834 27.0297 36.4798 27.0297 36.1725C27.0297 35.8651 27.103 35.5615 27.2446 35.2834C27.3862 35.0052 27.5924 34.7594 27.8487 34.5633C28.7464 33.7227 29.6503 32.8936 30.5604 32.0645C30.7763 31.8232 31.0472 31.6289 31.3538 31.4955C31.6604 31.3621 31.9951 31.2929 32.334 31.2929C32.6729 31.2929 33.0076 31.3621 33.3142 31.4955C33.6208 31.6289 33.8917 31.8232 34.1076 32.0645L36.7258 34.4539C36.8443 34.592 37.0064 34.7245 37.2495 34.9375Z" fill="white"/>
</svg>
