<svg width="80" height="77" viewBox="0 0 80 77" fill="none" xmlns="http://www.w3.org/2000/svg">
<path d="M15.7332 12.9907C17.1606 12.9907 18.588 12.9907 20.0091 12.9907C20.4963 12.9951 20.9711 12.8365 21.3579 12.5401C21.7447 12.2437 22.0214 11.8266 22.1439 11.3549C22.6239 9.89604 23.0281 8.41189 23.4892 6.93405C23.8755 5.56459 24.3308 4.21555 24.8534 2.89209C25.5355 1.32583 26.6535 0.170079 28.4978 0.0311366C29.4905 -0.0411347 30.4785 0.223664 31.3021 0.782685C32.7042 1.7237 34.0369 2.76577 35.4011 3.76995C36.4117 4.50887 37.397 5.27305 38.4202 5.98039C38.8572 6.32304 39.3965 6.50925 39.9518 6.50925C40.5071 6.50925 41.0464 6.32304 41.4834 5.98039C42.8414 5.0078 44.1298 3.94047 45.4878 2.97419C46.719 2.02558 48.0266 1.18062 49.3974 0.447961C51.4311 -0.530951 53.3133 0.138499 54.5639 2.02685C55.5618 3.52364 55.9534 5.24779 56.4587 6.94036C56.8545 8.38031 57.2755 9.80973 57.7219 11.2286C57.845 11.7482 58.1433 12.2095 58.5666 12.535C58.9899 12.8605 59.5123 13.0303 60.0461 13.0159C61.8272 13.0159 63.6084 12.9086 65.3895 12.9086C66.7227 12.8565 68.0578 12.9156 69.3812 13.0854C72.1981 13.5591 73.6003 15.6116 72.9434 18.3905C72.5139 20.222 71.7813 21.984 71.1812 23.7776C70.8528 24.7692 70.5497 25.7607 70.2086 26.7649C70.0049 27.3044 69.995 27.8979 70.1804 28.4439C70.3659 28.99 70.7353 29.4546 71.2255 29.7585C72.5581 30.6932 73.935 31.5647 75.2551 32.5121C76.3703 33.2449 77.4262 34.0642 78.4131 34.9625C80.5036 36.9961 80.5542 39.4781 78.4131 41.4865C77.022 42.667 75.5603 43.7616 74.0361 44.7643L70.6444 47.2526C70.3977 47.4296 70.2071 47.6736 70.0952 47.9557C69.9832 48.2379 69.9546 48.5462 70.0128 48.8441C70.1264 49.5681 70.2975 50.2819 70.5244 50.9788C71.3076 53.3218 72.2992 55.6018 72.8929 57.989C73.6634 61.1468 71.8823 63.3699 68.6422 63.5467C66.9748 63.6415 65.301 63.5088 63.6336 63.5025C62.2757 63.5025 60.9177 63.5025 59.5598 63.572C59.2185 63.5743 58.8864 63.6825 58.6092 63.8816C58.3321 64.0807 58.1235 64.3609 58.0124 64.6835C57.4439 66.294 56.9513 67.9361 56.4208 69.5655C55.9786 70.917 55.6186 72.3064 55.0565 73.6074C54.1407 75.7105 52.5301 76.6578 50.5974 76.4242C49.5181 76.2426 48.5054 75.7809 47.6605 75.0853C45.8478 73.7464 44.073 72.3633 42.2856 70.9991C42.1972 70.9359 42.1024 70.8791 42.014 70.8096C41.4504 70.3028 40.7193 70.0224 39.9613 70.0224C39.2033 70.0224 38.4722 70.3028 37.9086 70.8096C36.4243 71.9527 34.9843 73.159 33.4874 74.2642C32.3442 75.0979 31.2326 75.9694 29.7736 76.2979C29.1623 76.4735 28.5165 76.4909 27.8966 76.3484C27.2768 76.2058 26.7035 75.9081 26.2303 75.4832C25.3092 74.6008 24.653 73.4786 24.3355 72.2433C23.7734 70.3928 23.2934 68.5108 22.7502 66.654C21.9165 63.7867 21.386 63.3762 18.3985 63.4204C16.8384 63.4204 15.2784 63.6036 13.7184 63.6225C12.6615 63.6525 11.6041 63.5827 10.5604 63.4141C7.82553 62.8962 6.44862 60.8879 7.05495 58.1722C7.49806 56.4943 8.02506 54.8396 8.63395 53.2145C9.03186 51.9893 9.50557 50.7893 9.82768 49.5451C10.194 48.0926 9.72662 47.24 8.44448 46.3874C6.54968 45.1621 4.65489 43.9243 2.84852 42.6296C2.16423 42.1285 1.55215 41.5355 1.02951 40.8676C-0.322113 39.1939 -0.378952 37.1287 1.07373 35.5499C2.18154 34.4272 3.3933 33.4122 4.69278 32.5184C5.95598 31.5837 7.28235 30.769 8.57713 29.9037C9.17578 29.5579 9.62362 29.0008 9.83277 28.3418C10.0419 27.6829 9.99729 26.9695 9.70768 26.3418C9.07608 24.4976 8.31186 22.6787 7.71184 20.8093C7.32744 19.6964 7.08135 18.5404 6.97916 17.3674C6.91321 16.8644 6.94893 16.3532 7.08421 15.8643C7.2195 15.3754 7.4516 14.9186 7.76673 14.521C8.08187 14.1234 8.47364 13.7932 8.91879 13.5498C9.36395 13.3065 9.85344 13.155 10.3582 13.1043C12.152 12.8328 13.9899 12.8644 15.8089 12.757L15.7332 12.9907ZM39.9613 17.3484C28.2957 17.2474 19.1185 26.9544 19.0491 38.0887C19.0165 42.2298 20.2148 46.2872 22.4918 49.7464C24.7688 53.2055 28.022 55.9104 31.8387 57.518C35.6554 59.1256 39.8637 59.5635 43.9296 58.776C47.9955 57.9886 51.7359 56.0113 54.6764 53.095C57.6168 50.1788 59.6248 46.4549 60.4456 42.3958C61.2664 38.3367 60.863 34.1254 59.2866 30.2959C57.7101 26.4664 55.0318 23.1914 51.5912 20.8863C48.1506 18.5811 44.1028 17.3498 39.9613 17.3484Z" fill="white"/>
<path d="M37.4602 37.2424C38.8813 35.7961 40.2645 34.3751 41.6604 32.9668C43.0562 31.5584 44.3004 30.3079 45.6268 28.988C45.8462 28.7319 46.1184 28.5263 46.4248 28.3853C46.7311 28.2444 47.0643 28.1714 47.4016 28.1714C47.7388 28.1714 48.0721 28.2444 48.3784 28.3853C48.6848 28.5263 48.957 28.7319 49.1764 28.988C50.1301 29.929 51.0711 30.8826 52.0122 31.83C52.2545 32.0404 52.4488 32.3004 52.582 32.5924C52.7151 32.8844 52.784 33.2016 52.784 33.5225C52.784 33.8435 52.7151 34.1606 52.582 34.4526C52.4488 34.7446 52.2545 35.0046 52.0122 35.2151C47.6963 39.5139 43.372 43.8232 39.0392 48.1431C38.8269 48.376 38.5677 48.5612 38.2785 48.6866C37.9894 48.812 37.677 48.8747 37.3619 48.8705C37.0467 48.8663 36.7361 48.7954 36.4504 48.6624C36.1647 48.5294 35.9104 48.3373 35.7044 48.0989C33.1148 45.5179 30.5274 42.9306 27.942 40.337C27.6814 40.1225 27.4715 39.853 27.3275 39.5478C27.1834 39.2426 27.1086 38.9093 27.1086 38.5718C27.1086 38.2343 27.1834 37.901 27.3275 37.5958C27.4715 37.2906 27.6814 37.0211 27.942 36.8066C28.8515 35.893 29.7674 34.9793 30.6895 34.0657C30.9088 33.8019 31.1835 33.5897 31.494 33.4441C31.8046 33.2984 32.1434 33.2229 32.4864 33.2229C32.8294 33.2229 33.1682 33.2984 33.4788 33.4441C33.7893 33.5897 34.064 33.8019 34.2833 34.0657L36.8855 36.6677C37.0307 36.8445 37.2202 36.9898 37.4602 37.2424Z" fill="white"/>
</svg>
