<svg width="33" height="21" viewBox="0 0 33 21" fill="none" xmlns="http://www.w3.org/2000/svg">
<g clip-path="url(#clip0)">
<path d="M3.16667 12.4444C3.53704 12.4444 3.7963 12.2963 3.94444 12C4.09259 11.7037 4.09259 11.4074 3.94444 11.1111C3.7963 10.8148 3.53704 10.6667 3.16667 10.6667C2.7963 10.6667 2.53704 10.8148 2.38889 11.1111C2.24074 11.4074 2.24074 11.7037 2.38889 12C2.53704 12.2963 2.7963 12.4444 3.16667 12.4444ZM23.625 11.6389C23.5324 11.5185 23.3542 11.287 23.0903 10.9444C22.8264 10.6019 22.6343 10.3519 22.5139 10.1944C22.3935 10.037 22.2176 9.81018 21.9861 9.51389C21.7546 9.21759 21.5579 8.97222 21.3958 8.77778C21.2338 8.58333 21.0463 8.36574 20.8333 8.125C20.6204 7.88426 20.412 7.65741 20.2083 7.44444L18.4722 9.38889C17.7037 10.2593 16.7384 10.6852 15.5764 10.6667C14.4144 10.6481 13.463 10.1944 12.7222 9.30555C12.1944 8.66667 11.9329 7.93518 11.9375 7.11111C11.9421 6.28704 12.213 5.56018 12.75 4.93055L15.2083 2.06944C15.0046 1.96759 14.7685 1.8912 14.5 1.84028C14.2315 1.78935 14.0116 1.76157 13.8403 1.75694C13.669 1.75231 13.4074 1.75463 13.0556 1.76389C12.7037 1.77315 12.4769 1.77778 12.375 1.77778C11.5231 1.77778 10.7917 2.08333 10.1806 2.69444L7.98611 4.88889H5.83333V12.4444C5.87963 12.4444 5.97685 12.4421 6.125 12.4375C6.27315 12.4329 6.375 12.4329 6.43056 12.4375C6.48611 12.4421 6.57639 12.4514 6.70139 12.4653C6.82639 12.4792 6.9213 12.5 6.98611 12.5278C7.05093 12.5556 7.13194 12.5949 7.22917 12.6458C7.32639 12.6968 7.41204 12.7593 7.48611 12.8333L11.6111 16.8889C12.6759 17.9167 13.7269 18.4306 14.7639 18.4306C15.4861 18.4306 16.0648 18.213 16.5 17.7778C17.0278 17.963 17.5486 17.9259 18.0625 17.6667C18.5764 17.4074 18.912 17.0139 19.0694 16.4861C19.7546 16.5417 20.3426 16.338 20.8333 15.875C21.0185 15.7083 21.1852 15.4977 21.3333 15.2431C21.4815 14.9884 21.5463 14.7546 21.5278 14.5417C21.6204 14.6343 21.8194 14.6806 22.125 14.6806C22.5231 14.6806 22.8796 14.5833 23.1944 14.3889C23.5093 14.1944 23.7384 13.9491 23.8819 13.6528C24.0255 13.3565 24.081 13.0255 24.0486 12.6597C24.0162 12.294 23.875 11.9537 23.625 11.6389ZM25.8333 12.4444H27.1667V5.33333H25.875L23.6944 2.83333C23.0833 2.12963 22.3009 1.77778 21.3472 1.77778H19.0278C18.2037 1.77778 17.5278 2.08796 17 2.70833L14.0972 6.08333C13.838 6.38889 13.7083 6.73611 13.7083 7.125C13.7083 7.51389 13.8333 7.86111 14.0833 8.16667C14.4815 8.63889 14.9907 8.87963 15.6111 8.88889C16.2315 8.89815 16.7454 8.6713 17.1528 8.20833L19.8333 5.18055C20.0648 4.96759 20.3125 4.86805 20.5764 4.88194C20.8403 4.89583 21.0579 5.02083 21.2292 5.25694C21.4005 5.49305 21.4398 5.75463 21.3472 6.04167C21.4954 6.21759 21.7546 6.50926 22.125 6.91667C22.4954 7.32407 22.7731 7.63889 22.9583 7.86111C23.2269 8.19444 23.6088 8.68287 24.1042 9.32639C24.5995 9.96991 24.8981 10.3611 25 10.5C25.4815 11.1111 25.7593 11.7593 25.8333 12.4444ZM29.8333 12.4444C30.2037 12.4444 30.463 12.2963 30.6111 12C30.7593 11.7037 30.7593 11.4074 30.6111 11.1111C30.463 10.8148 30.2037 10.6667 29.8333 10.6667C29.463 10.6667 29.2037 10.8148 29.0556 11.1111C28.9074 11.4074 28.9074 11.7037 29.0556 12C29.2037 12.2963 29.463 12.4444 29.8333 12.4444ZM32.5 4.44444V13.3333C32.5 13.5741 32.412 13.7824 32.2361 13.9583C32.0602 14.1343 31.8519 14.2222 31.6111 14.2222H25.5833C25.3333 14.8241 24.9537 15.3171 24.4444 15.7014C23.9352 16.0856 23.3565 16.3241 22.7083 16.4167C22.4028 16.8611 22.0301 17.2384 21.5903 17.5486C21.1505 17.8588 20.6759 18.0694 20.1667 18.1806C19.7778 18.6713 19.294 19.0486 18.7153 19.3125C18.1366 19.5764 17.5417 19.6898 16.9306 19.6528C16.375 19.9676 15.7917 20.1505 15.1806 20.2014C14.5694 20.2523 13.9792 20.1875 13.4097 20.0069C12.8403 19.8264 12.2986 19.5787 11.7847 19.2639C11.2708 18.9491 10.7917 18.5741 10.3472 18.1389L6.36111 14.2222H1.38889C1.14815 14.2222 0.939815 14.1343 0.763889 13.9583C0.587963 13.7824 0.5 13.5741 0.5 13.3333V4C0.5 3.75926 0.587963 3.55093 0.763889 3.375C0.939815 3.19907 1.14815 3.11111 1.38889 3.11111H7.23611C7.36574 2.98148 7.58333 2.75926 7.88889 2.44444C8.19444 2.12963 8.41435 1.90741 8.54861 1.77778C8.68287 1.64815 8.88657 1.46296 9.15972 1.22222C9.43287 0.981481 9.66667 0.80787 9.86111 0.701389C10.0556 0.594907 10.2917 0.476852 10.5694 0.347222C10.8472 0.217593 11.1343 0.127315 11.4306 0.0763889C11.7269 0.025463 12.0417 0 12.375 0H14C14.9167 0 15.7546 0.259259 16.5139 0.777778C17.2731 0.259259 18.1111 0 19.0278 0H21.3472C21.6713 0 21.9815 0.0277778 22.2778 0.0833333C22.5741 0.138889 22.8356 0.206018 23.0625 0.284722C23.2894 0.363426 23.5278 0.486111 23.7778 0.652778C24.0278 0.819444 24.2338 0.962963 24.3958 1.08333C24.5579 1.2037 24.7569 1.38657 24.9931 1.63194C25.2292 1.87731 25.4097 2.07176 25.5347 2.21528C25.6597 2.3588 25.8495 2.58102 26.1042 2.88194C26.3588 3.18287 26.5509 3.40741 26.6806 3.55556H31.6111C31.8519 3.55556 32.0602 3.64352 32.2361 3.81944C32.412 3.99537 32.5 4.2037 32.5 4.44444Z" fill="#E3861B"/>
</g>
<defs>
<clipPath id="clip0">
<rect width="32" height="20.4444" fill="white" transform="translate(0.5)"/>
</clipPath>
</defs>
</svg>
