<svg width="29" height="29" viewBox="0 0 29 29" fill="none" xmlns="http://www.w3.org/2000/svg">
<path d="M14.4611 26.9222L17.2302 24.1531M20.6916 24.1531C21.6097 24.1531 22.4901 23.7884 23.1392 23.1392C23.7884 22.4901 24.1531 21.6097 24.1531 20.6916C24.1531 19.7736 23.7884 18.8932 23.1392 18.2441C22.4901 17.5949 21.6097 17.2302 20.6916 17.2302C19.7736 17.2302 18.8932 17.5949 18.2441 18.2441C17.5949 18.8932 17.2302 19.7736 17.2302 20.6916C17.2302 21.6097 17.5949 22.4901 18.2441 23.1392C18.8932 23.7884 19.7736 24.1531 20.6916 24.1531V24.1531ZM11.692 4.76913L14.4611 2L11.692 4.76913ZM8.23055 11.692C9.14857 11.692 10.029 11.3273 10.6781 10.6781C11.3273 10.029 11.692 9.14857 11.692 8.23055C11.692 7.31252 11.3273 6.4321 10.6781 5.78296C10.029 5.13382 9.14857 4.76913 8.23055 4.76913C7.31252 4.76913 6.4321 5.13382 5.78296 5.78296C5.13382 6.4321 4.76913 7.31252 4.76913 8.23055C4.76913 9.14857 5.13382 10.029 5.78296 10.6781C6.4321 11.3273 7.31252 11.692 8.23055 11.692V11.692ZM8.92283 19.9994L19.9994 8.92283L8.92283 19.9994ZM5.46142 26.9222C6.37944 26.9222 7.25986 26.5575 7.90901 25.9084C8.55815 25.2592 8.92283 24.3788 8.92283 23.4608C8.92283 22.5428 8.55815 21.6623 7.90901 21.0132C7.25986 20.364 6.37944 19.9994 5.46142 19.9994C4.54339 19.9994 3.66297 20.364 3.01383 21.0132C2.36468 21.6623 2 22.5428 2 23.4608C2 24.3788 2.36468 25.2592 3.01383 25.9084C3.66297 26.5575 4.54339 26.9222 5.46142 26.9222V26.9222ZM23.4608 8.92283C24.3788 8.92283 25.2592 8.55815 25.9084 7.90901C26.5575 7.25986 26.9222 6.37944 26.9222 5.46142C26.9222 4.54339 26.5575 3.66297 25.9084 3.01383C25.2592 2.36468 24.3788 2 23.4608 2C22.5428 2 21.6623 2.36468 21.0132 3.01383C20.364 3.66297 19.9994 4.54339 19.9994 5.46142C19.9994 6.37944 20.364 7.25986 21.0132 7.90901C21.6623 8.55815 22.5428 8.92283 23.4608 8.92283Z" stroke="#E93F4F" stroke-width="2.76913" stroke-linecap="round" stroke-linejoin="round"/>
</svg>
