<svg width="31" height="31" viewBox="0 0 31 31" fill="none" xmlns="http://www.w3.org/2000/svg">
<g opacity="0.5">
<path d="M13.5157 11.0749V13.1221H12.0171V15.6242H13.5157V23.0623H16.5962V15.6242H18.6628C18.6628 15.6242 18.8575 14.4244 18.9512 13.1117H16.6081V11.4019C16.6081 11.1447 16.9441 10.8013 17.2771 10.8013H18.9542V8.19507H16.672C13.4399 8.19507 13.5157 10.7002 13.5157 11.0749Z" fill="white"/>
<path d="M6.53553 3.73468C5.74692 3.73468 4.99061 4.04796 4.43298 4.60559C3.87535 5.16322 3.56207 5.91952 3.56207 6.70813V24.5488C3.56207 25.3375 3.87535 26.0938 4.43298 26.6514C4.99061 27.209 5.74692 27.5223 6.53553 27.5223H24.3762C25.1648 27.5223 25.9212 27.209 26.4788 26.6514C27.0364 26.0938 27.3497 25.3375 27.3497 24.5488V6.70813C27.3497 5.91952 27.0364 5.16322 26.4788 4.60559C25.9212 4.04796 25.1648 3.73468 24.3762 3.73468H6.53553ZM6.53553 0.76123H24.3762C25.9535 0.76123 27.4661 1.38778 28.5813 2.50304C29.6966 3.6183 30.3231 5.13092 30.3231 6.70813V24.5488C30.3231 26.1261 29.6966 27.6387 28.5813 28.7539C27.4661 29.8692 25.9535 30.4957 24.3762 30.4957H6.53553C4.95831 30.4957 3.44569 29.8692 2.33043 28.7539C1.21517 27.6387 0.588623 26.1261 0.588623 24.5488V6.70813C0.588623 5.13092 1.21517 3.6183 2.33043 2.50304C3.44569 1.38778 4.95831 0.76123 6.53553 0.76123Z" fill="white"/>
</g>
</svg>
