<svg width="31" height="31" viewBox="0 0 31 31" fill="none" xmlns="http://www.w3.org/2000/svg">
<g opacity="0.5">
<path d="M22.9779 17.3086V22.8051H19.7918V17.6758C19.7918 16.3883 19.3309 15.5097 18.1772 15.5097C17.2971 15.5097 16.7723 16.1014 16.5418 16.6753C16.4586 16.8805 16.4363 17.1659 16.4363 17.4514V22.8051H13.2487C13.2487 22.8051 13.2918 14.1196 13.2487 13.2201H16.4363V14.5775L16.4154 14.6087H16.4363V14.579C16.86 13.9248 17.6152 12.9941 19.3086 12.9941C21.4049 12.9941 22.9779 14.3649 22.9779 17.3086ZM9.91399 8.5979C8.82422 8.5979 8.1106 9.3145 8.1106 10.2541C8.1106 11.1759 8.80341 11.9118 9.87237 11.9118H9.89318C11.0053 11.9118 11.6966 11.1744 11.6966 10.2541C11.6758 9.3145 11.0053 8.5979 9.91399 8.5979ZM8.29941 22.8051H11.4869V13.2201H8.29941V22.8051Z" fill="white"/>
<path d="M6.6239 3.73468C5.8353 3.73468 5.07899 4.04796 4.52136 4.60559C3.96373 5.16322 3.65045 5.91952 3.65045 6.70813V24.5488C3.65045 25.3375 3.96373 26.0938 4.52136 26.6514C5.07899 27.209 5.8353 27.5223 6.6239 27.5223H24.4646C25.2532 27.5223 26.0095 27.209 26.5672 26.6514C27.1248 26.0938 27.4381 25.3375 27.4381 24.5488V6.70813C27.4381 5.91952 27.1248 5.16322 26.5672 4.60559C26.0095 4.04796 25.2532 3.73468 24.4646 3.73468H6.6239ZM6.6239 0.76123H24.4646C26.0418 0.76123 27.5544 1.38778 28.6697 2.50304C29.785 3.6183 30.4115 5.13092 30.4115 6.70813V24.5488C30.4115 26.1261 29.785 27.6387 28.6697 28.7539C27.5544 29.8692 26.0418 30.4957 24.4646 30.4957H6.6239C5.04669 30.4957 3.53407 29.8692 2.41881 28.7539C1.30355 27.6387 0.677002 26.1261 0.677002 24.5488V6.70813C0.677002 5.13092 1.30355 3.6183 2.41881 2.50304C3.53407 1.38778 5.04669 0.76123 6.6239 0.76123Z" fill="white"/>
</g>
</svg>
