<svg width="31" height="31" viewBox="0 0 31 31" fill="none" xmlns="http://www.w3.org/2000/svg">
<g opacity="0.5">
<path d="M23.0662 11.0896C22.5191 11.3275 21.9319 11.491 21.3149 11.5624C21.9452 11.1907 22.4269 10.6019 22.6559 9.90169C22.0552 10.2518 21.3998 10.498 20.7172 10.6302C20.4301 10.3292 20.0847 10.0899 19.702 9.92684C19.3194 9.76377 18.9075 9.68034 18.4916 9.68166C16.8071 9.68166 15.4423 11.0271 15.4423 12.6848C15.4423 12.9197 15.4691 13.1487 15.5211 13.3687C14.3129 13.3114 13.1299 13.0028 12.0476 12.4626C10.9653 11.9225 10.0075 11.1627 9.23522 10.2317C8.96399 10.6883 8.82118 11.2097 8.82191 11.7408C8.82191 12.7815 9.36159 13.7032 10.1793 14.24C9.69528 14.2248 9.22163 14.0959 8.79664 13.8638V13.901C8.80123 14.5989 9.0476 15.2737 9.49379 15.8105C9.93998 16.3472 10.5584 16.7127 11.2438 16.8447C10.7938 16.9637 10.323 16.9809 9.86559 16.8952C10.065 17.4957 10.4464 18.0191 10.9569 18.3929C11.4674 18.7667 12.0815 18.9723 12.7142 18.9811C11.6288 19.8175 10.2962 20.2694 8.92598 20.2657C8.68067 20.2657 8.43834 20.2508 8.19897 20.224C9.5972 21.1091 11.2185 21.5778 12.8732 21.5755C18.4841 21.5755 21.5513 16.9993 21.5513 13.0298L21.5409 12.6402C22.139 12.2199 22.6558 11.6945 23.0662 11.0896Z" fill="white"/>
<path d="M6.71228 3.73468C5.92368 3.73468 5.16737 4.04796 4.60974 4.60559C4.05211 5.16322 3.73883 5.91952 3.73883 6.70813V24.5488C3.73883 25.3375 4.05211 26.0938 4.60974 26.6514C5.16737 27.209 5.92368 27.5223 6.71228 27.5223H24.553C25.3416 27.5223 26.0979 27.209 26.6555 26.6514C27.2132 26.0938 27.5264 25.3375 27.5264 24.5488V6.70813C27.5264 5.91952 27.2132 5.16322 26.6555 4.60559C26.0979 4.04796 25.3416 3.73468 24.553 3.73468H6.71228ZM6.71228 0.76123H24.553C26.1302 0.76123 27.6428 1.38778 28.7581 2.50304C29.8733 3.6183 30.4999 5.13092 30.4999 6.70813V24.5488C30.4999 26.1261 29.8733 27.6387 28.7581 28.7539C27.6428 29.8692 26.1302 30.4957 24.553 30.4957H6.71228C5.13507 30.4957 3.62245 29.8692 2.50719 28.7539C1.39193 27.6387 0.765381 26.1261 0.765381 24.5488V6.70813C0.765381 5.13092 1.39193 3.6183 2.50719 2.50304C3.62245 1.38778 5.13507 0.76123 6.71228 0.76123Z" fill="white"/>
</g>
</svg>
