<svg width="31" height="31" viewBox="0 0 31 31" fill="none" xmlns="http://www.w3.org/2000/svg">
<path d="M7.75 19.375C7.75 21.4304 8.56652 23.4017 10.0199 24.8551C11.4733 26.3085 13.4446 27.125 15.5 27.125C17.5554 27.125 19.5267 26.3085 20.9801 24.8551C22.4335 23.4017 23.25 21.4304 23.25 19.375" stroke="#E93F4F" stroke-width="2.58333" stroke-linecap="round" stroke-linejoin="round"/>
<path d="M23.25 19.375C21.1946 19.375 19.2233 20.1915 17.7699 21.6449C16.3165 23.0983 15.5 25.0696 15.5 27.125" stroke="#E93F4F" stroke-width="2.58333" stroke-linecap="round" stroke-linejoin="round"/>
<path d="M15.5 27.125C15.5 25.0696 14.6835 23.0983 13.2301 21.6449C11.7767 20.1915 9.80543 19.375 7.75 19.375" stroke="#E93F4F" stroke-width="2.58333" stroke-linecap="round" stroke-linejoin="round"/>
<path d="M15.5 27.125V14.2084" stroke="#E93F4F" stroke-width="2.58333" stroke-linecap="round" stroke-linejoin="round"/>
<path d="M15.5003 14.2083C13.7875 14.2083 12.1448 13.5279 10.9336 12.3167C9.72242 11.1056 9.04199 9.46286 9.04199 7.75V3.875L12.917 6.45833L15.5003 3.875L18.0837 6.45833L21.9587 3.875V7.75C21.9587 9.46286 21.2782 11.1056 20.0671 12.3167C18.8559 13.5279 17.2132 14.2083 15.5003 14.2083V14.2083Z" stroke="#E93F4F" stroke-width="2.58333" stroke-linecap="round" stroke-linejoin="round"/>
</svg>
