<svg width="45" height="30" viewBox="0 0 45 30" fill="none" xmlns="http://www.w3.org/2000/svg">
<g clip-path="url(#clip0)">
<path d="M26.1401 22.785H28.7539V25.3988H26.1401V22.785Z" fill="#E3861B"/>
<path d="M35.1753 22.785H37.789V25.3988H35.1753V22.785Z" fill="#E3861B"/>
<path d="M32.9824 13.515V10.9025H29.3599V12.175L30.7111 13.5162L32.9824 13.515Z" fill="#E3861B"/>
<path d="M41.9401 27.64V22.1287H42.7713L43.5438 21.365L34.3913 12.2125H33.2551V13.7987H30.5926L29.0063 12.2125H24.6113L15.4688 21.355L16.2413 22.1275H17.4651V27.6387H15.0763C11.5038 24.2212 10.5538 16.47 10.8876 10.7037L10.9463 10.5862H10.9751C12.5376 10.5862 13.9226 11.3437 14.7851 12.5112L14.7938 12.5237C15.4438 13.4025 15.8351 14.5087 15.8351 15.705C15.8351 16.53 15.6501 17.3112 15.3176 18.01L15.3313 17.9775C16.0289 17.7988 16.6774 17.4656 17.2288 17.0025L17.2213 17.0087C17.7955 16.509 18.2556 15.8918 18.5707 15.1989C18.8857 14.5061 19.0484 13.7536 19.0476 12.9925C19.0476 11.7987 18.6551 10.6975 17.9926 9.80998L18.0026 9.82373C17.4342 9.03103 16.6302 8.43776 15.7052 8.12829C14.7802 7.81882 13.7811 7.80891 12.8501 8.09998L12.8826 8.09123C13.2138 7.88498 13.5951 7.70248 13.9963 7.56373L14.0363 7.55123C14.5817 7.3498 15.1587 7.24777 15.7401 7.24998C17.0938 7.24998 18.3201 7.79123 19.2163 8.66748L19.2151 8.66623C19.3479 7.96512 19.308 7.24222 19.0988 6.55998L19.1076 6.59123C18.9003 5.98325 18.5715 5.42383 18.141 4.94704C17.7106 4.47025 17.1876 4.08608 16.6039 3.81791C16.0202 3.54975 15.3881 3.40322 14.7459 3.38725C14.1038 3.37127 13.4651 3.48618 12.8688 3.72498L12.9001 3.71373C12.5985 3.8177 12.3051 3.94431 12.0226 4.09248L12.0588 4.07498C11.9737 3.68405 11.8476 3.30319 11.6826 2.93873L11.6976 2.97498C10.5976 0.508729 8.07509 -0.656271 6.05884 0.362479C5.51433 0.640844 5.04648 1.04861 4.69634 1.54998L4.68884 1.56248C5.39847 1.63211 6.08203 1.86647 6.68511 2.24689C7.28818 2.62731 7.79411 3.14329 8.16259 3.75373L8.17384 3.77373C7.70609 3.53957 7.21105 3.36447 6.70009 3.25248L6.65759 3.24498C3.55759 2.57873 0.607589 4.26248 0.0788393 7.01373C-0.0624398 7.76846 -0.0156448 8.54637 0.215089 9.27873L0.206339 9.24623C0.899535 8.45926 1.7967 7.87913 2.7988 7.56988C3.8009 7.26062 4.86896 7.23427 5.88509 7.49373L5.84509 7.48498C6.35634 7.59248 6.80884 7.74748 7.23259 7.95123L7.19634 7.93498C6.18219 7.79988 5.15079 7.97035 4.23406 8.4246C3.31732 8.87885 2.55691 9.59623 2.05009 10.485L2.03634 10.51C1.50717 11.4014 1.22942 12.4196 1.23259 13.4562C1.23259 15.4162 2.20384 17.1487 3.69259 18.1987L3.71134 18.2112C4.35195 18.6414 5.08285 18.9185 5.84759 19.0212L5.87384 19.0237C5.32234 18.1099 5.03222 17.0623 5.03509 15.995C5.03509 14.9037 5.33134 13.8812 5.84884 13.005L5.83384 13.0325C6.21829 12.3633 6.74542 11.787 7.37777 11.3445C8.01012 10.9021 8.73217 10.6043 9.49259 10.4725L9.52384 10.4675C7.75259 18.5337 7.26259 24.1537 8.72384 27.6375H4.46634V29.9875H44.6513V27.6375H41.9401V27.64ZM32.0026 22.2562H40.9601V27.64H32.0026V22.2562ZM18.4263 21.1887L24.6138 15.0012L30.8013 21.1887V27.64H24.0076V22.785H20.5713V27.64H18.4188V21.1887H18.4263Z" fill="#E3861B"/>
</g>
<defs>
<clipPath id="clip0">
<rect width="45" height="30" fill="white"/>
</clipPath>
</defs>
</svg>
