<svg width="35" height="35" viewBox="0 0 35 35" fill="none" xmlns="http://www.w3.org/2000/svg">
<path d="M32.5593 25.55C32.491 25.3075 32.3311 25.101 32.1135 24.9741C31.8958 24.8471 31.6374 24.8096 31.3927 24.8695L28.9718 25.5209C30.2965 23.5681 31.0998 21.3091 31.3052 18.9584C31.5037 16.7591 31.1822 14.5439 30.3664 12.4919C29.5507 10.4399 28.2637 8.60855 26.6093 7.14586C26.4181 6.98769 26.1736 6.90865 25.926 6.92491C25.6783 6.94118 25.4463 7.05153 25.2774 7.23336C25.1075 7.42685 25.0212 7.67987 25.0376 7.93688C25.054 8.19388 25.1717 8.43388 25.3649 8.6042C26.7904 9.86248 27.8994 11.4389 28.6021 13.2057C29.3048 14.9725 29.5813 16.88 29.4093 18.7736C29.2428 20.7682 28.5739 22.688 27.4649 24.3542L27.2218 21.9139C27.2402 21.7703 27.2262 21.6244 27.1809 21.4869C27.1357 21.3494 27.0603 21.2237 26.9602 21.119C26.8602 21.0144 26.738 20.9334 26.6027 20.882C26.4674 20.8306 26.3222 20.81 26.1779 20.8219C26.0336 20.8337 25.8938 20.8776 25.7687 20.9504C25.6435 21.0232 25.5362 21.123 25.4546 21.2426C25.3729 21.3621 25.319 21.4984 25.2968 21.6415C25.2745 21.7845 25.2845 21.9308 25.326 22.0695L25.8121 28.3306L31.8885 26.7167C32.1292 26.6463 32.3334 26.4856 32.4584 26.2682C32.5834 26.0508 32.6196 25.7935 32.5593 25.55Z" fill="#51965E"/>
<path d="M4.18969 16.6056C4.31891 16.6886 4.46506 16.7418 4.61747 16.7611C4.8712 16.7944 5.12782 16.7263 5.33167 16.5716C5.53551 16.4169 5.67014 16.188 5.70636 15.9347C6.10808 12.9686 7.61547 10.2638 9.92667 8.36178C12.2379 6.45982 15.1823 5.50116 18.1702 5.67777L15.9925 7.16527C15.8384 7.28136 15.7223 7.44066 15.659 7.62291C15.5958 7.80515 15.5881 8.00211 15.6371 8.1887C15.6861 8.3753 15.7895 8.5431 15.9342 8.67076C16.0788 8.79841 16.2582 8.88014 16.4494 8.90555C16.6684 8.92557 16.8878 8.87074 17.0716 8.74999L22.2536 5.19166L17.8202 0.738883C17.7414 0.617998 17.6365 0.516198 17.5134 0.440872C17.3903 0.365546 17.2519 0.318586 17.1083 0.3034C16.9648 0.288213 16.8197 0.305183 16.6835 0.353075C16.5473 0.400968 16.4235 0.478583 16.3211 0.580284C16.2186 0.681986 16.1401 0.805221 16.0913 0.941045C16.0424 1.07687 16.0244 1.22187 16.0385 1.36553C16.0527 1.50918 16.0986 1.64788 16.1731 1.77156C16.2475 1.89524 16.3485 2.00079 16.4689 2.08055L18.1216 3.73333C14.6711 3.56834 11.284 4.70299 8.62913 6.91328C5.97425 9.12357 4.2445 12.2489 3.78136 15.6722C3.75643 15.8503 3.7814 16.0319 3.85349 16.1966C3.92558 16.3614 4.04196 16.503 4.18969 16.6056Z" fill="#51965E"/>
<path d="M21.126 29.0986C19.6078 29.5836 18.0063 29.7523 16.4204 29.5944C14.4889 29.4051 12.6326 28.7486 11.0116 27.6814C9.39059 26.6143 8.05367 25.1687 7.11624 23.4694L9.53707 24.3736C9.76022 24.4123 9.98988 24.3719 10.1864 24.2593C10.3829 24.1468 10.534 23.9691 10.6135 23.7571C10.6931 23.545 10.6961 23.3118 10.622 23.0978C10.5479 22.8837 10.4015 22.7023 10.2079 22.5847L5.7454 20.9319L4.31624 20.4167L3.23707 26.5903C3.19966 26.837 3.25853 27.0886 3.40149 27.2931C3.54446 27.4976 3.76058 27.6393 4.00512 27.6889H4.1704C4.39922 27.693 4.62218 27.6163 4.80002 27.4723C4.97786 27.3282 5.09918 27.1261 5.14262 26.9014L5.55096 24.568C6.65056 26.4943 8.19508 28.1295 10.0555 29.3371C11.916 30.5447 14.0383 31.2896 16.2454 31.5097C18.0906 31.6926 19.9538 31.494 21.719 30.9264C21.9438 30.8333 22.1255 30.6593 22.2283 30.4389C22.331 30.2184 22.3474 29.9673 22.2742 29.7354C22.2009 29.5034 22.0433 29.3073 21.8326 29.1858C21.6218 29.0643 21.3731 29.0263 21.1357 29.0792L21.126 29.0986Z" fill="#51965E"/>
<path d="M21.3892 12.6389H13.6114C13.3535 12.6389 13.1062 12.7413 12.9239 12.9236C12.7416 13.106 12.6392 13.3533 12.6392 13.6111V21.3889C12.6392 21.6467 12.7416 21.894 12.9239 22.0764C13.1062 22.2587 13.3535 22.3611 13.6114 22.3611H21.3892C21.647 22.3611 21.8943 22.2587 22.0766 22.0764C22.259 21.894 22.3614 21.6467 22.3614 21.3889V13.6111C22.3614 13.3533 22.259 13.106 22.0766 12.9236C21.8943 12.7413 21.647 12.6389 21.3892 12.6389ZM20.4169 20.4167H14.5836V14.5833H20.4169V20.4167Z" fill="#51965E"/>
</svg>
