<svg width="79" height="66" viewBox="0 0 79 66" fill="none" xmlns="http://www.w3.org/2000/svg">
<path fill-rule="evenodd" clip-rule="evenodd" d="M73.5619 0.55847C72.8246 0.864854 72.7556 1.37053 73.3431 2.1622C73.6963 2.63802 73.9008 2.66257 74.3912 2.28824C74.9141 1.8893 74.9204 1.56279 74.4173 0.947074C73.9386 0.361353 73.985 0.382539 73.5619 0.55847ZM76.4272 1.12075C75.9465 1.27818 75.8424 1.76633 76.2059 2.15794C76.5811 2.56213 76.7403 2.58639 77.1284 2.29858C77.5118 2.01442 77.5314 1.82483 77.2143 1.46734C76.8448 1.05087 76.7577 1.01243 76.4272 1.12075ZM70.8294 1.16192C70.5766 1.33019 70.3946 1.56128 70.3745 1.73967C70.3335 2.10357 70.9339 2.99931 71.2422 3.03403C71.4333 3.05556 72.3291 2.38192 72.3494 2.20141C72.3615 2.0937 71.4536 0.904248 71.3502 0.89261C71.2956 0.886452 71.0611 1.00763 70.8294 1.16192ZM67.6972 1.72986C66.7822 2.45973 66.7284 2.85906 67.432 3.70333C68.0992 4.50437 68.4394 4.54282 69.2886 3.91359C70.1798 3.25325 70.2194 2.85283 69.4843 1.93115C69.1539 1.51693 68.8344 1.24266 68.6592 1.22292C68.4839 1.20318 68.1114 1.39951 67.6972 1.72986ZM77.5034 2.93039C77.2805 3.19943 77.2684 3.27143 77.3966 3.5709C77.6962 4.27073 78.1194 4.3431 78.5953 3.77597C78.7749 3.56221 78.7658 3.48999 78.5118 3.10845C78.1644 2.58667 77.8364 2.52869 77.5034 2.93039ZM75.1117 3.14709C74.6452 3.49105 74.6149 3.79281 75.0027 4.232C75.6285 4.94071 75.6674 4.96117 76.0326 4.77669C76.217 4.68345 76.4778 4.47479 76.6121 4.31281C76.8511 4.02454 76.8474 4.00728 76.4357 3.47838C75.9487 2.85257 75.6222 2.77082 75.1117 3.14709ZM72.8718 3.18743C72.5115 3.26226 72.0568 3.67445 72.0253 3.95466C71.9892 4.27478 72.6764 5.09581 73.0122 5.13362C73.1339 5.14733 73.4466 4.98302 73.7071 4.76851L74.1808 4.37847L73.8002 3.88183C73.3491 3.29313 73.1347 3.1328 72.8718 3.18743ZM64.0347 2.76544C63.372 3.23059 63.0379 3.66396 63.1073 3.96847C63.1381 4.10368 63.4661 4.60479 63.8361 5.08188C64.6744 6.16264 64.9391 6.22627 65.8147 5.55809C66.8737 4.74981 66.8477 4.20189 65.6922 2.9947C65.0792 2.35406 64.6964 2.30106 64.0347 2.76544ZM69.8804 4.25768C69.5854 4.42449 69.2324 4.73804 69.0957 4.95448C68.8819 5.29308 68.8658 5.39642 68.9803 5.69587C69.1653 6.17959 69.9785 7.0722 70.2637 7.10432C70.5507 7.13665 71.8503 6.23144 72.0006 5.89455C72.1209 5.62471 71.986 5.31244 71.4164 4.54216C70.9489 3.90994 70.607 3.84673 69.8804 4.25768ZM76.9021 5.29368C76.4327 5.68472 76.4066 5.90004 76.7634 6.43606C77.252 7.17012 77.4129 7.21192 77.9742 6.75069C78.2472 6.52642 78.4757 6.2955 78.4823 6.23733C78.5056 6.03068 77.6985 5.02805 77.49 5.00456C77.3733 4.99142 77.1087 5.12149 76.9021 5.29368ZM74.2673 5.55243C74.0279 5.74766 73.8201 6.01499 73.8053 6.14646C73.7735 6.42905 74.4512 7.32261 74.7204 7.35293C74.8233 7.36452 75.1054 7.19411 75.3471 6.97418C75.6867 6.6652 75.7653 6.52089 75.6927 6.33878C75.5808 6.05824 74.9122 5.22095 74.7889 5.20705C74.7412 5.20169 74.5066 5.35705 74.2673 5.55243ZM60.7533 4.49319C60.2029 4.75043 59.3279 5.54537 59.1903 5.91334C59.0441 6.3039 59.3314 6.91937 60.0558 7.76815C60.706 8.52977 61.0616 8.69512 61.6033 8.48807C62.2299 8.24865 63.2948 7.23517 63.3397 6.83574C63.4154 6.16373 62.0647 4.40666 61.4172 4.33487C61.2727 4.31885 60.9739 4.39009 60.7533 4.49319ZM66.6678 6.06906C66.3361 6.31217 65.9755 6.67251 65.8664 6.86988C65.688 7.19284 65.6951 7.27737 65.9371 7.71394C66.2916 8.35333 67.2079 9.29378 67.5094 9.32773C67.8311 9.36397 69.2616 8.24661 69.2971 7.93137C69.361 7.36407 67.9938 5.70852 67.4067 5.6424C67.3319 5.63397 66.9993 5.82593 66.6678 6.06906ZM72.0294 7.28382C71.5455 7.66979 71.183 8.05816 71.166 8.2089C71.1316 8.5145 71.8056 9.49911 72.2548 9.79952C72.5296 9.98324 72.6161 9.98678 72.9579 9.82828C73.5615 9.54828 74.2606 8.85199 74.3014 8.49021C74.3373 8.17185 73.9118 7.57071 73.1804 6.90635L72.8636 6.61857L72.0294 7.28382ZM76.1342 7.6215C75.9268 7.72698 75.6618 7.92148 75.5451 8.05364C75.3487 8.27602 75.3646 8.33557 75.7587 8.85591C76.2877 9.55409 76.6774 9.63181 77.1937 9.14194C77.3957 8.95034 77.566 8.74872 77.5722 8.69405C77.5821 8.60623 76.6329 7.4404 76.5452 7.43267C76.5265 7.43095 76.3415 7.51589 76.1342 7.6215ZM56.6076 6.4332C56.044 6.69668 55.1811 7.48868 55.0363 7.87547C54.8556 8.3583 55.1645 8.98697 56.0548 9.94894C56.5568 10.4914 56.9392 10.7975 57.1435 10.8205C57.3543 10.8442 57.7217 10.656 58.2545 10.2512C59.1913 9.53972 59.462 9.18788 59.404 8.75684C59.3494 8.35088 58.6144 7.22246 58.073 6.71302C57.5824 6.2515 57.1664 6.17209 56.6076 6.4332ZM63.7927 7.87589C63.2344 8.13693 62.3666 8.93001 62.2248 9.30917C62.1558 9.49369 62.1626 9.77241 62.2412 9.97812C62.4175 10.4395 63.2591 11.4689 63.702 11.7651C64.1784 12.0836 64.6028 11.9475 65.5036 11.1869C66.103 10.681 66.218 10.5174 66.2595 10.113C66.3136 9.58677 65.964 8.97023 65.1657 8.18369C64.6551 7.68064 64.3546 7.61322 63.7927 7.87589ZM69.1575 9.56771C68.4736 10.0955 68.3855 10.2107 68.4276 10.523C68.5415 11.3692 69.7556 12.7161 70.3343 12.6383C70.7323 12.5848 71.9325 11.5267 71.9696 11.1967C72.008 10.8561 70.5443 9.03616 70.2008 8.99747C70.0486 8.98032 69.6029 9.22389 69.1575 9.56771ZM38.0955 6.03033C36.3476 10.5931 34.4562 13.8863 31.5092 17.4977C30.3014 18.9779 29.4805 19.8715 27.4592 21.9057C26.0337 23.3405 24.5141 24.7464 18.5484 30.1505C16.6709 31.8513 13.6535 34.8731 12.2736 36.4344C7.6254 41.6938 4.62037 47.4323 3.44622 53.2915L3.25998 54.2207L2.16415 55.1107C1.56149 55.6002 0.909551 56.2394 0.715308 56.531C0.205296 57.2969 0.0206126 58.5441 0.253979 59.6461C0.869752 62.5538 3.85959 65.3216 6.44581 65.3778C7.443 65.3995 8.10805 65.113 9.45863 64.0802L10.6202 63.1919L12.6591 63.3958C15.4361 63.6734 16.855 63.4671 19.8424 62.3508C22.5585 61.336 25.4387 59.723 30.399 56.4388C34.5297 53.7038 37.8909 51.7078 41.6232 49.7731C42.4556 49.3417 43.1419 48.9433 43.1481 48.8878C43.1683 48.7085 41.746 46.0319 41.2769 45.3665C40.6386 44.4613 39.7155 43.8911 38.8953 43.8959C37.8769 43.9017 35.6112 44.4474 33.4671 45.2031C30.5142 46.2439 28.6306 47.0954 23.0153 49.9274C21.1316 50.8774 18.3919 52.1727 16.927 52.8058C14.0749 54.0387 8.44035 56.1983 9.1156 55.7998C10.0418 55.2532 10.6373 54.5956 13.5191 50.9371C19.8111 42.9498 22.2703 39.963 26.9808 34.5873C32.4345 28.3638 36.119 21.5097 37.8603 14.3493C38.5084 11.684 38.8538 6.19429 38.4086 5.63602C38.3367 5.54582 38.2293 5.68094 38.0955 6.03033ZM74.5915 9.85152C74.1731 10.0462 73.4032 10.8407 73.373 11.1089C73.3492 11.3203 74.3154 12.6015 74.5915 12.7245C74.714 12.7793 74.9854 12.7584 75.1947 12.6783C75.6231 12.5147 76.6009 11.6938 76.6252 11.4775C76.6794 10.9965 75.6669 9.73905 75.1825 9.68576C75.078 9.67424 74.8121 9.7488 74.5915 9.85152ZM53.1585 8.91014C52.9439 8.97464 52.3751 9.35624 51.8943 9.75814C50.7964 10.6761 50.711 11.0253 51.3384 12.0333C52.1084 13.2704 52.9179 13.8968 53.5461 13.7417C53.9188 13.6497 55.5969 12.3323 55.7346 12.0239C55.9196 11.6088 55.7615 11.1874 55.0745 10.2643C54.2115 9.10512 53.7039 8.74632 53.1585 8.91014ZM59.0977 11.1907C58.6067 11.5663 58.1597 11.9944 58.1044 12.142C57.9556 12.5398 58.209 13.0647 59.0208 14.0406C59.6409 14.7861 59.8145 14.9218 60.2037 14.9656C60.5801 15.008 60.7891 14.9197 61.399 14.4605C62.2061 13.8528 62.5462 13.367 62.4846 12.9097C62.4323 12.5204 61.7503 11.5247 61.1801 11.0051C60.4752 10.3627 60.1412 10.3925 59.0977 11.1907ZM66.6166 11.9174C65.9938 12.2968 65.1965 13.0319 65.0829 13.3311C64.9303 13.7335 65.179 14.2548 65.9503 15.1491C66.7164 16.0373 67.0087 16.1441 67.7346 15.8011C68.3838 15.4944 69.1761 14.6291 69.2277 14.1706C69.28 13.7061 68.9036 13.0564 68.1488 12.308C67.4968 11.6617 67.1721 11.579 66.6166 11.9174ZM71.9959 12.6027C71.4074 12.8764 70.8268 13.4705 70.785 13.8416C70.7386 14.2535 71.5777 15.5087 72.1274 15.8497C72.6271 16.1597 72.9669 16.0936 73.5842 15.5666C74.514 14.7726 74.4976 14.399 73.4794 13.1989C72.798 12.3957 72.6064 12.3187 71.9959 12.6027ZM48.807 11.5806C48.5904 11.648 48.0511 12.0079 47.6084 12.3804C46.6977 13.1468 46.5598 13.5347 46.9243 14.306C47.2121 14.915 48.518 16.393 48.8921 16.5329C49.35 16.7043 50.0119 16.4161 50.8798 15.6676C52.0137 14.6895 52.0083 14.3267 50.8374 12.7925C50.0144 11.7142 49.4535 11.3794 48.807 11.5806ZM55.9375 13.3283C55.643 13.4949 55.1668 13.8505 54.8794 14.1187C53.9696 14.9674 54.1211 15.8177 55.426 17.1863C55.8981 17.6813 56.0886 17.7959 56.5211 17.8446C56.9877 17.8971 57.1356 17.8345 57.8798 17.2692C58.8393 16.5405 59.1832 16.0933 59.1237 15.6517C59.1009 15.4814 58.6975 14.8435 58.2275 14.2343C57.4713 13.2541 57.3212 13.1208 56.923 13.0759C56.6263 13.0425 56.2908 13.1284 55.9375 13.3283ZM62.3296 15.0087C61.2425 15.8978 61.1805 16.1563 61.8122 17.1633C62.4584 18.1935 63.1987 18.8678 63.6221 18.8121C64.4187 18.7075 65.4166 17.9582 65.7116 17.2433C65.9161 16.7478 65.7104 16.2557 64.8876 15.2715C64.2542 14.5138 64.0937 14.3903 63.6823 14.344C63.2634 14.2968 63.1048 14.3747 62.3296 15.0087ZM69.3969 15.4769C68.7259 15.7916 67.6676 16.7752 67.6287 17.1201C67.5657 17.6797 69.0479 19.6356 69.5805 19.6956C69.8486 19.7258 71.0153 19.0208 71.405 18.5933C72.0093 17.9302 72.005 17.5499 71.3837 16.715C70.4568 15.4698 70.0082 15.1901 69.3969 15.4769ZM43.7472 14.6639C43.3227 14.9819 42.8783 15.4146 42.7597 15.6255C42.3357 16.3796 42.3984 16.5876 43.4452 17.9001C43.9826 18.5739 44.5697 19.1797 44.7512 19.2475C45.5876 19.5605 46.7558 19.0161 47.3841 18.0205C47.6686 17.5696 47.7051 17.4247 47.6272 17.0531C47.5124 16.505 46.944 15.6596 46.1356 14.8344C45.6305 14.3187 45.4177 14.187 45.0155 14.1417C44.5888 14.0937 44.4109 14.1669 43.7472 14.6639ZM52.6308 15.7773C52.1521 15.8502 50.7128 17.0183 50.5432 17.4718C50.3391 18.0169 50.4838 18.4046 51.2887 19.4685C52.5256 21.1041 52.9933 21.1873 54.4315 20.0278C55.7631 18.9543 55.7218 18.2627 54.2305 16.6671C53.4977 15.883 53.1621 15.6964 52.6308 15.7773ZM59.2982 17.7082C58.4861 18.1949 57.7942 18.9548 57.7421 19.4173C57.6842 19.9313 58.0115 20.5541 58.7639 21.3618C59.5527 22.2087 59.7196 22.2967 60.3544 22.2003C60.9713 22.1065 62.1455 21.2028 62.4167 20.6132C62.6831 20.0336 62.4321 19.4118 61.483 18.3C60.5781 17.2397 60.2349 17.1468 59.2982 17.7082ZM66.154 18.4031C65.6467 18.6402 64.7628 19.4187 64.6088 19.7642C64.5442 19.9089 64.5101 20.1668 64.5331 20.3371C64.5864 20.7339 66.0619 22.5716 66.4411 22.7135C67.0424 22.9385 68.5959 21.9014 68.9084 21.0663C69.0393 20.7163 68.8233 20.1832 68.249 19.4392C67.7072 18.7375 67.1592 18.2836 66.8054 18.2437C66.6678 18.2282 66.3747 18.3 66.154 18.4031ZM40.6935 17.2559C40.1893 17.4182 39.0396 18.3655 38.8172 18.802C38.5633 19.3002 38.7897 19.8976 39.6638 21.0355C40.8424 22.5699 41.3465 22.7763 42.3756 22.1458C43.6189 21.384 44.0416 20.5952 43.6502 19.7668C43.3826 19.2003 41.8044 17.3271 41.5727 17.301C41.4821 17.2908 41.3359 17.2479 41.248 17.2057C41.1598 17.1636 40.9104 17.1862 40.6935 17.2559ZM47.0929 19.2945C46.2783 19.9441 46.1355 20.1152 46.0929 20.493C46.0356 21.0023 46.3739 21.6577 47.1988 22.635C48.34 23.9873 48.7305 24.0961 49.8525 23.3747C50.7729 22.7829 51.0683 22.4334 51.1329 21.8598C51.2029 21.2385 51.0146 20.8313 50.1983 19.8387C49.3701 18.8318 49.1378 18.6599 48.5107 18.5892C48.0997 18.5429 47.9282 18.6282 47.0929 19.2945ZM55.7723 20.3729C55.2145 20.5739 53.9802 21.6239 53.8302 22.0249C53.6205 22.5853 53.7836 22.9898 54.6647 24.0946C55.9511 25.7076 56.3786 25.7456 57.9352 24.3853C58.7917 23.6368 58.897 23.2244 58.4368 22.4182C57.8565 21.4012 56.7369 20.2634 56.2808 20.2274C56.2335 20.2236 56.0047 20.2891 55.7723 20.3729ZM62.6785 21.5615C61.7722 22.0026 60.9737 22.8318 60.9099 23.398C60.812 24.2671 62.2917 26.0955 63.1733 26.1948C63.9835 26.286 65.6012 24.9985 65.6923 24.19C65.7715 23.4866 64.134 21.3624 63.4534 21.2857C63.3604 21.2752 63.0116 21.3994 62.6785 21.5615ZM37.1634 20.5098C37.0367 20.6524 36.6165 21.4685 36.2293 22.3235L35.5253 23.878L36.1693 24.6287C36.7624 25.32 36.8608 25.3847 37.4143 25.447C38.4437 25.563 39.6398 24.6887 39.8777 23.6461C39.9895 23.1571 39.9585 23.0676 39.381 22.2076C38.7456 21.2614 37.8417 20.3012 37.5561 20.269C37.4667 20.259 37.29 20.3673 37.1634 20.5098ZM44.0783 22.0013C43.8532 22.106 43.4027 22.4398 43.0772 22.7431C42.1019 23.6518 42.1978 24.3088 43.5377 25.8964C44.2935 26.792 44.5874 27.015 45.0854 27.0711C45.4519 27.1124 45.6602 27.0054 46.4672 26.3618C47.3226 25.6797 47.4231 25.5543 47.4735 25.107C47.521 24.685 47.4437 24.4888 46.9611 23.8068C45.718 22.0502 44.9744 21.5843 44.0783 22.0013ZM51.97 23.4256C51.4804 23.5597 50.2113 24.6044 50.0123 25.0371C49.769 25.5664 49.8892 25.9191 50.6713 26.9697C52.1102 28.9027 52.5964 29.0446 53.9854 27.9368C55.2741 26.909 55.3417 26.3834 54.3552 25.058C53.3284 23.6787 52.676 23.2322 51.97 23.4256ZM59.4387 24.8909C59.0399 25.0013 57.9706 25.8691 57.6588 26.3355C57.2738 26.9112 57.3746 27.4146 58.068 28.379C58.7974 29.3935 59.3061 29.813 59.8859 29.8783C60.2451 29.9188 60.4832 29.8102 61.2344 29.2629C62.6023 28.2663 62.6931 27.7348 61.718 26.4305C60.6815 25.0439 60.1595 24.6913 59.4387 24.8909ZM39.4378 25.3998C38.5784 26.085 38.482 26.2058 38.4307 26.6609C38.3617 27.2733 38.6797 27.8801 39.6706 29.0266C40.3138 29.7708 40.4138 29.8387 40.9552 29.899C41.6156 29.9727 41.9082 29.8238 42.8524 28.9338C43.6825 28.1514 43.6932 27.7934 42.9214 26.6438C42.0951 25.4137 41.389 24.7546 40.8294 24.6915C40.4508 24.6489 40.2528 24.7496 39.4378 25.3998ZM48.2562 26.3681C47.6979 26.5681 46.4643 27.618 46.3133 28.0216C46.1228 28.5307 46.3483 29.0187 47.3274 30.2163C48.2449 31.3386 48.6374 31.6169 49.1971 31.5416C49.6342 31.4828 51.1594 30.2347 51.2864 29.8318C51.4515 29.3084 51.1328 28.5254 50.4026 27.661C49.3179 26.3766 48.9131 26.1327 48.2562 26.3681ZM34.7321 25.4384C34.2425 26.2291 33.0477 28.3391 33.0374 28.4313C33.0331 28.4692 33.2744 28.5278 33.5738 28.5615C34.2226 28.6346 34.9655 28.2655 35.5648 27.5723C36.0977 26.9559 36.2238 26.5606 36.0407 26.0813C35.8581 25.6038 35.3591 24.8355 35.2212 24.82C35.1666 24.8138 34.9464 25.0922 34.7321 25.4384ZM54.6027 28.7108C53.7543 29.3876 53.6968 29.4645 53.6358 30.0058C53.5731 30.5628 53.6022 30.6203 54.5552 31.8151C55.8951 33.495 56.2922 33.6108 57.5367 32.6846C59.0989 31.5217 59.0819 30.8336 57.4437 28.9381C56.7897 28.1815 56.7075 28.1268 56.1255 28.0613C55.5287 27.994 55.4704 28.0189 54.6027 28.7108ZM35.73 28.6026C34.8719 29.2869 34.8355 29.3376 34.7679 29.9383C34.7002 30.5386 34.7271 30.6026 35.4678 31.5993C36.3108 32.7336 36.977 33.256 37.527 33.2137C37.9746 33.1792 39.5648 31.9432 39.7271 31.5032C39.9401 30.9266 39.7878 30.5409 38.9015 29.4127C37.5314 27.6685 37.0541 27.5466 35.73 28.6026ZM43.9426 29.4316C43.3909 29.7161 42.5633 30.376 42.3344 30.7138C41.8292 31.4591 42.069 32.1563 43.3338 33.6197C43.9934 34.3828 44.0659 34.4305 44.6705 34.4986C45.2886 34.5683 45.3387 34.5475 46.1912 33.8676C46.9822 33.2367 47.0785 33.1129 47.1295 32.6603C47.2049 31.9901 46.648 31.0442 45.4983 29.8892C44.894 29.2821 44.4728 29.1581 43.9426 29.4316ZM51.0069 31.8763C50.1847 32.5008 49.8758 32.9719 49.9191 33.5352C49.9454 33.8775 51.1089 35.5052 51.7355 36.0763C51.9821 36.301 52.336 36.5022 52.5217 36.5231C53.21 36.6006 54.9465 35.2399 55.0227 34.5634C55.0702 34.1418 54.8235 33.5566 54.2894 32.8239C53.545 31.8025 53.0181 31.385 52.3834 31.3135C51.8814 31.257 51.7534 31.3093 51.0069 31.8763ZM31.851 30.1345C31.6609 30.3983 31.5211 30.6861 31.5404 30.7739C31.5596 30.8616 31.7276 30.7041 31.9136 30.4236C32.3545 29.7591 32.3007 29.5103 31.851 30.1345ZM32.1683 31.4467C31.3818 31.9806 30.9278 32.5393 30.8711 33.0429C30.8214 33.4843 31.3237 34.3521 32.2807 35.4784C33.2153 36.5783 33.8065 36.5592 35.1492 35.3859C36.148 34.5132 36.1929 34.117 35.4247 32.9545C34.1613 31.0425 33.3302 30.6577 32.1683 31.4467ZM40.2568 32.9237C39.526 33.3415 38.744 34.1063 38.6107 34.5335C38.4224 35.1366 38.5467 35.4466 39.438 36.5975C40.7192 38.2518 41.2827 38.3821 42.5918 37.3267C43.8952 36.2759 43.9321 35.8147 42.8324 34.3214C41.7596 32.8646 41.0415 32.4748 40.2568 32.9237ZM47.6362 34.308C47.4129 34.4118 46.9612 34.7535 46.6322 35.0671C46.1234 35.5522 46.0245 35.7217 45.9705 36.2011C45.9118 36.7222 45.9614 36.838 46.6301 37.7419C47.4916 38.9064 47.964 39.3035 48.5691 39.3716C48.947 39.4142 49.1627 39.3152 49.9188 38.7524C50.853 38.057 51.1337 37.5982 51.0094 36.9696C50.9769 36.8054 50.5116 36.121 49.9755 35.4486C49.0884 34.3364 48.9573 34.2214 48.5212 34.1728C48.2576 34.1433 47.8593 34.2041 47.6362 34.308ZM28.6491 34.4541C27.9644 35.0595 27.101 36.1471 27.0673 36.4469C27.0344 36.739 28.5834 38.8277 29.0785 39.1586C29.6108 39.5147 30.106 39.3814 31.0882 38.6176C31.8825 37.9999 31.9725 37.8852 32.0243 37.4259C32.0928 36.8178 31.6863 36.0638 30.7547 35.0712C29.6578 33.9022 29.3692 33.8177 28.6491 34.4541ZM36.3548 35.5317C35.4653 35.8807 34.4959 36.8513 34.4272 37.4621C34.3731 37.9418 34.7463 38.6369 35.5924 39.6322C36.3709 40.5479 36.6436 40.7312 37.1711 40.6924C37.651 40.6571 38.8836 39.8357 39.2268 39.3227C39.6379 38.708 39.5781 38.3366 38.9069 37.3355C37.8726 35.7923 37.0936 35.2418 36.3548 35.5317ZM43.412 37.9339C41.9435 39.0395 41.8745 39.517 42.9685 41.0024C44.1142 42.5584 44.6921 42.8765 45.5966 42.4491C46.1537 42.1859 47.1535 41.2896 47.2865 40.9342C47.5047 40.3509 46.984 39.3494 45.8452 38.1622C45.2938 37.5873 45.096 37.4602 44.6797 37.4134C44.2466 37.3646 44.0739 37.4355 43.412 37.9339ZM25.4708 37.9418C25.2035 38.2077 24.6338 38.829 24.2048 39.3222L23.4249 40.2189L24.1349 41.1173C24.9443 42.1417 25.4565 42.5158 25.9568 42.4485C26.1441 42.4234 26.6931 42.1079 27.1771 41.7478C28.0771 41.0777 28.3709 40.6039 28.2539 40.0116C28.1762 39.6187 26.4549 37.5142 26.1867 37.484C26.0602 37.4698 25.7382 37.6758 25.4708 37.9418ZM31.736 39.3891C30.3108 40.4791 30.3261 40.9564 31.8441 42.7768C32.6601 43.7555 32.8698 43.9374 33.228 43.9778C33.7017 44.0311 34.4797 43.6461 35.1139 43.0444C35.9936 42.2097 35.9836 41.7505 35.058 40.4831C34.132 39.2152 33.7008 38.8371 33.1041 38.7699C32.6783 38.7219 32.5066 38.7996 31.736 39.3891ZM39.5109 40.7616C38.5993 41.3615 38.2051 41.845 38.2066 42.3616C38.2077 42.7607 38.0868 42.7452 40.4305 42.648C41.3755 42.6089 42.3599 42.6003 42.6179 42.6291C42.876 42.6578 43.0925 42.6331 43.0991 42.5743C43.1134 42.4476 42.1106 41.2505 41.5253 40.6955C40.9023 40.1049 40.4886 40.1185 39.5109 40.7616ZM22.2879 41.5738C22.0202 41.8746 21.442 42.5569 21.0032 43.09L20.2054 44.0594L20.7776 44.7431C21.6521 45.7882 22.2727 45.7565 23.5969 44.5993C24.4171 43.8827 24.5488 43.4765 24.2028 42.7325C23.9807 42.2548 23.043 41.0571 22.8766 41.0383C22.8206 41.032 22.5556 41.2729 22.2879 41.5738ZM27.9642 42.4031C27.4584 42.7964 27.0084 43.2581 26.9207 43.4735C26.7111 43.9884 26.9548 44.693 27.6214 45.4996L28.1406 46.1278L29.0975 45.7418C30.726 45.0848 31.8543 44.559 31.8664 44.4515C31.8864 44.2736 30.0626 42.078 29.7695 41.9271C29.1668 41.6167 28.8771 41.6932 27.9642 42.4031ZM41.4485 43.876C43.488 47.4692 44.6301 50.8913 44.9058 54.2356C45.0326 55.7736 44.7338 58.4666 44.3194 59.5207C44.1534 59.9431 44.0114 60.3431 44.0039 60.4097C43.983 60.5956 45.117 59.9503 46.1093 59.2116C47.4938 58.1811 48.6492 56.6379 49.3282 54.9123C49.4464 54.6121 49.6148 53.7189 49.7026 52.9276C49.8371 51.7152 49.8281 51.3254 49.6459 50.4509C48.8614 46.6873 45.9378 44.1425 41.8727 43.6846C41.3375 43.6244 41.3122 43.6358 41.4485 43.876ZM24.009 45.5608C23.2108 46.1975 23.032 46.4047 22.9946 46.7367C22.9433 47.1924 23.1207 47.7397 23.4351 48.0961C23.6381 48.3261 23.7119 48.3059 25.0778 47.6475C27.2223 46.6137 27.2784 46.5747 27.0958 46.246C26.7302 45.5874 26.0907 45.0421 25.5354 44.9153C24.9827 44.7892 24.9697 44.7947 24.009 45.5608ZM19.4729 45.0642C19.1985 45.3127 17.7329 47.1159 17.3959 47.6197C17.0793 48.0932 17.1785 48.3134 17.7929 48.5018C18.3488 48.6723 18.7749 48.4985 19.6858 47.7295C20.3332 47.1831 20.4258 47.0486 20.4787 46.5794C20.5402 46.0331 20.274 45.3416 19.8829 45.0315C19.7304 44.9104 19.6344 44.9181 19.4729 45.0642ZM20.2604 48.5422C19.8162 48.8797 19.3662 49.3124 19.2604 49.5039C19.04 49.9026 19.0752 50.4913 19.321 50.519C19.4999 50.5392 20.6911 49.9698 22.0555 49.212L22.9054 48.74L22.5346 48.3961C22.2767 48.157 21.9969 48.0334 21.6158 47.9905C21.1218 47.9349 20.9885 47.9891 20.2604 48.5422ZM16.2194 49.0895C15.7555 49.649 14.3517 51.4895 14.3452 51.5465C14.3017 51.9327 16.0602 50.7961 16.4818 50.1654C16.7177 49.8127 16.7612 49.0451 16.5545 48.8828C16.4999 48.84 16.3492 48.9329 16.2194 49.0895ZM17.1143 51.143C16.5761 51.4013 15.4256 52.3606 15.6268 52.3832C15.8262 52.4057 18.1779 51.2485 18.193 51.1204C18.2149 50.938 17.5106 50.9527 17.1143 51.143Z" fill="black"/>
</svg>
