<svg width="129" height="98" viewBox="0 0 129 98" fill="none" xmlns="http://www.w3.org/2000/svg">
<path fill-rule="evenodd" clip-rule="evenodd" d="M31.2515 76.1569C31.2515 74.4554 32.7171 73.0732 34.5216 73.0732C36.3261 73.0732 37.7917 74.4554 37.7917 76.1569C37.7917 77.8584 36.3281 79.2425 34.5216 79.2425C32.7151 79.2425 31.2515 77.8604 31.2515 76.1569Z" fill="#51965E"/>
<path fill-rule="evenodd" clip-rule="evenodd" d="M52.1854 87.3685H16.8598V65.4176C16.8669 65.0554 17.0133 64.7099 17.2684 64.4531C17.5235 64.1964 17.8677 64.0482 18.2292 64.0395H50.814C50.9956 64.0354 51.1761 64.0682 51.3446 64.136C51.5131 64.2039 51.6662 64.3053 51.7944 64.4342C51.9226 64.563 52.0234 64.7166 52.0906 64.8857C52.1578 65.0547 52.1901 65.2357 52.1854 65.4176V87.3685ZM65.4924 76.1469V72.1111H58.7457V66.4019C58.7457 57.3439 51.7985 51.3354 42.2087 49.2723L34.5757 55.2768L26.6481 49.1739C17.1565 50.6504 10.4078 55.5721 10.4078 66.4019V72.1111H3.55078V76.1469H13.728V79.8875H12.0639C11.7821 79.8763 11.5017 79.933 11.2463 80.0529C10.9909 80.1728 10.768 80.3524 10.5963 80.5765C10.4427 80.8238 10.3452 81.1018 10.3105 81.3909C10.2759 81.68 10.305 81.9732 10.3958 82.2499L12.9401 89.2387C13.077 89.5731 13.306 89.8617 13.6002 90.0708C13.8945 90.2799 14.2419 90.401 14.6022 90.42H54.5353C54.887 90.4126 55.2274 90.2946 55.5085 90.0826C55.7895 89.8706 55.9969 89.5754 56.1011 89.2387L58.6454 82.2499C58.8459 81.6593 58.8459 81.0687 58.445 80.5765C58.1522 80.0843 57.5648 79.8875 57.0756 79.8875H55.3172V76.1469H65.4924Z" fill="#51965E"/>
<path fill-rule="evenodd" clip-rule="evenodd" d="M20.8638 33.1771C20.8638 30.4706 21.6648 27.8249 23.1655 25.5745C24.6663 23.3241 26.7994 21.5701 29.295 20.5344C31.7907 19.4986 34.5368 19.2276 37.1862 19.7557C39.8355 20.2837 42.2691 21.587 44.1792 23.5008C46.0893 25.4146 47.3901 27.8529 47.9171 30.5074C48.4441 33.1619 48.1736 35.9134 47.1399 38.4139C46.1061 40.9144 44.3556 43.0516 42.1096 44.5553C39.8635 46.059 37.2229 46.8615 34.5216 46.8615C30.8993 46.8615 27.4254 45.4198 24.8641 42.8535C22.3027 40.2871 20.8638 36.8065 20.8638 33.1771Z" fill="#51965E"/>
<path fill-rule="evenodd" clip-rule="evenodd" d="M92.0403 76.1569C92.0403 74.4554 93.5039 73.0732 95.3104 73.0732C97.1169 73.0732 98.5805 74.4554 98.5805 76.1569C98.5805 77.8584 97.1169 79.2425 95.3104 79.2425C93.5039 79.2425 92.0403 77.8604 92.0403 76.1569Z" fill="#51965E"/>
<path fill-rule="evenodd" clip-rule="evenodd" d="M112.972 87.3685H77.6466V65.4176C77.6537 65.055 77.8004 64.7093 78.056 64.4525C78.3115 64.1957 78.6562 64.0477 79.018 64.0395H111.603C111.784 64.0356 111.965 64.0687 112.133 64.1367C112.301 64.2046 112.454 64.3061 112.582 64.4349C112.71 64.5637 112.81 64.7173 112.878 64.8862C112.945 65.0551 112.977 65.2358 112.972 65.4176V87.3685ZM126.281 76.1469V72.1111H119.528V66.4019C119.528 57.3439 112.581 51.3354 102.991 49.2723L95.3585 55.2768L87.4329 49.1739C77.9413 50.6504 71.1926 55.5721 71.1926 66.4019V72.1111H64.3396V76.1469H74.5168V79.8875H72.8527C72.5708 79.8758 72.2903 79.9323 72.0348 80.0522C71.7794 80.1722 71.5565 80.352 71.3851 80.5765C71.2317 80.8238 71.1342 81.1018 71.0996 81.3909C71.0649 81.68 71.0939 81.9732 71.1846 82.2499L73.7289 89.2387C73.866 89.5734 74.0952 89.8622 74.3899 90.0713C74.6845 90.2804 75.0324 90.4014 75.393 90.42H115.322C115.673 90.4125 116.014 90.2944 116.294 90.0824C116.575 89.8704 116.782 89.5752 116.886 89.2387L119.43 82.2499C119.631 81.6593 119.631 81.0687 119.23 80.5765C118.935 80.0843 118.35 79.8875 117.858 79.8875H116.098V76.1469H126.281Z" fill="#51965E"/>
<path fill-rule="evenodd" clip-rule="evenodd" d="M81.6526 33.1771C81.6526 30.4706 82.4536 27.8249 83.9544 25.5745C85.4551 23.3241 87.5882 21.5701 90.0838 20.5344C92.5795 19.4986 95.3256 19.2276 97.975 19.7557C100.624 20.2837 103.058 21.587 104.968 23.5008C106.878 25.4146 108.179 27.8529 108.706 30.5074C109.233 33.1619 108.962 35.9134 107.929 38.4139C106.895 40.9144 105.144 43.0516 102.898 44.5553C100.652 46.059 98.0117 46.8615 95.3104 46.8615C91.6882 46.8615 88.2142 45.4198 85.6529 42.8535C83.0915 40.2871 81.6526 36.8065 81.6526 33.1771Z" fill="#51965E"/>
<path fill-rule="evenodd" clip-rule="evenodd" d="M68.6202 39.1354L77.837 29.3582L68.1129 20.1556L61.8775 20.3545L69.2738 27.3554L55.1267 27.7652L55.251 32.3675L69.336 31.9396L62.3747 39.3262L68.6202 39.1354Z" fill="#51965E"/>
<path fill-rule="evenodd" clip-rule="evenodd" d="M55.7723 3.31132L46.5554 13.0885L56.2815 22.2911L62.517 22.0922L55.1207 15.0913L69.2657 14.6835L69.1434 10.0792L55.0585 10.5071L62.0198 3.12249L55.7723 3.31132Z" fill="#51965E"/>
</svg>
