<svg width="32" height="33" viewBox="0 0 32 33" fill="none" xmlns="http://www.w3.org/2000/svg">
<path d="M14.6667 20.5V18.6333C14.6667 18.4211 14.5824 18.2177 14.4324 18.0676C14.2823 17.9176 14.0788 17.8333 13.8667 17.8333H12" stroke="#E93F4F" stroke-width="2" stroke-linecap="round" stroke-linejoin="round"/>
<path d="M8 17.8333H4" stroke="#E93F4F" stroke-width="2" stroke-linecap="round" stroke-linejoin="round"/>
<path d="M14.6665 24.5V28.5" stroke="#E93F4F" stroke-width="2" stroke-linecap="round" stroke-linejoin="round"/>
<path d="M27.2 4.5H4.8C4.58783 4.5 4.38434 4.58429 4.23431 4.73431C4.08429 4.88434 4 5.08783 4 5.3V27.7C4 27.9122 4.08429 28.1157 4.23431 28.2657C4.38434 28.4157 4.58783 28.5 4.8 28.5H27.2C27.4122 28.5 27.6157 28.4157 27.7657 28.2657C27.9157 28.1157 28 27.9122 28 27.7V5.3C28 5.08783 27.9157 4.88434 27.7657 4.73431C27.6157 4.58429 27.4122 4.5 27.2 4.5V4.5Z" stroke="#E93F4F" stroke-width="1.99867" stroke-miterlimit="1.5" stroke-linecap="round" stroke-linejoin="round"/>
<path d="M21.3335 15.1667H17.3335V11.1667" stroke="#E93F4F" stroke-width="2" stroke-linecap="round" stroke-linejoin="round"/>
</svg>
