<svg width="32" height="32" viewBox="0 0 32 32" fill="none" xmlns="http://www.w3.org/2000/svg">
<path d="M17 5V21.074L2.73199 25.035L3.26799 26.963L20.016 22.314C20.0965 23.5819 20.6563 24.7717 21.5819 25.642C22.5075 26.5122 23.7295 26.9977 25 27C27.757 27 30 24.757 30 22C30 19.243 27.757 17 25 17C24.0028 17.0017 23.0289 17.3014 22.2033 17.8608C21.3778 18.4201 20.7383 19.2135 20.367 20.139L19 20.518V7H30V5H17ZM12.46 9.764L1.91699 12.787L4.69199 22.471L15.237 19.445L12.462 9.764H12.46ZM11.09 12.236L12.764 18.074L6.06399 19.994L4.39099 14.158L11.09 12.236ZM25 19C26.654 19 28 20.346 28 22C28 23.654 26.654 25 25 25C23.346 25 22 23.654 22 22C22 20.346 23.346 19 25 19Z" fill="#E3861B"/>
</svg>
