<svg width="42" height="36" viewBox="0 0 42 36" fill="none" xmlns="http://www.w3.org/2000/svg">
<path d="M33.1643 7.74106C33.5381 7.7613 33.9119 7.70255 34.2634 7.56833C34.6149 7.43411 34.9369 7.22719 35.2099 6.95998C35.4829 6.69276 35.7015 6.37076 35.8524 6.01326C36.0033 5.65577 36.0835 5.27015 36.0881 4.87953C36.0883 4.09374 35.7932 3.33923 35.2662 2.77801C34.7393 2.2168 34.0225 1.89363 33.2697 1.87792C32.5387 1.87233 31.8346 2.16542 31.308 2.69455C30.7813 3.22367 30.4738 3.94683 30.4513 4.70944C30.425 5.09776 30.4756 5.48758 30.6001 5.85456C30.7246 6.22153 30.9202 6.55777 31.1748 6.84228C31.4294 7.12678 31.7375 7.35343 32.0798 7.50808C32.4221 7.66272 32.7913 7.74203 33.1643 7.74106ZM20.8362 20.608C21.4718 20.608 22.0814 20.3444 22.5308 19.8753C22.9803 19.4062 23.2328 18.77 23.2328 18.1066C23.2328 17.4432 22.9803 16.807 22.5308 16.3379C22.0814 15.8688 21.4718 15.6053 20.8362 15.6053C20.2006 15.6053 19.591 15.8688 19.1415 16.3379C18.6921 16.807 18.4396 17.4432 18.4396 18.1066C18.4396 18.77 18.6921 19.4062 19.1415 19.8753C19.591 20.3444 20.2006 20.608 20.8362 20.608ZM9.22709 6.39034C10.002 6.39849 10.749 6.08832 11.3067 5.52677C11.8645 4.96522 12.1884 4.1973 12.2084 3.38873C12.2266 2.97288 12.1637 2.55751 12.0233 2.16785C11.883 1.77819 11.6682 1.42236 11.3921 1.12199C11.1159 0.821611 10.7842 0.582953 10.417 0.420507C10.0497 0.258061 9.65469 0.175217 9.25584 0.177006C8.86939 0.162207 8.48405 0.228905 8.12287 0.373109C7.76168 0.517314 7.43207 0.736065 7.15375 1.01628C6.87543 1.29649 6.65411 1.63241 6.50303 2.00395C6.35195 2.37548 6.27422 2.775 6.27448 3.17862C6.2549 3.59481 6.31692 4.0108 6.45676 4.40111C6.59659 4.79142 6.8113 5.14782 7.08771 5.4485C7.36413 5.74918 7.69645 5.9878 8.06431 6.14974C8.43218 6.31169 8.82785 6.39356 9.22709 6.39034ZM41.0155 18.747C40.2678 16.0555 39.5105 13.3641 38.5998 10.7427C38.411 10.1448 38.0329 9.63182 37.5276 9.28812C37.0223 8.94443 36.42 8.79049 35.8197 8.85166C34.075 8.91169 32.3207 8.90168 30.5664 8.85166C30.1267 8.82245 29.6875 8.9154 29.2934 9.12104C28.8994 9.32668 28.5646 9.63765 28.3232 10.0223C27.9753 10.5516 27.704 11.1315 27.5179 11.7432C26.9235 13.6342 26.3963 15.5553 25.8019 17.4463C25.6677 17.8665 25.4281 18.4468 25.1213 18.5869C24.1627 18.847 23.8463 19.5874 23.3862 20.3078C23.0794 20.7881 22.7439 21.4884 22.3029 21.6085C21.4097 21.8464 20.4778 21.8805 19.5708 21.7085C19.0723 21.6085 18.6122 20.9782 18.2575 20.4879C17.6919 19.6574 17.2988 18.6569 16.1005 18.4868V16.6458C16.1005 14.9249 16.1005 13.204 16.1005 11.4831C16.1429 10.9111 16.067 10.3363 15.8779 9.79762C15.6889 9.25894 15.391 8.76899 15.0046 8.36097C14.6183 7.95295 14.1523 7.6364 13.6385 7.43277C13.1246 7.22914 12.5748 7.1432 12.0263 7.18076C10.2432 7.18076 8.441 7.18076 6.63876 7.18076C3.82995 7.2608 2.43993 8.77161 2.37282 11.7532C2.37282 14.0144 2.37282 16.2756 2.37282 18.5368C2.41487 19.0675 2.48528 19.5953 2.58372 20.1177C2.69137 20.6806 2.72363 21.2564 2.67959 21.8286C2.04689 25.6407 1.34708 29.4427 0.666449 33.2547C0.567435 33.6158 0.519001 33.9898 0.522653 34.3653C0.522653 34.5654 0.771899 34.7956 0.963627 34.8956C1.15535 34.9957 1.37584 34.7455 1.42377 34.5955C1.58014 34.14 1.69881 33.6713 1.77847 33.1947C2.44952 29.5427 3.0918 25.8908 3.77244 22.2488C3.84282 21.6651 4.04308 21.1065 4.3572 20.618C4.7783 20.0707 4.98396 19.3767 4.93239 18.6769C4.93239 16.896 4.93239 15.125 4.93239 13.3441C4.96399 13.0211 5.02826 12.7024 5.12411 12.3936H5.49798V32.1942C5.4786 32.7294 5.50749 33.2654 5.58426 33.795C5.64324 34.2006 5.84477 34.5687 6.14959 34.8276C6.4544 35.0866 6.84066 35.2178 7.23312 35.1958C7.62433 35.221 8.01059 35.0937 8.317 34.8386C8.62342 34.5835 8.82817 34.2187 8.89156 33.815C8.96031 33.3383 8.98599 32.856 8.96825 32.3743C8.96825 29.2426 8.96825 26.1209 8.96825 22.9992C8.96825 22.499 9.02577 21.9987 9.05453 21.4884H9.51468V23.0793C9.51468 26.201 9.51468 29.3226 9.51468 32.4443C9.49451 32.9277 9.53317 33.4118 9.62971 33.8851C9.71064 34.2878 9.93196 34.6449 10.2508 34.8871C10.5696 35.1292 10.9632 35.2392 11.3553 35.1958C11.7558 35.2157 12.1484 35.0742 12.4518 34.8004C12.7551 34.5266 12.946 34.1416 12.9849 33.725C13.0232 33.2422 13.0232 32.757 12.9849 32.2742C12.9849 26.191 12.9849 20.1077 12.9849 14.0244C12.9178 13.696 12.9309 13.3553 13.023 13.0336C13.1151 12.7118 13.2834 12.4195 13.5122 12.1834C13.5122 13.0239 13.5889 13.5942 13.5889 14.1845C13.5889 15.8554 13.5889 17.5263 13.5889 19.1872C13.5889 20.3678 14.0011 20.668 15.1227 20.708H15.9471C16.4456 21.6385 16.9058 22.609 17.4522 23.5095C17.7344 23.962 17.9132 24.4761 17.9747 25.0122C18.0362 25.5483 17.9788 26.0919 17.8069 26.6012C17.4905 27.7218 17.2413 28.8724 16.9441 30.1231C17.989 30.3832 18.0657 31.1236 18.037 32.0041C18.0048 32.7382 18.0563 33.4738 18.1903 34.1952C18.2367 34.418 18.341 34.6231 18.4917 34.788C18.6424 34.953 18.8337 35.0714 19.0447 35.1303C19.2556 35.1892 19.478 35.1864 19.6875 35.122C19.897 35.0577 20.0855 34.9343 20.2322 34.7655C20.4814 34.3753 20.627 33.923 20.654 33.4548C20.7212 32.7345 20.654 32.0041 20.654 31.2737C20.8525 32.1183 20.9491 32.9855 20.9416 33.8551C21.0183 34.7655 21.4689 35.1758 22.207 35.1858C22.9452 35.1958 23.367 34.7756 23.4341 33.8551C23.4868 33.2092 23.4868 32.5599 23.4341 31.914C23.367 31.0335 23.5108 30.3232 24.5941 30.1231C24.2585 28.7723 23.9038 27.5417 23.6354 26.291C23.4631 25.6803 23.4631 25.0307 23.6354 24.42C24.2106 23.0593 24.9679 21.7786 25.6102 20.5479C27.4508 20.648 27.6329 20.5479 28.1314 18.9271C28.2944 18.4168 28.4478 17.9265 28.5916 17.3862C28.9654 16.0955 29.3393 14.7948 29.7036 13.4941L30.0008 13.5842C29.0421 17.3962 28.026 21.1983 27.0098 25.1504L29.8857 25.5506V28.5522C29.8857 30.2231 29.8857 31.894 29.8857 33.5549C29.8683 33.775 29.897 33.9964 29.9699 34.2037C30.0427 34.4111 30.158 34.5993 30.3076 34.7555C30.4572 34.9117 30.6376 35.0319 30.8362 35.108C31.0349 35.184 31.247 35.214 31.4579 35.1958C32.3494 35.1958 32.8959 34.6355 33.0301 33.5549C33.0541 33.1785 33.0541 32.8007 33.0301 32.4243C33.0301 30.5433 33.0301 28.6623 33.0301 26.7713C33.0493 26.4357 33.0877 26.1016 33.1451 25.7707H33.4615V27.4816C33.4615 29.4827 33.4615 31.5738 33.4615 33.6249C33.4374 33.8147 33.4512 34.0077 33.5019 34.1917C33.5526 34.3757 33.6391 34.5467 33.7561 34.6942C33.8731 34.8417 34.018 34.9623 34.1818 35.0486C34.3455 35.1349 34.5245 35.185 34.7077 35.1958C35.0314 35.3048 35.3824 35.2842 35.6925 35.1381C36.0025 34.9921 36.2495 34.7309 36.3853 34.4054C36.5548 33.9007 36.6391 33.3692 36.6345 32.8345C36.6345 31.0035 36.6345 29.1725 36.6345 27.3416C36.6345 26.7613 36.6921 26.1809 36.7304 25.5606L39.4817 25.1904C38.4464 21.1883 37.4398 17.3062 36.4428 13.4441C36.8199 13.9019 37.0862 14.4475 37.2193 15.035C37.6507 16.5258 38.0437 18.0366 38.5326 19.5074C38.849 20.4579 39.4913 20.7981 40.1719 20.598C40.3501 20.544 40.5154 20.4513 40.6567 20.3258C40.7981 20.2004 40.9124 20.0451 40.9921 19.8703C41.0718 19.6954 41.1151 19.5048 41.1192 19.3112C41.1232 19.1176 41.0879 18.9253 41.0155 18.747Z" fill="white"/>
</svg>
