<svg width="66" height="34" viewBox="0 0 66 34" fill="none" xmlns="http://www.w3.org/2000/svg">
<path d="M20.7048 25.9099C20.2768 25.6828 19.8744 25.4111 19.5045 25.0993C18.6162 24.1934 18.7843 23.4782 20.0086 23.1087C21.8571 22.5723 23.7296 22.0836 25.5901 21.571C26.5144 21.3207 27.4386 21.0227 28.3869 20.8201C29.7312 20.5102 30.2474 20.9274 30.0673 22.2743C29.8393 23.9789 29.5032 25.6715 29.2151 27.3641C29.035 28.4489 28.879 29.5336 28.6749 30.6064C28.3869 32.0725 27.7987 32.299 26.6224 31.4169L25.338 30.4514C23.7209 31.2703 22.0388 31.956 20.3087 32.5016C12.0985 34.4208 4.40437 31.4169 1.06746 23.3352C0.752384 22.5712 0.538538 21.7698 0.431291 20.9512C-0.216885 16.4335 -0.0848489 11.9993 2.23178 7.83922C3.12445 6.23996 4.32612 4.83134 5.76794 3.69407C7.20976 2.55681 8.86338 1.71324 10.6341 1.21172C14.0561 0.0895016 17.7508 0.0895016 21.1729 1.21172C23.1997 1.85932 25.0766 2.90065 26.6944 4.27515C29.8804 7.14013 32.5088 10.5624 34.4485 14.3714C35.3848 16.0878 36.261 17.852 37.2813 19.5208C38.7251 22.0269 40.7913 24.1239 43.2829 25.6119C45.6548 27.1454 48.487 27.8191 51.3011 27.5191C52.6089 27.4049 53.8672 26.9677 54.9615 26.2474C56.0558 25.5271 56.9514 24.5465 57.5668 23.3948C58.5531 21.5507 59.1006 19.5066 59.1672 17.4195C59.2338 15.3325 58.8177 13.258 57.9509 11.3556C56.6305 8.2445 53.8818 6.90947 50.7489 6.25387C49.2225 5.97752 47.6528 6.04848 46.158 6.46141C44.6632 6.87433 43.2821 7.61847 42.1186 8.63786C40.8671 9.70417 39.6994 10.8638 38.6256 12.1066C38.2896 12.4523 38.0375 12.8814 37.7014 13.2032C37.6227 13.3139 37.5184 13.4042 37.3972 13.4665C37.2761 13.5289 37.1417 13.5614 37.0052 13.5614C36.8688 13.5614 36.7343 13.5289 36.6132 13.4665C36.492 13.4042 36.3877 13.3139 36.309 13.2032C35.5021 11.9589 34.7609 10.6738 34.0884 9.35306C34.0422 9.17144 34.0376 8.98184 34.075 8.79823C34.1124 8.61462 34.1908 8.44168 34.3045 8.29218C37.8334 3.72683 42.2986 0.663401 48.1922 0.425002C50.5915 0.252213 52.9988 0.627569 55.2293 1.52227C57.4599 2.41696 59.4543 3.80722 61.0597 5.58635C63.2557 8.09659 64.5738 11.2457 64.8167 14.5621C65.4264 18.6756 64.6275 22.8733 62.5481 26.4821C61.4488 28.4093 59.8879 30.0377 58.0035 31.2228C56.1192 32.4079 53.9696 33.1133 51.7452 33.2764C45.1674 33.8963 39.898 31.2977 35.4568 26.7562C33.2865 24.3112 31.4613 21.5843 30.0313 18.6506C28.753 16.3009 27.3424 14.0246 25.8062 11.8324C24.8382 10.2943 23.536 8.99069 21.9949 8.01717C20.4538 7.04365 18.7129 6.42488 16.8998 6.20619C12.2305 5.77707 6.81702 8.23258 6.09683 14.4548C6.02473 15.8286 6.02473 17.2053 6.09683 18.5791C6.20259 20.9495 7.2322 23.1863 8.96809 24.8167C10.704 26.4471 13.0102 27.3435 15.3993 27.3165C16.5109 27.3046 17.6194 27.1969 18.7122 26.9946C19.3269 26.8244 19.9253 26.601 20.5007 26.3271C20.5728 26.1841 20.6448 26.0529 20.7048 25.9099Z" fill="white"/>
</svg>
