<svg width="42" height="45" viewBox="0 0 42 45" fill="none" xmlns="http://www.w3.org/2000/svg">
<path d="M38.9117 10.1266C38.3105 10.5685 37.9132 10.7948 37.5911 11.0966C34.9607 13.5752 32.3517 16.0862 29.7105 18.5541C29.4374 18.7981 29.2209 19.0991 29.0762 19.4361C28.9315 19.7731 28.8621 20.1379 28.873 20.5047C28.873 27.9084 28.873 35.312 28.873 42.7157C28.873 43.9658 28.9589 44.0412 30.2258 44.052H37.677C38.9976 44.052 39.062 43.9766 39.062 42.6187C39.062 32.2945 39.062 21.9739 39.062 11.6569C39.0728 11.2474 38.9869 10.8379 38.9117 10.1266ZM26.3929 22.5307C25.1152 22.9618 24.5569 23.9533 23.7839 24.6861C23.0109 25.4189 22.1949 26.2703 21.3574 27.1216C20.9495 26.7337 20.6166 26.4427 20.2838 26.141C19.3926 25.2465 18.523 24.3305 17.6211 23.4468C17.2847 23.1849 16.9253 22.954 16.5475 22.757C16.4787 23.1598 16.4356 23.5666 16.4186 23.9748C16.4186 30.2469 16.4186 36.5298 16.4186 42.8019C16.4186 43.9658 16.5152 44.0412 17.7177 44.052H25.3192C26.5003 44.052 26.6076 43.9442 26.6076 42.7803C26.6076 36.4077 26.6076 30.0422 26.6076 23.6838C26.5701 23.2939 26.4982 22.908 26.3929 22.5307ZM41.9395 0.265869C39.5022 0.750825 37.1402 1.21423 34.5527 1.99016L36.0129 3.70367L21.1105 18.5864C18.8666 16.4311 16.6548 14.0709 14.3142 11.894C12.8755 12.8639 1.28005 24.5675 0.850586 25.4512C1.46394 26.2613 2.23004 26.9424 3.10527 27.4557L14.1854 16.4311L21.3252 23.533C27.1981 17.7782 32.8456 12.0018 38.5037 6.39787C39.4378 6.73195 39.6848 7.74497 40.5759 7.72341C41.3597 5.99913 42.2401 1.24656 41.9395 0.265869ZM13.9277 22.7463C13.9277 22.2721 13.9277 21.8087 13.8633 21.3453L13.5197 21.1405C13.1029 21.3996 12.7047 21.6877 12.328 22.0027C9.76194 24.4167 7.21737 26.8846 4.6406 29.2878C4.31673 29.5765 4.06172 29.9347 3.89446 30.3358C3.72719 30.7369 3.65195 31.1706 3.6743 31.6048C3.6743 35.2581 3.6743 38.9222 3.6743 42.5864C3.6743 42.7588 3.6743 42.9312 3.6743 43.1144C3.6743 43.7718 4.00714 44.052 4.6406 44.052C7.3999 44.052 10.1485 44.052 12.897 44.052C13.7452 44.052 13.8418 43.8903 13.9063 43.0282C13.9063 42.8127 13.9063 42.5864 13.9063 42.3708C13.9277 35.8544 13.9349 29.3129 13.9277 22.7463Z" fill="white"/>
</svg>
