<svg width="366" height="639" viewBox="0 0 366 639" fill="none" xmlns="http://www.w3.org/2000/svg">
<g opacity="0.2">
<path d="M1 1L366 545.5" stroke="black"/>
<path d="M2 -3L367 541.5" stroke="black"/>
<path d="M3 -7L368 537.5" stroke="black"/>
<path d="M4 -11L369 533.5" stroke="black"/>
<path d="M5 -15L370 529.5" stroke="black"/>
<path d="M6 -19L371 525.5" stroke="black"/>
<path d="M7 -23L372 521.5" stroke="black"/>
<path d="M8 -27L373 517.5" stroke="black"/>
<path d="M9 -31L374 513.5" stroke="black"/>
<path d="M10 -35L375 509.5" stroke="black"/>
<path d="M11 -39L376 505.5" stroke="black"/>
<path d="M12 -43L377 501.5" stroke="black"/>
<path d="M13 -47L378 497.5" stroke="black"/>
<path d="M14 -51L379 493.5" stroke="black"/>
<path d="M15 -55L380 489.5" stroke="black"/>
<path d="M16 -59L381 485.5" stroke="black"/>
<path d="M17 -63L382 481.5" stroke="black"/>
<path d="M18 -67L383 477.5" stroke="black"/>
<path d="M19 -71L384 473.5" stroke="black"/>
<path d="M20 -75L385 469.5" stroke="black"/>
<path d="M21 -79L386 465.5" stroke="black"/>
<path d="M22 -83L387 461.5" stroke="black"/>
<path d="M23 -87L388 457.5" stroke="black"/>
<path d="M24 -91L389 453.5" stroke="black"/>
<path d="M25 -95L390 449.5" stroke="black"/>
<path d="M26 -99L391 445.5" stroke="black"/>
<path d="M27 -103L392 441.5" stroke="black"/>
<path d="M28 -107L393 437.5" stroke="black"/>
<path d="M29 -111L394 433.5" stroke="black"/>
<path d="M30 -115L395 429.5" stroke="black"/>
<path d="M31 -119L396 425.5" stroke="black"/>
<path d="M32 -123L397 421.5" stroke="black"/>
<path d="M33 -127L398 417.5" stroke="black"/>
<path d="M34 -131L399 413.5" stroke="black"/>
<path d="M35 -135L400 409.5" stroke="black"/>
<path d="M36 -139L401 405.5" stroke="black"/>
<path d="M37 -143L402 401.5" stroke="black"/>
<path d="M38 -147L403 397.5" stroke="black"/>
<path d="M39 -151L404 393.5" stroke="black"/>
<path d="M40 -155L405 389.5" stroke="black"/>
<path d="M41 -159L406 385.5" stroke="black"/>
<path d="M42 -163L407 381.5" stroke="black"/>
<path d="M43 -167L408 377.5" stroke="black"/>
<path d="M44 -171L409 373.5" stroke="black"/>
<path d="M45 -175L410 369.5" stroke="black"/>
<path d="M46 -179L411 365.5" stroke="black"/>
<path d="M47 -183L412 361.5" stroke="black"/>
<path d="M48 -187L413 357.5" stroke="black"/>
<path d="M49 -191L414 353.5" stroke="black"/>
<path d="M50 -195L415 349.5" stroke="black"/>
<path d="M51 -199L416 345.5" stroke="black"/>
</g>
<g opacity="0.2">
<path d="M16 777.855L367.831 253" stroke="#EA312C" stroke-width="0.96392"/>
<path d="M16.9639 781.71L368.795 256.856" stroke="#EA312C" stroke-width="0.96392"/>
<path d="M17.928 785.566L369.759 260.711" stroke="#EA312C" stroke-width="0.96392"/>
<path d="M18.8918 789.422L370.723 264.567" stroke="#EA312C" stroke-width="0.96392"/>
<path d="M19.8557 793.277L371.687 268.423" stroke="#EA312C" stroke-width="0.96392"/>
<path d="M20.8196 797.133L372.65 272.278" stroke="#EA312C" stroke-width="0.96392"/>
<path d="M21.7834 800.989L373.614 276.134" stroke="#EA312C" stroke-width="0.96392"/>
<path d="M22.7476 804.844L374.578 279.99" stroke="#EA312C" stroke-width="0.96392"/>
<path d="M23.7114 808.7L375.542 283.845" stroke="#EA312C" stroke-width="0.96392"/>
<path d="M24.6753 812.556L376.506 287.701" stroke="#EA312C" stroke-width="0.96392"/>
<path d="M25.6392 816.411L377.47 291.557" stroke="#EA312C" stroke-width="0.96392"/>
<path d="M26.603 820.267L378.434 295.412" stroke="#EA312C" stroke-width="0.96392"/>
<path d="M27.5671 824.123L379.398 299.268" stroke="#EA312C" stroke-width="0.96392"/>
<path d="M28.531 827.978L380.362 303.124" stroke="#EA312C" stroke-width="0.96392"/>
<path d="M29.4949 831.834L381.326 306.979" stroke="#EA312C" stroke-width="0.96392"/>
<path d="M30.4587 835.69L382.29 310.835" stroke="#EA312C" stroke-width="0.96392"/>
<path d="M31.4226 839.545L383.253 314.691" stroke="#EA312C" stroke-width="0.96392"/>
<path d="M32.3867 843.401L384.218 318.546" stroke="#EA312C" stroke-width="0.96392"/>
<path d="M33.3506 847.257L385.181 322.402" stroke="#EA312C" stroke-width="0.96392"/>
<path d="M34.3145 851.112L386.145 326.258" stroke="#EA312C" stroke-width="0.96392"/>
<path d="M35.2786 854.968L387.109 330.114" stroke="#EA312C" stroke-width="0.96392"/>
<path d="M36.2422 858.824L388.073 333.969" stroke="#EA312C" stroke-width="0.96392"/>
<path d="M37.2061 862.68L389.037 337.825" stroke="#EA312C" stroke-width="0.96392"/>
<path d="M38.1702 866.535L390.001 341.681" stroke="#EA312C" stroke-width="0.96392"/>
<path d="M39.134 870.391L390.965 345.536" stroke="#EA312C" stroke-width="0.96392"/>
<path d="M40.0981 874.247L391.929 349.392" stroke="#EA312C" stroke-width="0.96392"/>
<path d="M41.062 878.102L392.893 353.248" stroke="#EA312C" stroke-width="0.96392"/>
<path d="M42.0259 881.958L393.857 357.103" stroke="#EA312C" stroke-width="0.96392"/>
<path d="M42.9897 885.814L394.821 360.959" stroke="#EA312C" stroke-width="0.96392"/>
<path d="M43.9536 889.669L395.784 364.815" stroke="#EA312C" stroke-width="0.96392"/>
<path d="M44.9177 893.525L396.749 368.67" stroke="#EA312C" stroke-width="0.96392"/>
<path d="M45.8816 897.381L397.712 372.526" stroke="#EA312C" stroke-width="0.96392"/>
<path d="M46.8455 901.236L398.676 376.382" stroke="#EA312C" stroke-width="0.96392"/>
<path d="M47.8093 905.092L399.64 380.237" stroke="#EA312C" stroke-width="0.96392"/>
<path d="M48.7732 908.948L400.604 384.093" stroke="#EA312C" stroke-width="0.96392"/>
<path d="M49.7373 912.803L401.568 387.949" stroke="#EA312C" stroke-width="0.96392"/>
<path d="M50.7012 916.659L402.532 391.804" stroke="#EA312C" stroke-width="0.96392"/>
<path d="M51.665 920.515L403.496 395.66" stroke="#EA312C" stroke-width="0.96392"/>
<path d="M52.6289 924.37L404.46 399.516" stroke="#EA312C" stroke-width="0.96392"/>
<path d="M53.5928 928.226L405.424 403.372" stroke="#EA312C" stroke-width="0.96392"/>
<path d="M54.5566 932.082L406.388 407.227" stroke="#EA312C" stroke-width="0.96392"/>
<path d="M55.5208 935.937L407.352 411.083" stroke="#EA312C" stroke-width="0.96392"/>
<path d="M56.4846 939.793L408.315 414.939" stroke="#EA312C" stroke-width="0.96392"/>
<path d="M57.4487 943.649L409.28 418.794" stroke="#EA312C" stroke-width="0.96392"/>
<path d="M58.4126 947.504L410.243 422.65" stroke="#EA312C" stroke-width="0.96392"/>
<path d="M59.3762 951.36L411.207 426.506" stroke="#EA312C" stroke-width="0.96392"/>
<path d="M60.3403 955.216L412.171 430.361" stroke="#EA312C" stroke-width="0.96392"/>
<path d="M61.3042 959.072L413.135 434.217" stroke="#EA312C" stroke-width="0.96392"/>
<path d="M62.2681 962.927L414.099 438.073" stroke="#EA312C" stroke-width="0.96392"/>
<path d="M63.2322 966.783L415.063 441.928" stroke="#EA312C" stroke-width="0.96392"/>
<path d="M64.196 970.639L416.027 445.784" stroke="#EA312C" stroke-width="0.96392"/>
</g>
</svg>
