<svg width="48" height="43" viewBox="0 0 48 43" fill="none" xmlns="http://www.w3.org/2000/svg">
<path d="M45.9824 21.4653C38.7346 21.4653 31.4983 21.4653 24.2277 21.4653H23.5407C16.4761 21.4653 9.41155 21.4653 2.34699 21.4653C1.202 21.4653 0.663861 21.7524 1.01881 23.0087C1.34766 24.3829 1.7607 25.7337 2.25539 27.0525C3.48813 30.0357 5.30308 32.7173 7.58418 34.9257C9.86528 37.1342 12.5623 38.8209 15.5029 39.8781C16.167 40.1413 16.7624 40.2729 16.6479 41.2779C16.6479 41.577 17.3005 42.1991 17.6669 42.1991C22.1438 42.1991 26.6321 42.1991 31.109 42.1991C31.3335 42.14 31.5393 42.0205 31.706 41.8526C31.8727 41.6847 31.9945 41.4742 32.0594 41.242C32.0594 40.4284 32.4143 40.1293 33.0326 39.7704C35.4739 38.5677 37.8175 37.1593 40.0399 35.559C43.8239 32.4619 46.423 28.0528 47.3678 23.1283C47.7228 21.6567 47.2075 21.4533 45.9824 21.4653ZM15.6059 19.4792L16.9914 19.551C18.6058 19.551 18.7088 19.4553 18.7775 17.7205C18.8691 15.4354 17.8043 13.6886 16.5677 11.9299C15.8485 10.9797 15.326 9.88376 15.0334 8.71152C14.744 6.71768 15.1768 4.68272 16.2471 3.00463C16.6708 2.23893 17.0486 1.34162 16.0639 0.791266C15.8754 0.662541 15.6628 0.577405 15.4402 0.541562C15.2176 0.505719 14.9903 0.519999 14.7735 0.583443C14.5566 0.646887 14.3553 0.75803 14.1829 0.909424C14.0105 1.06082 13.8711 1.24897 13.7739 1.46126C11.7931 4.76336 10.7626 9.57294 13.8655 13.1981C14.6652 13.9879 15.2482 14.9867 15.5542 16.0911C15.8602 17.1954 15.878 18.3652 15.6059 19.4792ZM33.6509 19.4792C34.2463 19.4792 34.6928 19.5391 35.1394 19.5391C36.7767 19.5391 36.8569 19.4433 36.8798 17.6846C36.8923 16.6406 36.7053 15.6044 36.3298 14.6368C35.9543 13.6692 35.3978 12.7896 34.6928 12.0495C34.0248 11.3644 33.5346 10.5129 33.2682 9.57529C33.0018 8.63765 32.968 7.64462 33.17 6.68958C33.4562 5.27781 34.1432 4.0814 34.4638 2.69356C34.5198 2.06316 34.4694 1.42739 34.315 0.815194C33.6165 0.910907 32.5632 0.719481 32.254 1.12626C30.1472 3.97372 28.8191 9.19009 31.8418 12.9588C33.3761 14.8491 34.5211 16.7753 33.6509 19.4792ZM24.6284 19.551C25.1657 19.5073 25.7055 19.5073 26.2428 19.551C27.468 19.7664 27.8573 19.1083 27.8687 17.9598C27.8877 16.1504 27.3454 14.3833 26.323 12.9229C25.4953 11.873 24.8024 10.7147 24.262 9.47722C23.4376 7.0844 24.262 4.90693 25.407 2.83713C25.8077 2.09536 26.0711 1.40144 25.3268 0.851086C25.1584 0.701951 24.9609 0.59287 24.7482 0.531401C24.5354 0.469933 24.3123 0.457548 24.0945 0.495105C23.8766 0.532662 23.6692 0.619262 23.4866 0.748904C23.304 0.878546 23.1505 1.04813 23.0369 1.2459C21.0217 4.51211 19.8653 9.04652 22.6361 12.6597C24.1933 14.7295 25.407 16.7155 24.6284 19.551Z" fill="white"/>
</svg>
