<svg width="33" height="43" viewBox="0 0 33 43" fill="none" xmlns="http://www.w3.org/2000/svg">
<path d="M32.3888 1.44903C32.3814 0.710747 32.2176 0.539228 31.4135 0.539228C28.5841 0.539228 25.7473 0.539228 22.9105 0.539228C22.7528 0.524987 22.5941 0.550629 22.4489 0.613801C22.2925 0.710747 22.084 0.874809 22.0766 1.02396C21.9311 2.12685 21.9739 3.2465 22.2032 4.33502H25.4569L25.5761 4.60349L21.8755 8.29488L20.8629 7.69084C18.0724 5.90393 14.6979 5.27288 11.4516 5.9309C8.82439 6.42463 6.41431 7.7211 4.55252 9.64216C2.69073 11.5632 1.46859 14.0146 1.05404 16.6595C0.63949 19.3043 1.05287 22.0128 2.23739 24.4129C3.4219 26.8129 5.31941 28.7867 7.66919 30.0629C8.82413 30.6 10.016 31.0536 11.2357 31.4202C11.5633 31.5395 12.0249 31.5171 12.0398 31.9869C12.1862 32.9833 12.1228 33.9994 11.8537 34.9699C10.9527 34.9699 10.0816 34.9699 9.21045 34.9699C8.22762 34.9699 8.14572 35.0966 8.12338 36.1034C8.12338 36.7373 8.12338 37.3786 8.12338 38.0199C8.12338 38.9372 8.23506 39.0192 9.18067 39.049C10.1263 39.0789 10.9974 39.049 11.9207 39.049C11.9906 39.2758 12.0429 39.5077 12.077 39.7426C12.077 40.3839 12.077 41.0252 12.077 41.6666C12.077 42.7553 12.1738 42.8299 13.2237 42.8597C13.7821 42.8597 14.3405 42.8597 14.9064 42.8597C16.0679 42.8597 16.1349 42.7777 16.1498 41.6442C16.1498 40.8239 16.1498 39.9961 16.1498 39.0863C16.7008 39.0863 17.088 39.0192 17.4752 39.0117C18.0336 39.0117 18.5995 39.0117 19.1579 39.0117C20.0067 38.9745 20.096 38.8924 20.1258 38.0125C20.1258 37.3363 20.1258 36.6577 20.1258 35.9766C20.1258 35.0668 19.9918 34.9699 19.0611 34.9326C18.5027 34.9326 17.9442 34.9326 17.3858 34.9326C17.0061 34.9326 16.6412 34.8729 16.2392 34.8431V31.5469C20.781 30.4731 24.1241 27.945 25.9186 23.6496C27.713 19.3541 27.095 15.2153 24.7124 11.3449C26.0079 9.73415 27.7576 8.10099 28.5841 7.78032V10.7633C29.7945 11.0298 31.0514 10.9991 32.2474 10.6738C32.2942 10.5693 32.3268 10.4589 32.3442 10.3457C32.3814 7.36271 32.4037 4.4096 32.3888 1.44903ZM13.7746 27.9972C11.9417 27.9678 10.1582 27.3965 8.64848 26.355C7.13871 25.3135 5.96997 23.8483 5.2891 22.1435C4.60824 20.4388 4.44562 18.5705 4.8217 16.7734C5.19777 14.9764 6.09575 13.3307 7.40281 12.0433C8.70986 10.7559 10.3677 9.88405 12.1679 9.53742C13.9682 9.19079 15.8306 9.38481 17.5211 10.0951C19.2116 10.8054 20.6548 12.0002 21.6693 13.5295C22.6838 15.0588 23.2245 16.8543 23.2232 18.6904C23.2194 19.9235 22.9717 21.1436 22.4945 22.2803C22.0173 23.4169 21.32 24.4477 20.4429 25.313C19.5658 26.1782 18.5263 26.861 17.3843 27.3217C16.2424 27.7824 15.0206 28.012 13.7895 27.9972H13.7746ZM9.27001 17.9745C12.422 17.9745 15.5715 17.9745 18.7186 17.9745C19.0983 17.9745 19.4632 17.8925 19.9024 17.8478V14.7082C19.3366 14.7082 18.9047 14.6336 18.4803 14.6336H9.86567C7.84044 14.6336 7.92979 14.4696 7.92979 16.6024C7.93724 17.9 7.9968 17.9671 9.27001 17.9745ZM18.4729 19.6002H9.88801C7.90745 19.6002 7.9149 19.4063 7.93724 21.5392C7.93724 22.8591 7.93724 22.8815 9.26257 22.8889C12.4046 22.8889 15.5467 22.8889 18.6888 22.8889C19.0387 22.8889 19.3887 22.8889 19.962 22.8144C19.962 22.1581 19.962 21.651 19.962 21.1439C19.962 19.6152 19.962 19.6077 18.4729 19.6002Z" fill="white"/>
</svg>
