<svg width="116" height="84" viewBox="0 0 116 84" fill="none" xmlns="http://www.w3.org/2000/svg">
<path fill-rule="evenodd" clip-rule="evenodd" d="M34.8826 8.62427C37.3239 9.39184 39.6122 10.1594 41.9006 10.927L38.3925 5.55401L34.8826 8.62427ZM36.5611 4.80179C31.2217 4.9553 22.8292 5.26041 22.9879 5.26041C26.3392 6.17382 29.6904 7.08914 32.9002 8.0083L36.5611 4.79795V4.80179ZM51.2068 4.64828C47.5459 4.64828 43.732 4.64828 40.071 4.80179L44.793 11.9824L45.0969 12.1359L51.1992 4.65212L51.2068 4.64828ZM85.2354 7.55352C87.8277 6.78595 90.5736 6.01838 93.473 5.25082C89.6591 5.0973 85.8452 4.94571 81.8784 4.94571L85.2316 7.54968L85.2354 7.55352ZM76.3822 10.3014C78.6763 9.53384 80.8059 8.76627 83.0943 8.16181L79.7392 5.41009L76.3822 10.3014ZM72.1095 11.8365L73.4821 11.2244L78.0569 4.79795H77.1412C73.3177 4.64444 69.5115 4.64444 65.8506 4.64444L72.1057 11.8308L72.1095 11.8365ZM62.1896 10.1479H65.2484C66.1641 10.1479 67.0798 11.0651 67.0798 11.9824C67.0798 12.5945 66.621 13.2047 66.1641 13.5175L66.3151 13.9761C67.6896 13.5175 68.9093 12.9054 70.2819 12.441L64.6347 5.86871L62.1896 10.1479ZM56.5443 10.1479H60.2053L63.264 4.64444H53.801L56.5481 10.1479H56.5443ZM50.1458 14.122C50.1458 13.8169 50.1458 13.6633 50.2987 13.5118C50.0176 13.3684 49.7825 13.1482 49.6205 12.8766C49.4585 12.6051 49.3762 12.2931 49.383 11.9766C49.3895 11.4918 49.5843 11.0286 49.9261 10.6859C50.2679 10.3432 50.7295 10.1481 51.2125 10.1421H54.5695L52.4284 6.0203L46.936 12.7461L50.1458 14.122ZM63.719 24.0581C63.8719 22.6823 64.023 21.3064 63.8719 19.9324C63.7051 17.9376 63.2418 15.9791 62.4974 14.122C62.481 14.0062 62.4273 13.8991 62.3445 13.8169H54.1069L53.9539 13.9704V14.122C53.1115 15.9007 52.5935 17.8167 52.4246 19.7789C52.4246 21.3141 52.4246 22.6823 52.7304 24.0581H63.719ZM16.727 11.8308C16.7661 11.9315 16.7804 12.0402 16.7687 12.1476C16.757 12.2551 16.7196 12.3581 16.6598 12.448C16.5999 12.5378 16.5193 12.6119 16.4249 12.6638C16.3304 12.7157 16.2249 12.7439 16.1172 12.7461C15.8113 12.8996 15.3525 12.5945 15.2015 12.2894L14.7427 10.6065C14.7126 10.4961 14.7045 10.3809 14.7188 10.2674C14.7332 10.1538 14.7698 10.0443 14.8265 9.94497C14.8831 9.84566 14.9587 9.75857 15.049 9.68867C15.1393 9.61878 15.2424 9.56747 15.3525 9.53768C15.8094 9.53768 16.2663 9.68927 16.2663 10.1479L16.7251 11.8308H16.727ZM18.0996 16.7221C18.13 16.8325 18.1383 16.9478 18.124 17.0614C18.1098 17.175 18.0733 17.2847 18.0166 17.384C17.9599 17.4834 17.8841 17.5705 17.7937 17.6404C17.7033 17.7102 17.6 17.7614 17.4898 17.7909C17.3894 17.8304 17.281 17.8451 17.1738 17.8336C17.0665 17.8221 16.9636 17.7849 16.8738 17.725C16.7839 17.6651 16.7098 17.5844 16.6576 17.4897C16.6054 17.3949 16.5768 17.2889 16.5741 17.1807C16.4212 16.7221 16.2682 16.11 16.1172 15.6456C16.0868 15.5351 16.0785 15.4196 16.0927 15.3059C16.107 15.1922 16.1435 15.0824 16.2002 14.9828C16.2568 14.8833 16.3326 14.796 16.423 14.726C16.5134 14.656 16.6167 14.6046 16.727 14.5748C17.1839 14.4232 17.4917 14.7283 17.6427 15.187C17.7938 15.6456 17.9467 16.2577 18.0996 16.7221ZM19.4723 21.765C19.5027 21.8755 19.511 21.991 19.4967 22.1047C19.4825 22.2184 19.446 22.3282 19.3893 22.4278C19.3326 22.5273 19.2569 22.6146 19.1665 22.6846C19.076 22.7546 18.9727 22.806 18.8624 22.8358C18.7619 22.8749 18.6534 22.8891 18.5462 22.8773C18.439 22.8656 18.3362 22.8281 18.2464 22.7681C18.1566 22.7081 18.0826 22.6273 18.0304 22.5325C17.9782 22.4378 17.9495 22.3318 17.9467 22.2236C17.7957 21.6134 17.6427 21.1548 17.4898 20.6885C17.4339 20.4845 17.4487 20.2674 17.5317 20.0729C17.6147 19.8784 17.761 19.7179 17.9467 19.6177C18.0569 19.5875 18.172 19.5793 18.2854 19.5937C18.3987 19.6081 18.5081 19.6447 18.6074 19.7016C18.7066 19.7584 18.7937 19.8343 18.8637 19.925C18.9337 20.0156 18.9853 20.1192 19.0154 20.2299C19.1683 20.6885 19.3212 21.2987 19.4723 21.765ZM20.8468 26.8098C20.8859 26.9108 20.9001 27.0198 20.8883 27.1275C20.8764 27.2351 20.8389 27.3384 20.7789 27.4284C20.7189 27.5184 20.6381 27.5926 20.5434 27.6446C20.4487 27.6966 20.3429 27.7249 20.235 27.7271C19.7781 27.8806 19.3212 27.7271 19.1683 27.2685C19.0154 26.6582 18.8624 26.1996 18.8624 25.5875C18.7095 25.1289 18.8624 24.6702 19.3212 24.6702C19.7781 24.5167 20.235 24.6702 20.388 25.1289C20.5409 25.741 20.6939 26.1996 20.8468 26.8098ZM22.2194 31.8547C22.3723 32.1598 22.0665 32.6222 21.6096 32.7719C21.4994 32.8024 21.3842 32.8108 21.2708 32.7965C21.1573 32.7823 21.0478 32.7457 20.9485 32.6888C20.8492 32.6319 20.7621 32.5559 20.6921 32.4651C20.6222 32.3743 20.5708 32.2706 20.5409 32.1598C20.388 31.7012 20.235 31.0909 20.084 30.6246C20.084 30.166 20.235 29.7074 20.6939 29.5539C20.8041 29.5236 20.9191 29.5154 21.0325 29.5298C21.1459 29.5442 21.2553 29.5809 21.3545 29.6377C21.4538 29.6946 21.5409 29.7705 21.6109 29.8611C21.6809 29.9518 21.7324 30.0554 21.7625 30.166C21.9135 30.7762 22.0665 31.2349 22.2194 31.847V31.8547ZM23.592 36.746C23.592 37.2046 23.4391 37.6632 22.9822 37.8167C22.872 37.847 22.7569 37.8552 22.6435 37.8408C22.5302 37.8264 22.4208 37.7898 22.3215 37.7329C22.2223 37.6761 22.1352 37.6001 22.0652 37.5095C21.9952 37.4189 21.9436 37.3153 21.9135 37.2046C21.7625 36.746 21.6096 36.1339 21.4566 35.6695C21.3988 35.447 21.4308 35.2106 21.5456 35.0116C21.6604 34.8126 21.8488 34.6671 22.0699 34.6067C22.2909 34.5463 22.5267 34.5759 22.7262 34.689C22.9256 34.8021 23.0726 34.9896 23.1351 35.2109C23.2881 35.6695 23.4391 36.2797 23.592 36.746ZM24.8136 41.7908C24.9665 42.2494 24.8136 42.7081 24.3548 42.8616C23.8979 42.8616 23.4391 42.7081 23.2881 42.2494L22.8292 40.5685C22.7902 40.4676 22.776 40.3589 22.7877 40.2513C22.7994 40.1438 22.8368 40.0407 22.8966 39.9507C22.9564 39.8607 23.0369 39.7865 23.1314 39.7344C23.2258 39.6823 23.3313 39.6538 23.4391 39.6512C23.6426 39.5943 23.8594 39.6087 24.0537 39.6921C24.2479 39.7755 24.4081 39.9228 24.5077 40.1099L24.8136 41.7908ZM16.1172 18.5566C16.1172 19.0152 15.8113 19.4738 15.3525 19.4738C14.8937 19.6254 14.5878 19.3203 14.4368 18.8617L14.2839 17.1807C14.2448 17.0799 14.2306 16.9711 14.2423 16.8636C14.254 16.756 14.2914 16.6529 14.3512 16.563C14.411 16.473 14.4916 16.3988 14.586 16.3467C14.6804 16.2945 14.786 16.266 14.8937 16.2635C15.3525 16.108 15.8113 16.5686 15.9643 16.8756L16.1172 18.5585V18.5566ZM16.727 23.2944C16.727 23.753 16.4212 24.062 15.9623 24.2116C15.5035 24.2116 15.0466 23.9065 15.0466 23.4441C14.8937 22.9854 14.8937 22.3733 14.8937 21.7612C14.7408 21.3026 15.0466 20.9936 15.5035 20.8439C15.9623 20.8439 16.4192 21.151 16.4192 21.6115C16.5722 22.2217 16.5722 22.6803 16.7251 23.2925L16.727 23.2944ZM17.3369 27.8806C17.3369 28.3392 17.0329 28.7978 16.5722 28.7978C16.4716 28.8369 16.3632 28.8512 16.256 28.8394C16.1487 28.8276 16.0459 28.7902 15.9562 28.7302C15.8664 28.6702 15.7923 28.5894 15.7402 28.4946C15.688 28.3999 15.6593 28.2939 15.6565 28.1857C15.5035 27.5755 15.5035 27.1169 15.3525 26.5047C15.3525 26.0461 15.6565 25.5875 16.1172 25.5875C16.5741 25.434 17.0329 25.8926 17.0329 26.3551C17.1839 26.8137 17.1839 27.4258 17.3369 27.8902V27.8806ZM17.7957 32.6184C17.8343 32.7194 17.8482 32.8282 17.8362 32.9357C17.8241 33.0432 17.7866 33.1463 17.7266 33.2361C17.6667 33.326 17.5861 33.4002 17.4916 33.4523C17.3972 33.5044 17.2917 33.533 17.1839 33.5356C16.727 33.5356 16.2682 33.2305 16.2682 32.7681C16.1172 32.3095 16.1172 31.6973 15.9643 31.2329C15.9677 30.9977 16.0428 30.7692 16.1795 30.5781C16.3162 30.387 16.508 30.2425 16.7289 30.1641C17.1858 30.1641 17.6447 30.4692 17.6447 30.9317C17.6447 31.5438 17.7976 32.0024 17.7976 32.6126L17.7957 32.6184ZM18.4055 37.2046C18.5585 37.6632 18.0996 38.1219 17.7957 38.2754C17.5607 38.2727 17.3321 38.1977 17.141 38.0604C16.9499 37.9231 16.8054 37.7302 16.727 37.5078C16.727 36.8976 16.5741 36.439 16.5741 35.8268C16.5741 35.3682 16.88 34.9096 17.3388 34.9096C17.7976 34.9096 18.1035 35.2166 18.2545 35.6772C18.2545 36.1339 18.4074 36.746 18.4074 37.2123L18.4055 37.2046ZM19.0154 41.9443C19.0154 42.403 18.7095 42.8616 18.2507 42.8616C17.7919 42.8616 17.486 42.5546 17.335 42.094L17.182 40.5589C17.1434 40.4579 17.1295 40.3491 17.1416 40.2416C17.1536 40.1341 17.1911 40.031 17.2511 39.9411C17.311 39.8512 17.3916 39.7771 17.4861 39.725C17.5805 39.6729 17.686 39.6443 17.7938 39.6416C17.9037 39.6111 18.0186 39.6027 18.1318 39.6168C18.2451 39.631 18.3544 39.6675 18.4535 39.7242C18.5526 39.7809 18.6396 39.8567 18.7095 39.9473C18.7793 40.0378 18.8306 40.1413 18.8605 40.2519L19.0135 41.9347L19.0154 41.9443ZM12.6073 22.6823C12.6073 23.1409 12.9132 23.5995 13.372 23.5995C13.8308 23.5995 14.1367 23.2944 14.2877 22.8319L14.4406 21.2968C14.5936 20.8382 14.1347 20.3796 13.8308 20.228C13.5958 20.2306 13.3672 20.3056 13.1761 20.4429C12.985 20.5802 12.8405 20.7731 12.7621 20.9955L12.6092 22.6765L12.6073 22.6823ZM11.9974 27.7271C11.8445 28.1857 12.1504 28.4946 12.6073 28.6443C13.0642 28.6443 13.523 28.3392 13.523 27.8768C13.6759 27.2646 13.6759 26.806 13.8289 26.1958C13.8289 25.7372 13.523 25.4282 13.0642 25.2785C12.6073 25.2785 12.1504 25.5837 12.1504 26.0461C12.1504 26.5086 11.9974 27.1169 11.9974 27.7271ZM11.2328 32.6184C11.2358 32.854 11.3107 33.0829 11.4474 33.2744C11.5842 33.4659 11.7762 33.6106 11.9974 33.6892C12.4543 33.6892 12.9132 33.384 12.9132 32.9216C13.0642 32.3095 13.0642 31.8508 13.2171 31.2387C13.2171 30.7801 12.9132 30.3215 12.4524 30.3215C11.9917 30.3215 11.5367 30.6285 11.5367 31.089C11.3857 31.5476 11.3857 32.1579 11.2328 32.6242V32.6184ZM10.6229 37.6632C10.6229 38.1219 10.9269 38.5805 11.3876 38.5805C11.8445 38.734 12.1523 38.427 12.3014 37.9683C12.3014 37.3581 12.4543 36.746 12.4543 36.2874C12.4934 36.1865 12.5076 36.0778 12.4959 35.9702C12.4842 35.8627 12.4468 35.7596 12.387 35.6696C12.3272 35.5796 12.2466 35.5054 12.1522 35.4533C12.0578 35.4012 11.9522 35.3727 11.8445 35.3701C11.7343 35.3399 11.6192 35.3317 11.5059 35.3461C11.3925 35.3605 11.2831 35.3971 11.1838 35.454C11.0846 35.5108 10.9975 35.5867 10.9275 35.6774C10.8575 35.768 10.806 35.8716 10.7759 35.9823C10.7759 36.5925 10.6248 37.2046 10.6248 37.6632H10.6229ZM10.0112 42.7081C9.97256 42.8091 9.95868 42.9179 9.9707 43.0254C9.98272 43.1329 10.0203 43.2359 10.0802 43.3258C10.1402 43.4157 10.2208 43.4898 10.3152 43.5419C10.4097 43.5941 10.5152 43.6227 10.6229 43.6253C11.0798 43.6253 11.5367 43.3202 11.5367 42.8577L11.8426 41.3226C11.8426 40.864 11.5367 40.4054 11.0779 40.4054C10.621 40.2519 10.3132 40.5589 10.1622 41.0175L10.0093 42.6985L10.0112 42.7081ZM11.9974 14.7341C11.9416 14.9381 11.9564 15.1552 12.0394 15.3497C12.1224 15.5442 12.2687 15.7047 12.4543 15.8049C12.5646 15.8351 12.6796 15.8433 12.793 15.8289C12.9063 15.8145 13.0158 15.7779 13.115 15.721C13.2143 15.6642 13.3014 15.5883 13.3714 15.4976C13.4414 15.407 13.4929 15.3034 13.523 15.1927L13.9799 13.6576C14.0095 13.5465 14.017 13.4306 14.002 13.3165C13.987 13.2025 13.9498 13.0925 13.8925 12.9929C13.8351 12.8933 13.7588 12.806 13.6679 12.736C13.5769 12.666 13.4731 12.6147 13.3624 12.5849C13.2517 12.5552 13.1362 12.5476 13.0226 12.5627C12.909 12.5777 12.7994 12.6151 12.7002 12.6727C12.4998 12.7889 12.3536 12.9803 12.2938 13.2047L11.9898 14.7399L11.9974 14.7341ZM10.4681 20.2376C10.4377 20.3479 10.4294 20.4633 10.4437 20.5769C10.4579 20.6905 10.4945 20.8001 10.5512 20.8995C10.6078 20.9989 10.6836 21.086 10.774 21.1558C10.8644 21.2257 10.9677 21.2768 11.0779 21.3064C11.5348 21.3064 11.9936 21.1548 11.9936 20.6962C12.1466 20.084 12.2976 19.6254 12.4505 19.0152C12.4895 18.9144 12.5038 18.8056 12.4921 18.6981C12.4804 18.5905 12.443 18.4874 12.3832 18.3974C12.3234 18.3075 12.2428 18.2333 12.1484 18.1811C12.054 18.129 11.9484 18.1005 11.8407 18.098C11.751 18.0612 11.6545 18.044 11.5577 18.0476C11.4609 18.0513 11.366 18.0756 11.2793 18.119C11.1926 18.1625 11.1162 18.2239 11.0551 18.2994C10.994 18.3749 10.9496 18.4625 10.925 18.5566C10.772 19.1668 10.621 19.6254 10.4681 20.2376ZM8.93869 25.5875C8.88089 25.81 8.91287 26.0464 9.02769 26.2454C9.1425 26.4444 9.33088 26.5898 9.55192 26.6502C9.77296 26.7106 10.0088 26.6811 10.2083 26.568C10.4077 26.4548 10.5546 26.2673 10.6172 26.0461C10.7682 25.5875 10.9211 24.9754 11.0741 24.511C11.0741 24.0524 10.9211 23.5937 10.4642 23.4421C10.3542 23.4116 10.2391 23.4031 10.1258 23.4173C10.0124 23.4314 9.90299 23.4679 9.80371 23.5246C9.70443 23.5813 9.61728 23.6571 9.54724 23.7476C9.47721 23.8382 9.42567 23.9418 9.39559 24.0524C9.24265 24.511 9.08972 25.1231 8.93869 25.5875ZM7.57181 31.0909C7.53551 31.181 7.51875 31.2778 7.52265 31.3748C7.52656 31.4719 7.55104 31.567 7.59446 31.6538C7.63788 31.7406 7.69924 31.8171 7.77445 31.8782C7.84967 31.9393 7.937 31.9836 8.03062 32.0082C8.14071 32.0384 8.25566 32.0466 8.36889 32.0322C8.48212 32.0178 8.5914 31.9811 8.69049 31.9242C8.78957 31.8674 8.87652 31.7914 8.94633 31.7008C9.01615 31.6102 9.06747 31.5066 9.09736 31.3961C9.2503 30.9374 9.40324 30.3253 9.55618 29.8609C9.61397 29.6384 9.58199 29.402 9.46718 29.203C9.35236 29.0041 9.16398 28.8586 8.94295 28.7982C8.72191 28.7378 8.48606 28.7674 8.28661 28.8805C8.08716 28.9936 7.94022 29.1811 7.87769 29.4023C7.72475 30.0144 7.57181 30.4731 7.57181 31.0852V31.0909ZM6.04244 36.4409C6.01236 36.5514 6.00435 36.6668 6.01885 36.7804C6.03335 36.894 6.07008 37.0036 6.12693 37.103C6.18378 37.2023 6.25963 37.2894 6.35011 37.3592C6.4406 37.429 6.54394 37.4801 6.65419 37.5097C7.11109 37.5097 7.41887 37.3581 7.56799 36.8995C7.72093 36.2874 7.87386 35.8287 8.0268 35.2185C8.06582 35.1177 8.08007 35.0089 8.06835 34.9014C8.05663 34.7939 8.01928 34.6907 7.95946 34.6008C7.89964 34.5108 7.81911 34.4366 7.72468 34.3845C7.63025 34.3323 7.5247 34.3038 7.41696 34.3013C6.95815 34.1478 6.50125 34.4529 6.50125 34.7599C6.34831 35.3701 6.19537 35.8288 6.04244 36.4409ZM4.51306 41.7908C4.45526 42.0133 4.48724 42.2497 4.60206 42.4487C4.71687 42.6477 4.90525 42.7932 5.12629 42.8536C5.34733 42.914 5.58318 42.8844 5.78262 42.7713C5.98207 42.6582 6.12902 42.4706 6.19155 42.2494L6.49743 40.7143C6.65036 40.2557 6.49743 39.7971 6.03861 39.6455C5.92865 39.6149 5.81376 39.6065 5.70054 39.6207C5.58733 39.6348 5.47801 39.6713 5.37889 39.728C5.27976 39.7847 5.19278 39.8605 5.12293 39.9511C5.05308 40.0416 5.00174 40.1452 4.97187 40.2557L4.51306 41.7908ZM35.1885 16.5686C35.3395 17.0272 35.0356 17.3362 34.7297 17.4858C34.2728 17.6393 33.965 17.3323 33.814 17.0272L33.5138 15.6513C33.3609 15.3462 33.6668 14.8838 33.9707 14.8838C34.0604 14.847 34.1569 14.8298 34.2537 14.8335C34.3505 14.8371 34.4454 14.8614 34.5321 14.9049C34.6188 14.9483 34.6952 15.0098 34.7564 15.0852C34.8175 15.1607 34.8618 15.2484 34.8865 15.3424L35.1923 16.5647L35.1885 16.5686ZM36.2552 20.6962C36.4082 21.1548 36.1042 21.4637 35.7983 21.6134C35.4925 21.7631 35.0337 21.4599 35.0337 21.1548L34.5748 19.7789C34.5748 19.4738 34.7278 19.0114 35.0337 19.0114C35.4899 18.8579 35.7952 19.0107 35.9494 19.47C36.1023 19.9286 36.1023 20.3853 36.2533 20.6923L36.2552 20.6962ZM37.4768 24.8238C37.4768 25.2824 37.3239 25.5913 36.867 25.741C36.5611 25.8926 36.2552 25.5875 36.1023 25.2824C35.9281 24.843 35.8249 24.3785 35.7964 23.9065C35.7609 23.746 35.7892 23.5778 35.8753 23.4379C35.9614 23.298 36.0985 23.1973 36.2574 23.1573C36.4164 23.1173 36.5846 23.1411 36.7263 23.2237C36.868 23.3063 36.9719 23.4411 37.0161 23.5995C37.1439 24.0167 37.2971 24.4255 37.4749 24.8238H37.4768ZM38.5436 28.9494C38.6965 29.4081 38.3925 29.717 38.0867 29.8667C37.6298 30.0202 37.322 29.7151 37.171 29.4081C37.018 28.9494 37.018 28.4908 36.867 28.0341C36.8377 27.9536 36.8266 27.8676 36.8346 27.7823C36.8426 27.697 36.8695 27.6146 36.9133 27.5411C36.9571 27.4675 37.0166 27.4047 37.0877 27.3572C37.1587 27.3097 37.2394 27.2787 37.3239 27.2665C37.4027 27.2224 37.4918 27.1999 37.5821 27.2012C37.6723 27.2026 37.7607 27.2278 37.8382 27.2742C37.9157 27.3207 37.9796 27.3869 38.0236 27.466C38.0675 27.5452 38.0899 27.6346 38.0886 27.7252C38.2163 28.1415 38.3688 28.5497 38.5455 28.9475L38.5436 28.9494ZM39.6122 33.077C39.7652 33.5356 39.4593 33.8446 39.1553 33.9943C39.0752 34.0237 38.9895 34.0348 38.9045 34.0268C38.8195 34.0187 38.7374 33.9917 38.6641 33.9478C38.5909 33.9039 38.5283 33.8441 38.481 33.7728C38.4337 33.7015 38.4028 33.6204 38.3906 33.5356L37.9318 32.1598C37.7789 31.8547 38.0848 31.3922 38.3906 31.3922C38.8475 31.2387 39.1553 31.3922 39.3044 31.8508C39.4535 32.3095 39.4574 32.7681 39.6103 33.0732L39.6122 33.077ZM40.6809 37.2046C40.8338 37.6639 40.6809 37.9696 40.2221 38.1219C39.9181 38.2754 39.4574 37.9683 39.4574 37.6632L39.0005 36.2874C39.0005 35.9823 39.1534 35.5198 39.6103 35.5198C39.9162 35.3663 40.2201 35.5198 40.375 35.9784C40.531 36.3703 40.6339 36.7814 40.6809 37.2008V37.2046ZM41.9006 41.3322C41.9006 41.7915 41.7482 42.0972 41.4436 42.2494C40.9848 42.403 40.679 42.0959 40.5279 41.7908L40.2221 40.415C40.1927 40.3344 40.1817 40.2482 40.1898 40.1628C40.198 40.0774 40.225 39.9948 40.269 39.9213C40.313 39.8477 40.3728 39.7849 40.444 39.7375C40.5153 39.6901 40.5962 39.6593 40.6809 39.6474C40.7597 39.6032 40.8488 39.5807 40.939 39.5821C41.0293 39.5834 41.1176 39.6086 41.1951 39.6551C41.2726 39.7016 41.3366 39.7677 41.3805 39.8469C41.4245 39.926 41.4469 40.0154 41.4456 40.106L41.9025 41.3284L41.9006 41.3322ZM34.5768 22.2236C34.7297 22.6823 34.4257 22.9912 33.9669 22.9912C33.663 23.1428 33.3571 22.8377 33.2022 22.3791L33.0493 21.0032C33.0493 20.6981 33.3552 20.3911 33.661 20.2356C34.1179 20.2356 34.4257 20.5407 34.4257 20.8458L34.5768 22.2217V22.2236ZM35.0356 26.0461C35.1885 26.5047 34.8826 26.8137 34.5768 26.8137C34.1199 26.9672 33.8121 26.6621 33.8121 26.3551C33.661 25.8964 33.661 25.4378 33.5081 24.9792C33.5081 24.5206 33.8121 24.2116 34.1179 24.2116C34.5748 24.0581 34.8826 24.3651 34.8826 24.6702C35.0087 25.1173 35.0604 25.5822 35.0356 26.0461ZM35.6454 30.0202C35.6454 30.3253 35.3395 30.6323 35.0356 30.7878C34.5768 30.7878 34.2709 30.4826 34.2709 30.1775C34.1448 29.7305 34.0931 29.2656 34.1179 28.8017C33.965 28.3431 34.2709 28.0341 34.5748 28.0341C35.0337 28.0341 35.3395 28.1857 35.3395 28.6443C35.4925 29.1029 35.4925 29.5616 35.6454 30.0202ZM36.1042 33.8427C36.1042 34.1478 35.7983 34.6102 35.4925 34.6102C35.0356 34.6102 34.7278 34.3051 34.7278 33.9981C34.6017 33.5511 34.55 33.0862 34.5748 32.6222C34.4238 32.3171 34.7278 31.8547 35.1866 31.8547C35.4906 31.8547 35.7964 32.0082 35.9513 32.4668C35.9265 32.9307 35.9782 33.3956 36.1042 33.8427ZM36.5611 37.6632C36.5611 38.1219 36.2552 38.4308 35.9513 38.4308C35.6473 38.4308 35.1866 38.2792 35.1866 37.8206C35.1866 37.362 35.0337 36.9033 35.0337 36.4447C34.8807 36.1377 35.1866 35.8326 35.6435 35.6772C35.9494 35.6772 36.2533 35.9823 36.4082 36.2874C36.4082 36.746 36.5611 37.2046 36.5611 37.6632ZM37.018 41.4857C37.018 41.9443 36.867 42.2533 36.4082 42.2533C36.1042 42.4068 35.6435 42.0998 35.6435 41.6411L35.4906 40.4188C35.4906 39.9602 35.6435 39.6512 36.1023 39.6512C36.1825 39.6218 36.2682 39.6107 36.3531 39.6187C36.4381 39.6268 36.5202 39.6537 36.5935 39.6977C36.6668 39.7416 36.7293 39.8014 36.7767 39.8727C36.824 39.944 36.8548 40.0251 36.867 40.1099L37.018 41.4857ZM31.6786 25.5875C31.6786 26.0461 31.9845 26.3551 32.2884 26.3551C32.7472 26.3551 33.0531 26.2035 33.0531 25.7448L33.2061 24.369C33.359 24.062 33.0531 23.7568 32.7492 23.6014C32.2903 23.6014 31.9845 23.9084 31.9845 24.2135L31.6786 25.5894V25.5875ZM31.2198 29.7151C31.0668 30.1737 31.3708 30.4826 31.8296 30.4826C32.1336 30.6362 32.4395 30.3291 32.5943 29.8705C32.5695 29.4066 32.6212 28.9417 32.7472 28.4946C32.7472 28.1895 32.4414 27.8844 32.1355 27.7271C31.8315 27.7271 31.3708 28.0341 31.3708 28.3392C31.3708 28.7978 31.2198 29.2565 31.2198 29.7151ZM30.608 33.8427C30.608 34.3013 30.9139 34.6102 31.2198 34.6102C31.6767 34.7637 31.9845 34.4567 31.9845 33.9981C31.9845 33.5395 32.1355 33.2305 32.1355 32.7758C32.2884 32.3171 31.9845 32.0082 31.5257 32.0082C31.2217 31.8547 30.9158 32.1598 30.761 32.4668C30.7858 32.9307 30.7341 33.3956 30.608 33.8427ZM30.1511 37.9683C29.9982 38.427 30.3041 38.7359 30.608 38.7359C31.0668 38.8875 31.3727 38.5824 31.5237 38.2773C31.4989 37.8133 31.5506 37.3485 31.6767 36.9014C31.6767 36.4428 31.3708 36.1339 31.0668 36.1339C30.608 35.9823 30.3022 36.2874 30.3022 36.5925C30.1761 37.0395 30.1244 37.5044 30.1492 37.9683H30.1511ZM29.5413 42.0959C29.5413 42.5545 29.6942 42.8635 30.1511 42.8635C30.457 43.0151 30.9158 42.71 30.9158 42.4049L31.0688 41.029C31.0688 40.5704 30.9158 40.2614 30.4589 40.2614C30.153 40.1098 29.8472 40.415 29.6942 40.8736L29.5413 42.0959ZM31.2198 19.1668C31.1758 19.2459 31.1534 19.3353 31.1547 19.4259C31.156 19.5165 31.1811 19.6052 31.2274 19.683C31.2738 19.7608 31.3396 19.825 31.4185 19.8691C31.4974 19.9132 31.5864 19.9357 31.6767 19.9344C31.9826 20.086 32.4414 19.7809 32.4414 19.4757L32.9002 18.0999C32.9035 17.9415 32.8622 17.7855 32.781 17.6497C32.6999 17.5139 32.5821 17.4039 32.4414 17.3323C31.9845 17.1807 31.6767 17.4858 31.5257 17.7909L31.2198 19.1668ZM30.0001 23.5918C29.9595 23.7544 29.985 23.9265 30.0709 24.0703C30.1567 24.2141 30.296 24.3177 30.458 24.3584C30.6199 24.3991 30.7914 24.3736 30.9346 24.2874C31.0779 24.2012 31.1811 24.0614 31.2217 23.8988C31.3727 23.4402 31.5257 23.1313 31.6786 22.6746C31.6786 22.2166 31.5263 21.9108 31.2217 21.7573C30.7629 21.6057 30.457 21.9108 30.306 22.216C30.1318 22.6553 30.0285 23.1198 30.0001 23.5918ZM28.7804 28.0264C28.6275 28.4831 28.7804 28.794 29.2373 28.9418C29.5432 28.9418 30.002 28.7902 30.002 28.3315C30.1802 27.9341 30.3334 27.5259 30.4608 27.1092C30.4608 26.6506 30.3079 26.3416 30.002 26.192C29.5451 26.192 29.2373 26.3435 29.0863 26.6506C28.9136 27.0903 28.811 27.5546 28.7823 28.0264H28.7804ZM27.5588 32.4591C27.4059 32.9171 27.5588 33.2229 28.0176 33.3764C28.3216 33.3764 28.7823 33.2229 28.7823 32.9178L29.2392 31.5419C29.2392 31.2349 29.0863 30.7743 28.7823 30.7743C28.3235 30.6227 28.0176 30.7743 27.8666 31.2329C27.7156 31.6916 27.5607 32.0005 27.5607 32.4572L27.5588 32.4591ZM26.3392 37.0434C26.1862 37.3504 26.3392 37.6556 26.7961 37.811C27.1019 37.9626 27.5607 37.6575 27.5607 37.3524L28.0196 35.9765C28.0196 35.6714 27.8666 35.2089 27.5607 35.2089C27.1045 35.0554 26.7992 35.2083 26.645 35.6676C26.4721 36.1066 26.3696 36.5703 26.3411 37.0415L26.3392 37.0434ZM25.1176 41.478C25.0735 41.5573 25.0511 41.6469 25.0525 41.7377C25.0539 41.8284 25.0792 41.9172 25.1257 41.9951C25.1722 42.0729 25.2384 42.1371 25.3175 42.1811C25.3967 42.2251 25.4859 42.2473 25.5764 42.2456C25.8803 42.3991 26.3411 42.0921 26.3411 41.787L26.798 40.4111C26.8015 40.253 26.7605 40.0971 26.6796 39.9613C26.5988 39.8255 26.4815 39.7154 26.3411 39.6436C25.8823 39.49 25.5764 39.7951 25.4254 40.1022L25.1195 41.478H25.1176ZM99.5733 11.8308C99.5342 11.9315 99.5199 12.0402 99.5316 12.1476C99.5433 12.2551 99.5807 12.3581 99.6405 12.448C99.7004 12.5378 99.781 12.6119 99.8755 12.6638C99.9699 12.7157 100.075 12.7439 100.183 12.7461C100.386 12.8028 100.603 12.7885 100.797 12.7055C100.991 12.6226 101.152 12.4758 101.252 12.2894L101.556 10.6065C101.709 10.1479 101.556 9.68927 101.099 9.53768C100.64 9.53768 100.183 9.68927 100.03 10.1479L99.5733 11.8308ZM98.1988 16.7221C98.141 16.9446 98.173 17.181 98.2878 17.38C98.4026 17.579 98.591 17.7244 98.812 17.7848C99.033 17.8452 99.2689 17.8157 99.4683 17.7026C99.6678 17.5894 99.8147 17.4019 99.8773 17.1807C100.03 16.7221 100.183 16.11 100.336 15.6456C100.336 15.187 100.183 14.7283 99.7243 14.5748C99.6142 14.5446 99.4993 14.5364 99.386 14.5508C99.2728 14.5653 99.1635 14.6019 99.0645 14.6588C98.9654 14.7157 98.8784 14.7916 98.8086 14.8822C98.7388 14.9728 98.6875 15.0764 98.6576 15.187C98.5046 15.6456 98.3517 16.2577 98.1988 16.7221ZM96.8261 21.765C96.8261 22.2236 96.9791 22.6823 97.436 22.8358C97.5462 22.8663 97.6613 22.8747 97.7748 22.8604C97.8882 22.8461 97.9977 22.8095 98.097 22.7526C98.1964 22.6957 98.2835 22.6197 98.3534 22.5289C98.4234 22.4382 98.4748 22.3344 98.5046 22.2236C98.6576 21.6134 98.8105 21.1548 98.9615 20.6885C99.0221 20.4653 98.9919 20.2271 98.8775 20.0263C98.7632 19.8255 98.574 19.6786 98.3517 19.6177C98.1294 19.5569 97.8921 19.5873 97.692 19.702C97.492 19.8168 97.3456 20.0067 97.285 20.2299C97.132 20.6885 96.9791 21.2987 96.8261 21.765ZM95.6065 26.8098C95.4535 27.2685 95.6065 27.7271 96.0634 27.7271C96.5203 27.8806 96.9791 27.7271 97.132 27.2685C97.285 26.6582 97.436 26.1996 97.5889 25.5875C97.6279 25.4867 97.6422 25.3779 97.6305 25.2703C97.6187 25.1628 97.5814 25.0597 97.5216 24.9697C97.4618 24.8797 97.3812 24.8056 97.2868 24.7534C97.1924 24.7013 97.0868 24.6728 96.9791 24.6702C96.5203 24.5167 96.0634 24.6702 95.9104 25.1289C95.7575 25.741 95.6065 26.1996 95.6065 26.8098ZM94.2319 31.8547C94.0809 32.1598 94.3849 32.6222 94.6908 32.7719C94.8008 32.8024 94.9159 32.8108 95.0292 32.7965C95.1425 32.7822 95.2519 32.7455 95.351 32.6886C95.4502 32.6317 95.5371 32.5557 95.6069 32.465C95.6767 32.3742 95.7278 32.2705 95.7575 32.1598C95.9104 31.7012 96.0634 31.0909 96.2163 30.6246C96.2464 30.5141 96.2546 30.3988 96.2402 30.2851C96.2258 30.1715 96.1893 30.0618 96.1327 29.9623C96.076 29.8628 96.0004 29.7756 95.9101 29.7055C95.8198 29.6354 95.7166 29.5839 95.6065 29.5539C95.5052 29.5142 95.3959 29.4997 95.2878 29.5117C95.1798 29.5237 95.0762 29.5618 94.986 29.6227C94.8958 29.6836 94.8217 29.7656 94.7699 29.8615C94.7182 29.9575 94.6904 30.0646 94.6888 30.1737C94.5359 30.7839 94.383 31.2425 94.23 31.8547H94.2319ZM92.8593 36.746C92.8292 36.8565 92.8211 36.9719 92.8354 37.0855C92.8498 37.1992 92.8863 37.3089 92.943 37.4083C92.9996 37.5078 93.0753 37.5951 93.1656 37.6651C93.2558 37.7352 93.359 37.7867 93.4692 37.8167C93.775 37.9683 94.2339 37.6632 94.3849 37.2046C94.5359 36.746 94.6908 36.1339 94.8437 35.6695C94.8738 35.5588 94.8818 35.4433 94.8673 35.3296C94.8529 35.2158 94.8162 35.1061 94.7593 35.0066C94.7025 34.9071 94.6266 34.8199 94.5361 34.7499C94.4456 34.6799 94.3423 34.6285 94.2319 34.5987C94.1314 34.5596 94.0229 34.5454 93.9157 34.5571C93.8085 34.5689 93.7057 34.6064 93.6159 34.6664C93.5262 34.7264 93.4521 34.8072 93.3999 34.9019C93.3478 34.9967 93.3191 35.1026 93.3162 35.2109C93.1652 35.6695 93.0123 36.2797 92.8593 36.746ZM91.4867 41.7908C91.4566 41.9013 91.4485 42.0167 91.4628 42.1304C91.4772 42.244 91.5137 42.3537 91.5704 42.4532C91.627 42.5526 91.7026 42.6399 91.7929 42.71C91.8832 42.7801 91.9864 42.8316 92.0965 42.8616C92.5535 42.8616 93.0123 42.7081 93.0123 42.2494L93.4692 40.5685C93.5082 40.4676 93.5224 40.3589 93.5107 40.2513C93.499 40.1438 93.4616 40.0407 93.4018 39.9507C93.342 39.8607 93.2615 39.7865 93.167 39.7344C93.0726 39.6823 92.9671 39.6538 92.8593 39.6512C92.5535 39.4977 92.0946 39.8028 91.9436 40.1099L91.4867 41.7908ZM100.183 18.5566C100.183 19.0152 100.487 19.4738 100.948 19.4738C101.048 19.5129 101.157 19.5272 101.264 19.5154C101.371 19.5036 101.474 19.4662 101.564 19.4061C101.654 19.3461 101.728 19.2654 101.78 19.1706C101.832 19.0759 101.861 18.9699 101.864 18.8617L102.167 17.1807C102.167 16.7221 101.864 16.2635 101.403 16.2635C100.946 16.11 100.487 16.5686 100.487 16.8737L100.183 18.5566ZM99.7243 23.2944C99.5733 23.753 99.8773 24.062 100.336 24.2116C100.793 24.2116 101.252 23.9065 101.252 23.4441C101.403 22.9854 101.403 22.3733 101.556 21.7612C101.556 21.3026 101.252 20.9936 100.791 20.8439C100.334 20.8439 99.8753 21.151 99.8753 21.6115C99.8753 22.2217 99.7224 22.6803 99.7224 23.2925L99.7243 23.2944ZM99.1145 27.8806C98.9615 28.3392 99.4204 28.7978 99.8792 28.7978C100.185 28.9494 100.644 28.6443 100.795 28.1857C100.795 27.5755 100.948 27.1169 100.948 26.5047C100.948 26.0461 100.642 25.5875 100.183 25.5875C99.7243 25.434 99.4184 25.8926 99.2674 26.3551C99.2674 26.8137 99.1145 27.4258 99.1145 27.8902V27.8806ZM98.5123 32.6107C98.5123 33.0693 98.8182 33.528 99.277 33.528C99.7358 33.528 100.042 33.2229 100.193 32.7604C100.193 32.3018 100.346 31.6896 100.346 31.2253C100.376 31.1148 100.384 30.9994 100.369 30.8858C100.355 30.7721 100.318 30.6625 100.261 30.5632C100.204 30.4639 100.128 30.3768 100.038 30.307C99.9475 30.2372 99.8441 30.186 99.7339 30.1564C99.4992 30.1595 99.2711 30.2347 99.0803 30.3719C98.8896 30.5092 98.7454 30.7019 98.6671 30.924C98.6671 31.5361 98.5142 31.9948 98.5142 32.605L98.5123 32.6107ZM97.9024 37.1969C97.9055 37.4325 97.9804 37.6615 98.1171 37.8529C98.2539 38.0444 98.4458 38.1892 98.6671 38.2677C99.124 38.2677 99.5828 37.9607 99.5828 37.5001C99.5828 36.8899 99.7339 36.4313 99.7339 35.8192C99.7729 35.7183 99.7871 35.6095 99.7754 35.502C99.7637 35.3945 99.7263 35.2914 99.6665 35.2014C99.6067 35.1114 99.5262 35.0372 99.4318 34.9851C99.3373 34.933 99.2318 34.9044 99.124 34.9019C98.6671 34.9019 98.2083 35.2089 98.2083 35.6695C98.0573 36.1262 98.0573 36.7383 97.9044 37.2046L97.9024 37.1969ZM97.2926 41.9367C97.2926 42.3953 97.5966 42.8539 98.0573 42.8539C98.518 42.8539 98.9711 42.5469 98.9711 42.0863L99.277 40.5512C99.277 40.0926 98.9711 39.634 98.5123 39.634C98.4119 39.5944 98.3035 39.5798 98.1962 39.5913C98.089 39.6028 97.9861 39.64 97.8962 39.6999C97.8064 39.7598 97.7322 39.8405 97.6801 39.9352C97.6279 40.03 97.5993 40.136 97.5966 40.2442L97.2926 41.9271V41.9367ZM103.699 22.6746C103.738 22.776 103.752 22.8855 103.74 22.9936C103.728 23.1017 103.69 23.2053 103.629 23.2954C103.569 23.3856 103.487 23.4596 103.392 23.5113C103.296 23.5629 103.19 23.5905 103.081 23.5918C102.624 23.5918 102.166 23.2867 102.166 22.8243L101.862 21.2891C101.865 21.0539 101.94 20.8253 102.077 20.6342C102.214 20.4431 102.405 20.2987 102.626 20.2203C103.083 20.2203 103.542 20.5254 103.542 20.9878L103.693 22.6688L103.699 22.6746ZM104.463 27.7194C104.463 28.178 104.16 28.487 103.699 28.6366C103.242 28.6366 102.785 28.3315 102.785 27.8691C102.658 27.3183 102.607 26.7528 102.632 26.1881C102.479 25.7295 102.785 25.4205 103.242 25.2709C103.699 25.2709 104.158 25.576 104.158 26.0384C104.311 26.4971 104.311 27.1092 104.462 27.7194H104.463ZM105.075 32.6107C105.072 32.8463 104.997 33.0753 104.861 33.2667C104.724 33.4582 104.532 33.603 104.311 33.6815C103.852 33.6815 103.546 33.3764 103.395 32.9139C103.395 32.3018 103.242 31.8432 103.242 31.231C103.089 30.7724 103.548 30.3138 104.007 30.3138C104.465 30.3138 104.771 30.6208 104.922 31.0813C104.922 31.54 105.075 32.1502 105.075 32.6165V32.6107ZM105.685 37.6556C105.725 37.8591 105.683 38.0704 105.569 38.243C105.454 38.4155 105.275 38.5352 105.072 38.5757C104.87 38.6161 104.659 38.5741 104.487 38.4587C104.315 38.3434 104.196 38.1642 104.156 37.9607C104.003 37.3504 104.003 36.7383 103.85 36.2797C103.85 35.8211 104.156 35.3624 104.614 35.3624C104.715 35.3234 104.824 35.3091 104.931 35.3209C105.038 35.3327 105.141 35.3701 105.231 35.4301C105.32 35.4901 105.394 35.5709 105.447 35.6657C105.499 35.7604 105.527 35.8664 105.53 35.9746C105.53 36.5848 105.683 37.1969 105.683 37.6556H105.685ZM106.45 42.7004C106.45 43.159 106.144 43.6176 105.685 43.6176C105.226 43.6176 104.769 43.3125 104.769 42.8501L104.463 41.3149C104.463 40.8563 104.769 40.3977 105.228 40.3977C105.329 40.3585 105.437 40.3442 105.544 40.356C105.651 40.3677 105.754 40.4052 105.844 40.4653C105.933 40.5253 106.007 40.6062 106.059 40.701C106.111 40.7957 106.139 40.9017 106.142 41.0098L106.448 42.6908L106.45 42.7004ZM104.454 14.7341C104.515 14.9573 104.484 15.1955 104.37 15.3963C104.256 15.5971 104.066 15.744 103.844 15.8049C103.622 15.8657 103.384 15.8353 103.184 15.7206C102.984 15.6058 102.838 15.4159 102.777 15.1927L102.319 13.6576C102.319 13.199 102.471 12.7403 102.928 12.5888C103.038 12.5582 103.153 12.5497 103.267 12.5639C103.38 12.578 103.49 12.6145 103.589 12.6712C103.688 12.7279 103.775 12.8037 103.845 12.8942C103.915 12.9848 103.967 13.0884 103.997 13.199L104.454 14.7341ZM105.828 20.2376C105.981 20.6962 105.828 21.1548 105.37 21.3064C104.913 21.3064 104.454 21.1548 104.303 20.6962C104.15 20.084 103.997 19.6254 103.844 19.0152C103.805 18.9144 103.791 18.8056 103.803 18.6981C103.814 18.5905 103.852 18.4874 103.911 18.3974C103.971 18.3075 104.052 18.2333 104.146 18.1811C104.241 18.129 104.346 18.1005 104.454 18.098C104.913 17.9444 105.37 18.098 105.523 18.5566C105.675 19.1668 105.828 19.6254 105.828 20.2376ZM107.358 25.5875C107.388 25.698 107.396 25.8134 107.382 25.927C107.367 26.0407 107.331 26.1504 107.274 26.2498C107.218 26.3493 107.142 26.4366 107.052 26.5066C106.961 26.5767 106.858 26.6282 106.748 26.6582C106.647 26.6973 106.539 26.7116 106.432 26.6998C106.325 26.688 106.222 26.6506 106.132 26.5906C106.042 26.5306 105.968 26.4498 105.916 26.355C105.864 26.2603 105.835 26.1543 105.832 26.0461C105.679 25.5875 105.526 24.9754 105.373 24.511C105.343 24.4005 105.335 24.2851 105.35 24.1715C105.364 24.0578 105.401 23.9482 105.458 23.8489C105.515 23.7496 105.591 23.6625 105.681 23.5927C105.772 23.5229 105.875 23.4717 105.985 23.4421C106.086 23.403 106.194 23.3887 106.301 23.4004C106.408 23.412 106.51 23.4494 106.6 23.5092C106.689 23.569 106.763 23.6496 106.815 23.7441C106.868 23.8387 106.896 23.9444 106.899 24.0524C107.052 24.511 107.205 25.1231 107.358 25.5875ZM108.887 31.0909C109.04 31.3961 108.734 31.8585 108.277 32.0082C108.167 32.0385 108.052 32.0466 107.939 32.0322C107.825 32.0179 107.716 31.9812 107.617 31.9244C107.517 31.8675 107.43 31.7916 107.36 31.7009C107.29 31.6103 107.239 31.5067 107.209 31.3961C107.056 30.9374 107.056 30.3253 106.903 29.8609C106.75 29.3965 106.903 28.9437 107.362 28.7921C107.472 28.7615 107.586 28.7531 107.7 28.7673C107.813 28.7815 107.922 28.8179 108.021 28.8746C108.12 28.9313 108.207 29.0071 108.277 29.0977C108.347 29.1883 108.399 29.2918 108.428 29.4023C108.581 30.0144 108.734 30.4731 108.887 31.0852V31.0909ZM110.417 36.4409C110.417 36.8995 110.264 37.3581 109.807 37.5097C109.348 37.5097 108.891 37.3581 108.738 36.8995C108.585 36.2874 108.432 35.8287 108.281 35.2185C108.242 35.1177 108.228 35.0089 108.24 34.9014C108.251 34.7939 108.289 34.6907 108.349 34.6008C108.408 34.5108 108.489 34.4366 108.583 34.3845C108.678 34.3323 108.783 34.3038 108.891 34.3013C109.095 34.2447 109.311 34.2593 109.505 34.3427C109.7 34.426 109.86 34.5731 109.96 34.7599C110.111 35.3701 110.264 35.8288 110.417 36.4409ZM111.789 41.7908C111.819 41.9013 111.827 42.0167 111.813 42.1304C111.799 42.244 111.762 42.3537 111.706 42.4532C111.649 42.5526 111.573 42.6399 111.483 42.71C111.393 42.7801 111.289 42.8316 111.179 42.8616C110.873 43.0132 110.415 42.7081 110.264 42.2494L109.807 40.7143C109.776 40.6039 109.768 40.4886 109.782 40.375C109.797 40.2614 109.833 40.1517 109.89 40.0524C109.947 39.953 110.022 39.8659 110.113 39.796C110.203 39.7262 110.306 39.675 110.417 39.6455C110.517 39.606 110.625 39.5913 110.733 39.6028C110.84 39.6143 110.943 39.6515 111.033 39.7114C111.122 39.7713 111.197 39.852 111.249 39.9468C111.301 40.0415 111.33 40.1475 111.332 40.2557L111.789 41.7908ZM81.1156 16.5686C81.1156 17.0272 81.2686 17.3362 81.7255 17.4858C81.8056 17.5153 81.8913 17.5264 81.9763 17.5183C82.0613 17.5103 82.1434 17.4833 82.2167 17.4394C82.2899 17.3954 82.3525 17.3356 82.3998 17.2643C82.4471 17.193 82.478 17.112 82.4902 17.0272L82.949 15.6513C82.949 15.3462 82.796 14.8838 82.3372 14.8838C82.0333 14.7303 81.7274 14.8838 81.5725 15.3424L81.1156 16.5686ZM80.047 20.6962C80.047 21.1554 80.1999 21.4612 80.5058 21.6134C80.9627 21.765 81.2705 21.4599 81.4196 21.1548C81.5725 20.6962 81.5725 20.2376 81.7255 19.7789C81.8784 19.4738 81.5725 19.0114 81.2686 19.0114C81.1897 18.9672 81.1007 18.9447 81.0104 18.946C80.9201 18.9474 80.8318 18.9726 80.7543 19.0191C80.6768 19.0655 80.6129 19.1317 80.5689 19.2108C80.5249 19.29 80.5025 19.3794 80.5039 19.47C80.3762 19.8865 80.2229 20.2948 80.0451 20.6923L80.047 20.6962ZM78.9802 24.8238C78.8273 25.2824 79.1313 25.5913 79.4371 25.741C79.743 25.8907 80.2018 25.5875 80.3529 25.2824C80.3816 24.8106 80.4841 24.3463 80.6568 23.9065C80.6861 23.8261 80.6972 23.74 80.6892 23.6548C80.6812 23.5695 80.6543 23.487 80.6105 23.4135C80.5668 23.3399 80.5072 23.2771 80.4361 23.2296C80.3651 23.1821 80.2844 23.1512 80.1999 23.139C79.743 22.9874 79.4352 23.139 79.2842 23.5976C79.1332 24.0562 79.1313 24.5148 78.9802 24.8218V24.8238ZM77.9116 28.9494C77.7587 29.4081 77.9116 29.717 78.3685 29.8667C78.4487 29.8961 78.5343 29.9072 78.6193 29.8992C78.7043 29.8911 78.7864 29.8642 78.8597 29.8202C78.933 29.7763 78.9955 29.7165 79.0428 29.6452C79.0902 29.5739 79.121 29.4929 79.1332 29.4081L79.592 28.0341C79.592 27.7271 79.4391 27.2665 78.9822 27.2665C78.6763 27.1149 78.3704 27.2665 78.2175 27.7252C78.0615 28.117 77.9586 28.5282 77.9116 28.9475V28.9494ZM76.69 33.077C76.69 33.5356 76.8429 33.8446 77.1488 33.9943C77.6057 34.1478 77.9135 33.8427 78.0645 33.5356C78.2175 33.077 78.2175 32.6184 78.3685 32.1598C78.3978 32.0793 78.4089 31.9933 78.4009 31.908C78.3929 31.8227 78.366 31.7403 78.3222 31.6667C78.2784 31.5932 78.2189 31.5304 78.1478 31.4829C78.0768 31.4354 77.9961 31.4044 77.9116 31.3922C77.8327 31.3481 77.7437 31.3255 77.6534 31.3269C77.5632 31.3282 77.4748 31.3534 77.3973 31.3999C77.3198 31.4464 77.2559 31.5125 77.2119 31.5917C77.168 31.6708 77.1455 31.7602 77.1469 31.8508C77.0195 32.2675 76.8663 32.6757 76.6881 33.0732L76.69 33.077ZM75.6233 37.2046C75.4703 37.6632 75.7762 37.9722 76.0802 38.1219C76.3841 38.2715 76.8449 37.9683 76.9959 37.6632C77.0243 37.1912 77.1276 36.7268 77.3018 36.2874C77.3311 36.2068 77.3421 36.1206 77.334 36.0352C77.3259 35.9498 77.2988 35.8673 77.2548 35.7937C77.2109 35.7201 77.151 35.6573 77.0798 35.6099C77.0085 35.5626 76.9276 35.5318 76.8429 35.5198C76.3867 35.3663 76.0814 35.5192 75.9272 35.9784C75.7762 36.437 75.7762 36.8957 75.6233 37.2008V37.2046ZM74.5546 41.3322C74.4017 41.7915 74.5546 42.0972 75.0134 42.2494C75.3174 42.403 75.7781 42.0959 75.7781 41.7908L76.235 40.415C76.235 40.1098 76.0821 39.6474 75.6252 39.6474C75.3193 39.4939 75.0153 39.6474 74.8605 40.106L74.5546 41.3284V41.3322ZM81.7255 22.2236C81.7255 22.6823 82.0314 22.9912 82.3353 22.9912C82.6412 23.1428 83.1 22.8377 83.1 22.3791L83.2529 21.0032C83.4059 20.6981 83.1 20.3911 82.6431 20.2356C82.3372 20.2356 82.0333 20.5407 81.8784 20.8458L81.7255 22.2217V22.2236ZM81.2686 26.0461C81.2686 26.5047 81.4196 26.8137 81.8784 26.8137C81.9586 26.8431 82.0443 26.8542 82.1292 26.8462C82.2142 26.8381 82.2963 26.8112 82.3696 26.7672C82.4429 26.7233 82.5054 26.6635 82.5528 26.5922C82.6001 26.5209 82.6309 26.4399 82.6431 26.3551C82.6431 25.8964 82.796 25.4378 82.796 24.9792C82.796 24.5206 82.6431 24.2116 82.1862 24.2116C82.106 24.1843 82.0208 24.1748 81.9366 24.1838C81.8523 24.1928 81.771 24.2201 81.6983 24.2637C81.6256 24.3073 81.5632 24.3662 81.5154 24.4364C81.4676 24.5066 81.4356 24.5864 81.4215 24.6702C81.4215 25.1289 81.2705 25.5875 81.2705 26.0461H81.2686ZM80.8098 30.0202C80.6568 30.3253 80.9627 30.6323 81.4196 30.7878C81.7255 30.7878 82.0313 30.4826 82.1843 30.1775C82.1597 29.7137 82.2107 29.249 82.3353 28.8017C82.3353 28.3431 82.0313 28.0341 81.7255 28.0341C81.4196 28.0341 80.9608 28.1857 80.9608 28.6443C80.9608 29.1029 80.8079 29.5616 80.8079 30.0202H80.8098ZM80.351 33.8427C80.198 34.1478 80.5039 34.6102 80.9608 34.6102C81.2667 34.6102 81.5706 34.3051 81.7255 33.9981C81.7 33.5302 81.7524 33.0614 81.8803 32.6107C81.8803 32.3056 81.5744 31.8432 81.2705 31.8432C80.8117 31.8432 80.5058 31.9967 80.5058 32.4553C80.3797 32.9023 80.3281 33.3672 80.3529 33.8312L80.351 33.8427ZM79.8921 37.6632C79.7411 38.1219 80.0451 38.4308 80.351 38.4308C80.8079 38.4308 81.1156 38.2792 81.1156 37.8206C81.2686 37.362 81.2686 36.9033 81.4196 36.4447C81.4196 36.1377 81.1156 35.8326 80.8098 35.6772C80.3529 35.6772 80.0451 35.9823 80.0451 36.2874C79.919 36.7344 79.8673 37.1993 79.8921 37.6632ZM79.2823 41.4857C79.2823 41.9443 79.5882 42.2533 79.8921 42.2533C80.351 42.4068 80.6568 42.0998 80.6568 41.6411L80.8098 40.4188C80.9627 39.9602 80.6568 39.6512 80.3529 39.6512C79.8941 39.4977 79.5882 39.8028 79.5882 40.1099L79.2823 41.4857ZM84.6217 25.5875C84.6217 26.0461 84.4707 26.3551 84.0119 26.3551C83.7079 26.3551 83.2472 26.2035 83.2472 25.7448L83.0943 24.369C83.0943 24.062 83.2472 23.7568 83.706 23.6014C84.01 23.6014 84.4707 23.9084 84.4707 24.2135L84.6217 25.5894V25.5875ZM85.2335 29.7151C85.2335 30.1737 84.9276 30.4826 84.6217 30.4826C84.1648 30.6362 83.857 30.3291 83.857 29.8705C83.7324 29.4232 83.6814 28.9585 83.706 28.4946C83.5531 28.1895 83.857 27.8844 84.1629 27.7271C84.6198 27.7271 84.9276 28.0341 84.9276 28.3392C85.0805 28.7978 85.0805 29.2565 85.2335 29.7151ZM85.6904 33.8427C85.8433 34.3013 85.5374 34.6102 85.0805 34.6102C84.7747 34.7637 84.4707 34.4567 84.3159 33.9981C84.3406 33.5847 84.2887 33.1702 84.1629 32.7758C84.1629 32.3171 84.4688 32.0082 84.7728 32.0082C84.8529 31.9788 84.9386 31.9676 85.0236 31.9757C85.1086 31.9837 85.1907 32.0107 85.2639 32.0546C85.3372 32.0986 85.3998 32.1584 85.4471 32.2297C85.4944 32.301 85.5253 32.382 85.5374 32.4668C85.5374 32.9254 85.6904 33.384 85.6904 33.8427ZM86.3002 37.9683C86.3002 38.427 85.9963 38.7359 85.6904 38.7359C85.2335 38.8875 84.9257 38.5824 84.9257 38.2773C84.7996 37.8302 84.748 37.3654 84.7728 36.9014C84.6198 36.4428 84.9257 36.1339 85.3826 36.1339C85.6885 35.9823 85.9943 36.2874 86.1473 36.5925C86.1227 37.0563 86.1737 37.521 86.2983 37.9683H86.3002ZM86.759 42.0959C86.912 42.5545 86.6061 42.8635 86.1492 42.8635C85.8433 43.0151 85.5374 42.71 85.3845 42.4049L85.2335 41.029C85.2335 40.5704 85.5374 40.2614 85.8433 40.2614C86.3002 40.1098 86.608 40.415 86.608 40.8736L86.7609 42.0959H86.759ZM85.2297 19.1668C85.2297 19.4738 85.0767 19.9344 84.7708 19.9344C84.3139 20.086 84.0062 19.7809 83.8551 19.4757L83.5512 18.0999C83.3982 17.7929 83.5512 17.4877 84.0081 17.3323C84.3139 17.1807 84.7728 17.4858 84.7728 17.7909L85.2316 19.1668H85.2297ZM86.4493 23.5995C86.4493 23.9065 86.2964 24.3671 85.9924 24.3671C85.5336 24.5187 85.2277 24.3671 85.0767 23.9084C84.9257 23.4498 84.7708 23.1409 84.7708 22.6842C84.6179 22.2262 84.7708 21.9204 85.2297 21.7669C85.5336 21.6153 85.9943 21.9204 85.9943 22.2256L86.4512 23.6014L86.4493 23.5995ZM87.6709 28.0341C87.6709 28.4908 87.518 28.8017 87.2121 28.9494C86.7552 28.9494 86.4474 28.7978 86.2964 28.3392C86.1069 27.9591 86.0031 27.5418 85.9924 27.1169C85.8395 26.6582 85.9924 26.3493 86.4493 26.1996C86.7552 26.1996 87.214 26.3512 87.214 26.6582L87.6728 28.0341H87.6709ZM88.8906 32.4668C88.8906 32.9248 88.7383 33.2305 88.4337 33.384C87.9749 33.384 87.669 33.2305 87.518 32.9254C87.3438 32.486 87.2406 32.0216 87.2121 31.5496C87.1716 31.387 87.197 31.2148 87.2829 31.0711C87.3687 30.9273 87.508 30.8237 87.67 30.783C87.832 30.7422 88.0034 30.7678 88.1467 30.854C88.2899 30.9402 88.3931 31.0799 88.4337 31.2425C88.5847 31.7012 88.7377 32.0101 88.8906 32.4668ZM90.1122 37.0511C90.1155 37.2094 90.0742 37.3655 89.993 37.5013C89.9119 37.6371 89.7941 37.7471 89.6534 37.8187C89.1965 37.9703 88.8887 37.6651 88.7377 37.36C88.5641 36.9206 88.4615 36.4561 88.4337 35.9842C88.4005 35.8244 88.4302 35.6579 88.5166 35.5196C88.6031 35.3813 88.7395 35.282 88.8973 35.2426C89.0551 35.2031 89.222 35.2265 89.363 35.3079C89.5039 35.3893 89.608 35.5223 89.6534 35.6791L90.1122 37.053V37.0511ZM91.3319 41.4857C91.3319 41.7908 91.1789 42.2533 90.875 42.2533C90.4162 42.4068 90.1103 42.0998 89.9593 41.7947L89.6534 40.4188C89.5004 40.1137 89.6534 39.8067 90.1122 39.6512C90.1923 39.6218 90.278 39.6107 90.363 39.6187C90.448 39.6268 90.5301 39.6537 90.6034 39.6977C90.6767 39.7416 90.7392 39.8014 90.7865 39.8727C90.8338 39.944 90.8647 40.0251 90.8769 40.1099L91.3338 41.4857H91.3319ZM49.5302 50.046C49.5302 46.5286 56.5481 46.07 56.5481 50.046V79.8525C56.5481 82.1456 51.5127 82.9113 48.7674 82.9113C46.1732 82.9113 42.3594 82.1437 42.3594 79.8525L49.5302 50.046ZM40.5279 50.3511C41.2926 46.8357 48.4616 46.377 47.5459 50.3511L40.375 79.8525C39.7652 82.1456 34.4257 82.9113 31.8315 82.9113C29.0844 82.9113 25.5764 82.1437 26.0333 79.8525L40.5279 50.3511ZM31.2198 50.6485C33.0493 47.2866 40.3731 46.828 38.3906 50.6485L22.9822 80.008C21.9135 82.3011 16.4212 83.0648 13.6759 83.0648C10.9307 83.0648 7.72475 82.2972 8.7934 80.008L31.2198 50.6485ZM2.38532 70.0699L22.2194 50.9632C24.8136 47.5994 32.4414 47.1408 29.2373 50.9632L8.03062 77.7053C2.99516 83.5138 -0.665786 74.3433 2.38532 70.0622V70.0699ZM3.30868 67.0131C-0.0483004 70.375 -0.964014 62.4268 2.08709 59.8286C5.91053 56.9234 9.10501 54.1717 12.9208 51.2683C16.5817 47.9045 24.2095 47.4459 19.9387 51.2683C13.9875 57.0769 9.41089 61.3561 3.30677 67.0035L3.30868 67.0131ZM75.0173 50.3511C74.2526 46.8357 66.9307 46.377 67.9974 50.3511L75.1683 79.8525C75.78 82.1456 81.1195 82.9113 83.7137 82.9113C86.4589 82.9113 89.9688 82.1437 89.51 79.8525L75.0096 50.3511H75.0173ZM84.3159 50.6485C82.4844 47.2866 75.1606 46.828 77.145 50.6485L92.3948 80.008C93.6145 82.3011 99.1068 83.0648 101.854 83.0648C104.601 83.0648 107.803 82.2972 106.737 80.008L84.3159 50.6485ZM113.152 70.0699L93.3162 50.9632C90.7239 47.5994 83.0943 47.1408 86.2983 50.9632L107.507 77.7053C112.54 83.5138 116.203 74.3433 113.152 70.0622V70.0699ZM112.237 67.0131C115.592 70.375 116.507 62.4268 113.456 59.8286C109.642 56.9234 106.438 54.1717 102.624 51.2683C98.9615 47.9045 91.3338 47.4459 95.6065 51.2683C101.556 57.0769 106.132 61.3561 112.238 67.0035L112.237 67.0131ZM66.0131 50.046C66.0131 46.5286 58.9951 46.07 58.9951 50.046V79.8525C58.9951 82.1456 64.0287 82.9113 66.7758 82.9113C69.37 82.9113 73.1839 82.1437 73.1839 79.8525L66.0131 50.046ZM5.7423 48.9752C5.49838 49.0182 5.24805 49.0069 5.00896 48.9422C4.76987 48.8774 4.54786 48.7607 4.35861 48.6004C4.16935 48.4401 4.01747 48.24 3.91368 48.0143C3.80989 47.7887 3.75672 47.5428 3.75793 47.2943C3.60499 46.377 4.36777 45.4598 5.43642 45.4598C13.8289 44.6922 22.5253 44.0839 31.0688 43.6253C39.6078 43.3196 48.1519 43.1667 56.7011 43.1667C65.7015 43.1667 74.5508 43.3202 83.5531 43.7788C92.4031 44.0833 101.252 44.6941 110.099 45.6114C110.347 45.6094 110.592 45.662 110.817 45.7656C111.042 45.8692 111.242 46.0212 111.402 46.2109C111.562 46.4006 111.679 46.6233 111.744 46.8632C111.809 47.1031 111.82 47.3545 111.778 47.5994C111.625 48.5166 110.862 49.2803 109.795 49.1345C101.099 48.3669 92.2495 47.7586 83.4001 47.3C74.5508 46.8414 65.7015 46.6879 56.7011 46.6879C48.1557 46.6879 39.6122 46.8414 31.2217 47.3C22.5253 47.6051 14.1328 48.2173 5.7423 48.981V48.9752ZM57.4639 26.5047C57.4639 26.1996 57.9208 25.8926 58.2285 25.8926C58.6854 25.8926 58.9932 26.1996 58.9932 26.5047V33.9885C58.9997 34.091 58.9843 34.1937 58.9482 34.2897C58.912 34.3858 58.8559 34.473 58.7836 34.5456C58.7112 34.6182 58.6243 34.6745 58.5286 34.7108C58.4329 34.7471 58.3306 34.7625 58.2285 34.7561C58.0299 34.7434 57.8426 34.6585 57.7019 34.5172C57.5611 34.3759 57.4765 34.1879 57.4639 33.9885V26.5047ZM55.7854 26.5047C55.7854 26.1996 56.0893 25.8926 56.55 25.8926C56.854 25.8926 57.3147 26.1996 57.3147 26.5047V33.9885C57.3021 34.1879 57.2175 34.3759 57.0767 34.5172C56.936 34.6585 56.7487 34.7434 56.55 34.7561C56.448 34.7625 56.3457 34.7471 56.25 34.7108C56.1543 34.6745 56.0674 34.6182 55.995 34.5456C55.9227 34.473 55.8666 34.3858 55.8304 34.2897C55.7943 34.1937 55.7789 34.091 55.7854 33.9885V26.5047ZM59.2934 26.5047C59.3045 26.3458 59.3726 26.1962 59.4851 26.0837C59.5975 25.9712 59.7467 25.9033 59.9051 25.8926C60.362 25.8926 60.6698 26.1996 60.6698 26.5047V33.9885C60.6762 34.091 60.6609 34.1937 60.6247 34.2897C60.5886 34.3858 60.5325 34.473 60.4601 34.5456C60.3878 34.6182 60.3009 34.6745 60.2052 34.7108C60.1095 34.7471 60.0072 34.7625 59.9051 34.7561C59.5992 34.7561 59.2934 34.449 59.2934 33.9885V26.5047ZM65.7014 37.2046V40.8736C65.7109 41.1172 65.67 41.3601 65.5813 41.5871C65.4927 41.8141 65.3583 42.0202 65.1864 42.1925C65.0146 42.3648 64.8091 42.4995 64.5829 42.5883C64.3567 42.677 64.1146 42.7178 63.8719 42.7081C63.3887 42.7021 62.9269 42.507 62.5848 42.1644C62.2427 41.8218 62.0474 41.3586 62.0405 40.8736V37.2046H54.4108V40.8736C54.4044 41.3584 54.2095 41.8216 53.8677 42.1643C53.526 42.507 53.0644 42.7021 52.5813 42.7081C52.3385 42.718 52.0962 42.6775 51.8698 42.5888C51.6433 42.5002 51.4376 42.3655 51.2656 42.1932C51.0935 42.0209 50.9589 41.8147 50.8701 41.5876C50.7814 41.3605 50.7405 41.1174 50.7499 40.8736V37.2046H49.5302V40.1099C49.5113 40.8283 49.2137 41.511 48.7008 42.0125C48.1878 42.514 47.5001 42.7946 46.784 42.7946C46.068 42.7946 45.3803 42.514 44.8673 42.0125C44.3544 41.511 44.0567 40.8283 44.0379 40.1099V30.3234C44.0567 29.6049 44.3544 28.9222 44.8673 28.4207C45.3803 27.9193 46.068 27.6386 46.784 27.6386C47.5001 27.6386 48.1878 27.9193 48.7008 28.4207C49.2137 28.9222 49.5113 29.6049 49.5302 30.3234V33.5337H50.1458C49.8399 32.4649 49.536 31.2406 49.536 30.0183C49.5618 29.1957 49.6635 28.3773 49.8399 27.5736C49.687 27.1149 49.536 26.806 49.536 26.3493C48.9563 24.1612 48.7495 21.8904 48.9242 19.6331C48.9242 18.8655 49.0771 18.2572 49.0771 17.4935C46.3224 16.4151 43.579 15.3405 40.6809 14.2755C38.6965 13.6633 36.7141 12.8996 34.7297 12.2894V12.7461C34.7297 13.0531 34.4257 13.5137 34.1199 13.5137H32.9002C32.7015 13.501 32.5143 13.4161 32.3735 13.2748C32.2327 13.1335 32.1481 12.9455 32.1355 12.7461V11.5238C28.934 10.6065 25.5777 9.68927 22.0665 8.77203C19.4723 8.16181 17.4898 7.54968 15.9643 7.08914V7.54968C15.9707 7.65216 15.9553 7.75484 15.9192 7.8509C15.883 7.94695 15.8269 8.03419 15.7546 8.10679C15.6823 8.1794 15.5954 8.23572 15.4997 8.27201C15.404 8.30829 15.3017 8.32371 15.1996 8.31725H14.1328C14.0307 8.32371 13.9284 8.30829 13.8327 8.27201C13.737 8.23572 13.6501 8.1794 13.5778 8.10679C13.5055 8.03419 13.4494 7.94695 13.4132 7.8509C13.3771 7.75484 13.3617 7.65216 13.3681 7.54968V5.55401C13.3681 5.40241 13.3681 5.2489 13.2152 5.2489C12.4505 2.9462 15.3525 2.03855 22.5234 1.73344C27.8628 1.42834 33.5081 1.27482 39.1553 1.12131C45.5634 0.969715 51.9638 0.969715 58.2266 0.969715C64.3288 0.969715 70.7369 0.969715 77.1526 1.12131C82.9509 1.27482 88.5943 1.42834 93.9356 1.73344C100.954 2.03855 103.852 2.95579 103.089 5.2489C103.006 5.33111 102.952 5.43827 102.936 5.55401V7.54968C102.936 8.0083 102.632 8.31725 102.326 8.31725H101.106C101.004 8.32403 100.902 8.30883 100.806 8.27265C100.71 8.23648 100.623 8.18017 100.551 8.10749C100.478 8.03482 100.422 7.94745 100.386 7.85125C100.35 7.75505 100.335 7.65223 100.342 7.54968V7.08914C98.9673 7.54776 96.8319 8.15989 94.2377 8.77011C90.8826 9.68735 87.3727 10.6046 84.1687 11.5218V12.7442C84.156 12.9436 84.0714 13.1316 83.9306 13.2729C83.7899 13.4141 83.6026 13.4991 83.404 13.5118H82.3353C82.1367 13.4991 81.9494 13.4141 81.8086 13.2729C81.6679 13.1316 81.5833 12.9436 81.5706 12.7442V12.2894C79.5882 12.8996 77.6038 13.6633 75.6214 14.2755C72.7213 15.3462 69.9761 16.4151 67.2289 17.4858C67.3818 18.2534 67.3819 19.021 67.5348 19.6254C67.6877 21.9185 67.5348 24.2116 66.9249 26.3416C66.9368 26.7941 66.7722 27.2334 66.4661 27.5659C66.6191 28.4812 66.772 29.2469 66.772 30.1641C66.77 31.3003 66.6157 32.4311 66.3132 33.5261H66.9249V30.3253C66.9438 29.6068 67.2415 28.9241 67.7544 28.4226C68.2674 27.9212 68.9551 27.6405 69.6711 27.6405C70.3872 27.6405 71.0749 27.9212 71.5879 28.4226C72.1008 28.9241 72.3984 29.6068 72.4173 30.3253V40.1118C72.3984 40.8303 72.1008 41.5129 71.5879 42.0144C71.0749 42.5159 70.3872 42.7965 69.6711 42.7965C68.9551 42.7965 68.2674 42.5159 67.7544 42.0144C67.2415 41.5129 66.9438 40.8303 66.9249 40.1118V37.2046H65.7014ZM56.5481 25.2824H60.0561C61.1248 25.2824 61.8876 26.1996 61.8876 27.2685V33.3783C61.8876 34.4471 61.1229 35.3644 60.0561 35.3644H56.5481C56.0256 35.3555 55.5268 35.1436 55.1567 34.7732C54.7866 34.4028 54.5741 33.9028 54.5638 33.3783V27.2685C54.5741 26.744 54.7866 26.2439 55.1567 25.8735C55.5268 25.5031 56.0256 25.2912 56.5481 25.2824Z" fill="#E8342C"/>
</svg>
