<svg width="31" height="31" viewBox="0 0 31 31" fill="none" xmlns="http://www.w3.org/2000/svg">
<path opacity="0.5" d="M15.3633 8.00026C11.1419 8.00026 7.73506 11.4071 7.73506 15.6285C7.73506 19.8498 11.1419 23.2567 15.3633 23.2567C19.5846 23.2567 22.9915 19.8498 22.9915 15.6285C22.9915 11.4071 19.5846 8.00026 15.3633 8.00026ZM15.3633 20.5862C12.6333 20.5862 10.4055 18.3584 10.4055 15.6285C10.4055 12.8985 12.6333 10.6707 15.3633 10.6707C18.0932 10.6707 20.321 12.8985 20.321 15.6285C20.321 18.3584 18.0932 20.5862 15.3633 20.5862ZM23.3039 5.91003C22.3183 5.91003 21.5224 6.70596 21.5224 7.69156C21.5224 8.67716 22.3183 9.47308 23.3039 9.47308C24.2895 9.47308 25.0854 8.68088 25.0854 7.69156C25.0857 7.45752 25.0398 7.22573 24.9504 7.00945C24.861 6.79317 24.7297 6.59666 24.5643 6.43118C24.3988 6.26569 24.2023 6.13447 23.986 6.04505C23.7697 5.95562 23.5379 5.90974 23.3039 5.91003ZM30.2329 15.6285C30.2329 13.5754 30.2515 11.541 30.1362 9.49168C30.0209 7.11135 29.4778 4.99882 27.7372 3.2582C25.9929 1.51387 23.8841 0.974579 21.5038 0.859282C19.4507 0.743985 17.4163 0.762581 15.367 0.762581C13.3139 0.762581 11.2795 0.743985 9.2302 0.859282C6.84988 0.974579 4.73734 1.51759 2.99673 3.2582C1.2524 5.00253 0.713104 7.11135 0.597807 9.49168C0.48251 11.5447 0.501106 13.5791 0.501106 15.6285C0.501106 17.6778 0.48251 19.7159 0.597807 21.7652C0.713104 24.1456 1.25612 26.2581 2.99673 27.9987C4.74106 29.743 6.84988 30.2823 9.2302 30.3976C11.2832 30.5129 13.3177 30.4943 15.367 30.4943C17.42 30.4943 19.4544 30.5129 21.5038 30.3976C23.8841 30.2823 25.9966 29.7393 27.7372 27.9987C29.4816 26.2544 30.0209 24.1456 30.1362 21.7652C30.2552 19.7159 30.2329 17.6815 30.2329 15.6285ZM26.9599 24.3985C26.6884 25.0754 26.3611 25.5812 25.8367 26.1019C25.3123 26.6263 24.8102 26.9536 24.1333 27.2251C22.1769 28.0024 17.5316 27.8276 15.3633 27.8276C13.1949 27.8276 8.54586 28.0024 6.58953 27.2288C5.91263 26.9573 5.40681 26.63 4.88611 26.1056C4.3617 25.5812 4.0344 25.0791 3.7629 24.4022C2.98929 22.4421 3.16409 17.7968 3.16409 15.6285C3.16409 13.4601 2.98929 8.81106 3.7629 6.85473C4.0344 6.17782 4.3617 5.672 4.88611 5.15131C5.41053 4.63061 5.91263 4.2996 6.58953 4.02809C8.54586 3.25448 13.1949 3.42929 15.3633 3.42929C17.5316 3.42929 22.1807 3.25448 24.137 4.02809C24.8139 4.2996 25.3197 4.62689 25.8404 5.15131C26.3648 5.67572 26.6921 6.17782 26.9636 6.85473C27.7372 8.81106 27.5624 13.4601 27.5624 15.6285C27.5624 17.7968 27.7372 22.4421 26.9599 24.3985Z" fill="white"/>
</svg>
