<svg width="198" height="27" viewBox="0 0 198 27" fill="none" xmlns="http://www.w3.org/2000/svg">
<path d="M102.855 18.5705C102.855 20.3064 101.71 21.209 99.7306 21.209H95.3563V15.8279H99.6612C101.64 15.8279 102.855 16.8347 102.855 18.5705ZM102.265 8.95393C102.265 10.6203 101.189 11.4883 99.2446 11.4883H95.3563V6.38487H99.2446C101.189 6.38487 102.265 7.28751 102.265 8.95393ZM108.861 19.369C108.861 16.5917 107.021 14.092 104.174 13.5019C106.535 12.8075 108.306 10.8981 108.306 7.94713C108.306 4.09354 105.355 1.62863 100.39 1.62863H89.4197V26H100.772C105.91 26 108.861 23.3962 108.861 19.369Z" fill="#467E46"/>
<path d="M120.845 11.1064C122.824 11.1064 124.49 12.3215 124.49 14.4392H117.061C117.408 12.2868 118.901 11.1064 120.845 11.1064ZM130.114 19.5773H123.796C123.31 20.6189 122.372 21.4521 120.706 21.4521C118.797 21.4521 117.234 20.2717 117.026 17.7373H130.461C130.531 17.1471 130.566 16.557 130.566 16.0015C130.566 10.0996 126.573 6.35015 120.914 6.35015C115.151 6.35015 111.124 10.169 111.124 16.3139C111.124 22.4589 115.221 26.2777 120.914 26.2777C125.74 26.2777 129.177 23.3615 130.114 19.5773Z" fill="#467E46"/>
<path d="M147.064 26H152.965V14.6822C152.965 9.47468 149.98 6.41959 145.501 6.41959C142.897 6.41959 140.814 7.56525 139.634 9.19695V6.62789H133.697V26H139.634V15.4807C139.634 12.8422 141.092 11.3841 143.349 11.3841C145.605 11.3841 147.064 12.8422 147.064 15.4807V26Z" fill="#467E46"/>
<path d="M155.91 16.3139C155.91 22.4589 159.938 26.2777 165.631 26.2777C170.492 26.2777 173.929 23.4656 174.935 18.9872H168.617C168.096 20.4106 167.159 21.209 165.527 21.209C163.409 21.209 161.951 19.5426 161.951 16.3139C161.951 13.0853 163.409 11.4188 165.527 11.4188C167.159 11.4188 168.131 12.2868 168.617 13.6407H174.935C173.929 9.02336 170.492 6.35015 165.631 6.35015C159.938 6.35015 155.91 10.2037 155.91 16.3139Z" fill="#467E46"/>
<path d="M178.111 26H184.047V15.4807C184.047 12.8422 185.506 11.3841 187.762 11.3841C190.019 11.3841 191.477 12.8422 191.477 15.4807V26H197.379V14.6822C197.379 9.47468 194.428 6.41959 190.019 6.41959C187.346 6.41959 185.228 7.56525 184.047 9.23166V0.309387H178.111V26Z" fill="#467E46"/>
<path d="M33.0854 1.80222L26.0726 26H22.5314L16.9073 6.52374L11.0748 26L7.56841 26.0347L0.798584 1.80222H4.16614L9.44313 22.32L15.2756 1.80222H18.8167L24.3715 22.2506L29.6832 1.80222H33.0854Z" fill="#5B5A60"/>
<path d="M44.8401 26.3124C43.058 26.3124 41.4379 25.9074 39.9797 25.0973C38.5448 24.2873 37.4107 23.1416 36.5775 21.6604C35.7674 20.156 35.3624 18.4201 35.3624 16.4528C35.3624 14.5087 35.779 12.7959 36.6122 11.3147C37.4685 9.81028 38.6258 8.66462 40.0839 7.8777C41.542 7.06764 43.1737 6.6626 44.979 6.6626C46.7843 6.6626 48.416 7.06764 49.8741 7.8777C51.3322 8.66462 52.4779 9.79871 53.3111 11.28C54.1674 12.7612 54.5956 14.4855 54.5956 16.4528C54.5956 18.4201 54.1559 20.156 53.2764 21.6604C52.42 23.1416 51.2512 24.2873 49.7699 25.0973C48.2887 25.9074 46.6454 26.3124 44.8401 26.3124ZM44.8401 23.5351C45.9742 23.5351 47.0389 23.2689 48.0341 22.7366C49.0293 22.2043 49.8278 21.4058 50.4296 20.3411C51.0545 19.2765 51.3669 17.9804 51.3669 16.4528C51.3669 14.9253 51.066 13.6292 50.4643 12.5645C49.8625 11.4998 49.0756 10.7129 48.1035 10.2037C47.1315 9.67141 46.0784 9.40525 44.9443 9.40525C43.787 9.40525 42.7224 9.67141 41.7503 10.2037C40.8014 10.7129 40.0376 11.4998 39.459 12.5645C38.8804 13.6292 38.5911 14.9253 38.5911 16.4528C38.5911 18.0035 38.8688 19.3112 39.4243 20.3758C40.0029 21.4405 40.7667 22.239 41.7156 22.7713C42.6645 23.2805 43.706 23.5351 44.8401 23.5351Z" fill="#5B5A60"/>
<path d="M61.9087 10.0649C62.4642 8.97707 63.2511 8.13229 64.2695 7.53053C65.311 6.92877 66.5724 6.62789 68.0536 6.62789V9.89129H67.2204C63.6793 9.89129 61.9087 11.8123 61.9087 15.6543V26H58.7495V6.97506H61.9087V10.0649Z" fill="#5B5A60"/>
<path d="M82.3239 26L74.8598 17.5985V26H71.7005V0.309387H74.8598V15.4113L82.1851 6.97506H86.5941L77.6371 16.4528L86.6289 26H82.3239Z" fill="#5B5A60"/>
</svg>
